<?xml version="1.0" encoding="utf-8"?>
<!-- Generator: Adobe Illustrator 25.4.1, SVG Export Plug-In . SVG Version: 6.00 Build 0)  -->
<svg version="1.1" id="Слой_1" xmlns="http://www.w3.org/2000/svg" xmlns:xlink="http://www.w3.org/1999/xlink" x="0px" y="0px"
	 viewBox="0 0 233 137" style="enable-background:new 0 0 233 137;" xml:space="preserve">
<style type="text/css">
	.st0{stroke:#009425;stroke-miterlimit:10;}
	.st1{fill:#00AA39;stroke:#009425;stroke-miterlimit:10;}
</style>
<polygon class="st0" points="62.7,96.3 62.3,96.6 62.7,97.1 62.7,96.3 "/>
<polygon class="st0" points="62.7,97.1 62.7,98 63.4,98 62.7,97.1 "/>
<polygon class="st0" points="0.6,64.3 0.3,64.6 0.6,65.1 0.6,64.3 "/>
<polygon class="st0" points="0.6,65.1 0.6,66 1.4,66 0.6,65.1 "/>
<polygon class="st0" points="134.6,41.6 134.6,41.8 134.8,41.7 134.6,41.6 "/>
<polygon class="st0" points="62.7,96.3 62.3,96.6 62.7,97.1 62.7,96.3 "/>
<polygon class="st0" points="62.7,97.1 62.7,98 63.4,98 62.7,97.1 "/>
<polygon class="st0" points="0.6,64.3 0.3,64.6 0.6,65.1 0.6,64.3 "/>
<path class="st0" d="M0.6,65.1v0.7c0,0.1,0,0.1,0.1,0.2h0.6L0.6,65.1L0.6,65.1z"/>
<polygon class="st0" points="134.6,41.6 134.6,41.8 134.8,41.7 134.6,41.6 "/>
<polygon class="st0" points="62.7,96.3 62.3,96.6 62.7,97.1 62.7,96.3 "/>
<polygon class="st0" points="62.7,97.1 62.7,98 63.4,98 62.7,97.1 "/>
<polygon class="st0" points="0.6,64.3 0.3,64.6 0.6,65.1 0.6,64.3 "/>
<polygon class="st0" points="0.6,65.1 0.6,66 1.4,66 0.6,65.1 "/>
<polygon class="st0" points="134.6,41.6 134.6,41.8 134.8,41.7 134.6,41.6 "/>
<polygon class="st0" points="62.7,97.1 62.7,98 63.4,98 62.7,97.1 "/>
<polygon class="st0" points="62.7,96.3 62.3,96.6 62.7,97.1 62.7,96.3 "/>
<path class="st1" d="M85.5,1.3 M22.9,57.2 M124.9,48.8 M208.6,97.7 M231.4,98.2 M184.6,62 M133.6,15 M85.5,1.3 M85.5,0
	C70.8,11.2,15.7,53,0.6,64.3v0.8l0.7,1h96.3V58h-6v0H23.5L80,15.3l44.3,34.3c-5.5,4.2-57.8,43.8-61.6,46.7v0.8l0.7,1h96.3v-8l-6,0
	l0,0H85.5c7.8-5.9,49.7-37.6,56.5-42.7c18.7,14.5,46.4,36,65,50.4C145.2,147.9,46.2,133.4,1.4,67.6C3.7,81,14.9,95,26.8,103.9
	c58.6,48.5,150.8,41.5,206.3-5.7c-8.4-6.5-27.8-21.5-36.4-28.2V46h-13v14c-5.4-4.2-31.4-24.3-36.1-28c-1.8,1.4-11.3,8.6-12.9,9.8V14
	h-13v14C116.3,23.9,90.3,3.7,85.5,0L85.5,0z"/>
<polygon class="st0" points="0.6,65.1 0.6,66 1.4,66 0.6,65.1 "/>
<polygon class="st0" points="0.6,64.3 0.3,64.6 0.6,65.1 0.6,64.3 "/>
<polygon class="st0" points="134.6,41.6 134.6,41.8 134.8,41.7 134.6,41.6 "/>
</svg>
