<svg xmlns="http://www.w3.org/2000/svg" viewBox="0 0 275.62 405.47"><g id="Слой_2" data-name="Слой 2"><g id="Слой_1-2" data-name="Слой 1"><path d="M200.1,71.26c-.28-.86-1.31-1.48-2-2.19Q166,36.52,133.88,4c-5.24-5.31-7.53-5.31-12.8,0L89.5,36C77.92,47.75,66.23,59.38,54.85,71.3c-1.56,1.63-2.92,5.31-2.12,6.89,1.11,2.17,4.36,3.28,6.73,4.76a2.31,2.31,0,0,0,1.48,0c5-1,5.74,1.55,5.66,5.88-.24,13.5-.09,27-.09,40.5C66.51,138,68.46,140,77,140h49.5q15.6,0,31.21,0H176c8.13,0,10.38-2.24,10.41-10.36,0-12.34,0-24.67,0-37,0-9,.07-8.76,8.87-9.79,2.39-.28,5.64-2.12,6.47-4.1S200.92,73.74,200.1,71.26ZM113.3,91c.87-8.56,7.49-11.7,16.24-10.74,6.19.67,11.21,6.54,11.41,14.28.28,11.13.16,22.27,0,33.4,0,1.27-1.69,3.55-2.65,3.58-8.59.28-17.19.17-25.3.17C113,117.7,112,104.23,113.3,91ZM178,74.87V86.6c0,13.5-.07,27,.07,40.48,0,3.27-.6,4.83-4.36,4.69-7.77-.28-15.55-.08-23.78-.08,0-12.5.2-24.3-.07-36.09-.21-9.4-3.88-17.33-12.6-21.72-14.36-7.21-33.32,1.64-34,21.09-.39,11.65-.1,23.32-.13,35a6.85,6.85,0,0,1-.4,1.37H75.53V75l-11.22-.88,61.11-62.33,64.1,62.5Z" fill="#8cc63f"/><path d="M60.21,255.87a8,8,0,0,1-2.66,5.4c-2.73,1.93-5.46.11-5.53-3.41-.12-5.83.28-11.69-.21-17.48a13.43,13.43,0,0,0-3.22-7.73c-12.8-13.11-25.84-26-38.88-38.83A23.88,23.88,0,0,1,2.05,175.6c.26-23.33.08-46.66.09-70,0-10.47,6.92-17.79,16.77-17.83s16.86,7.13,16.94,17.58c0,3.33,0,6.67,0,10h0c0,4,.36,8-.16,12-.24,1.8-1.9,4.36-3.45,4.84-3.27,1-4.33-2-4.48-4.5-.3-4.81-.15-9.66-.18-14.49,0-2.83.11-5.67-.09-8.49-.41-5.82-3.11-8.33-8.52-8.18A8.14,8.14,0,0,0,11,105c-.08,24.33-.19,48.66.16,73,0,3.07,2.06,6.75,4.3,9.05,13.21,13.64,26.7,27,40.23,40.34,3.31,3.26,5,6.79,4.73,11.49C60.14,244.54,60.56,250.23,60.21,255.87Z" fill="#009245"/><path d="M113.37,257.78c.11,3.18-1.62,4-4.36,4s-4.4-.88-4.35-4c.1-6.33,0-12.67,0-19,.13-11.48.54-23-4.36-33.84-2.74-6.1-6.28-11.59-12.29-14.58-18.39-9.15-32.86-23-46.72-37.73-1.25-1.33-2.57-2.61-3.94-3.82-3.8-3.38-7.71-3.61-10.67-.69-3.37,3.33-3.21,6.88.7,10.84q13.71,13.85,27.51,27.61c2.24,2.24,4.46,4.49,6.72,6.71s3.19,4.91.74,7.42-4.53.67-6.4-1.2c-11.91-11.87-23.92-23.65-35.68-35.68-6.4-6.54-6.3-15-.29-21.38a15.62,15.62,0,0,1,22-.8,122.22,122.22,0,0,1,10.47,10,136.43,136.43,0,0,0,38.08,30.26c13.18,7,20,19.07,21.28,33.54C113.12,229.51,112.88,243.68,113.37,257.78Z" fill="#009245"/><path d="M236.21,162.71c-12.22,12.72-24.8,25.1-37.27,37.58-1.9,1.9-3.94,2.22-6.1.11-2.75-2.69-1.2-4.8.78-6.8q15.67-15.76,31.4-31.46a36.65,36.65,0,0,0,4.13-4.33c2.4-3.37,2.59-6.91-.64-9.85-3-2.75-6.33-2.55-9.26.25-5.42,5.16-10.93,10.25-16.07,15.68a128.42,128.42,0,0,1-33.38,25c-12,6.4-17.13,17.5-18.19,30.24-1,12.23-.52,24.59-.91,36.88-.06,1.88-.8,4.55-2.15,5.4-3,1.89-5.88,0-6-3.68-.17-6.66-.05-13.32-.05-20-.32-11.94-.18-23.83,4.48-35.2,3.13-7.64,7.32-14.85,14.55-18.4,19.91-9.77,34.43-25.86,50.16-40.61a23.43,23.43,0,0,1,7.36-4.77c6.83-2.67,13.6-.27,17.82,5.82C240.56,149.93,240.7,158,236.21,162.71Z" fill="#009245"/><path d="M252.56,178.5c.14,5.82-2.06,10.26-6,14.2-13.18,13.19-26.41,26.34-39.41,39.71a11.56,11.56,0,0,0-2.85,6.85c-.4,6-.24,12-.11,18,.07,3.22-1.38,4.66-4.44,4.61s-4.43-1.47-4.36-4.7c.14-7.16-.35-14.35.18-21.48.19-2.63,2-5.6,3.95-7.58,13.25-13.59,26.88-26.8,40-40.51a16.25,16.25,0,0,0,4.16-10c.35-24,.21-48,.18-72,0-6-2.54-8.92-7.52-9.06s-8.6,3.62-8.72,9.35-.16,11.66,0,17.49c.12,3.51-1.39,5.66-4.72,5.66-3.61,0-3.29-3.15-3.26-5.6.09-7.32-.17-14.68.59-21.94.91-8.75,8.7-14.28,17.83-13.69,7.54.49,15,9.17,14.59,16.27-.71,12.62-.2,25.31-.2,38C252.48,154.18,252.29,166.34,252.56,178.5Z" fill="#009245"/><path d="M125.42,11.75l64.1,62.49L178,74.87V86.6c0,13.49-.07,27,.06,40.48,0,3.27-.6,4.82-4.36,4.69-7.76-.28-15.55-.09-23.78-.09,0-12.49.2-24.29-.06-36.08-.21-9.4-3.88-17.33-12.61-21.72-14.35-7.21-33.31,1.64-34,21.09-.4,11.65-.11,23.32-.14,35a7,7,0,0,1-.4,1.37H75.53V75l-11.22-.88Z" fill="#fff"/><path d="M113,131.7c0-14-1-27.47.35-40.7.87-8.56,7.5-11.69,16.25-10.74,6.18.68,11.21,6.55,11.4,14.29.28,11.13.17,22.27,0,33.4,0,1.27-1.69,3.55-2.65,3.58C129.67,131.81,121.07,131.7,113,131.7Z" fill="#fff"/><path d="M.28,351.1c-.19-2.32-.28-4.56-.28-6.69,0-1.11.87-1.86,2.62-2.25a46.84,46.84,0,0,1,9.14-.61l.84-35.18a45.45,45.45,0,0,0-5.57.51c-1.68.28-2.76.48-3.26.61a12.53,12.53,0,0,1-1.56-6.26c0-.67,1.18-1.4,3.53-2.2a63.61,63.61,0,0,1,8.13-2.1,39,39,0,0,1,7-.92,8.53,8.53,0,0,1,1.56.14,2.15,2.15,0,0,1,1.12.4l-1.12,45h5.16c1.15,0,2.3,0,3.43-.14s1.85-.17,2.16-.23q0,4.5-.08,6.4a6.9,6.9,0,0,1-.55,2.71,1.65,1.65,0,0,1-1.56.81Z" fill="#009245"/><path d="M37.29,351.1a9.33,9.33,0,0,1-.36-2.85,15,15,0,0,1,.41-3.95,18.68,18.68,0,0,1,2-4.13A131.7,131.7,0,0,1,49.14,326a90,90,0,0,0,6.34-8.91,12.62,12.62,0,0,0,2-6.43A4.62,4.62,0,0,0,56,307a5.83,5.83,0,0,0-4-1.29,29.67,29.67,0,0,0-6.34.83,21.43,21.43,0,0,0-5.78,2,18.2,18.2,0,0,1-1.29-7.44c0-1.4,1.7-2.61,5.1-3.61A39.73,39.73,0,0,1,55.2,296q7.52,0,10.79,3.2T69.25,309a18.86,18.86,0,0,1-2.43,9.31,96.39,96.39,0,0,1-7.76,11.25q-5.79,7.55-8.54,12h7a72.69,72.69,0,0,0,8.57-.46,29.25,29.25,0,0,0,3.92-.55q0,4.77-.14,6.81a8,8,0,0,1-.6,2.88,1.61,1.61,0,0,1-1.56.87Z" fill="#009245"/><path d="M83.93,349.58a1.89,1.89,0,0,1-2.12-2.16,5.55,5.55,0,0,1,.09-.82c1.21,0,2.13-1,2.76-2.74a35.58,35.58,0,0,0,1.44-8.19q.47-5.49,1.06-17.11a1.34,1.34,0,0,1,.21-.73,1.18,1.18,0,0,1,.78-.28c.43-.05,1.17-.07,2.23-.07h8.29v31a.72.72,0,0,1-.17.55,3,3,0,0,1-1.07.16H95V320.93h-4.4q-.51,10.31-1.25,16.42a37,37,0,0,1-2,9.18C86.49,348.56,85.36,349.58,83.93,349.58Z"/><path d="M106.34,345.91h7.8c0,.88,0,1.59,0,2.14a1.94,1.94,0,0,1-.18,1,.68.68,0,0,1-.53.17h-10.7v-31a1,1,0,0,1,.14-.44.59.59,0,0,1,.59-.28h10.89c0,.85,0,1.55,0,2.09a2.53,2.53,0,0,1-.16,1,.54.54,0,0,1-.5.2h-7.3v9.48h6.86c0,.81,0,1.49,0,2a2.55,2.55,0,0,1-.16,1.07.49.49,0,0,1-.49.25h-6.17Z"/><path d="M131.73,317.48v2.67a.8.8,0,0,1-.18.62.84.84,0,0,1-.58.16h-5.58V348.5a.72.72,0,0,1-.18.55,3.1,3.1,0,0,1-1.1.16h-2.39V320.93h-6.18V318.2c0-.48.25-.72.78-.72Z"/><path d="M155.81,348.5a.77.77,0,0,1-.16.55,2.78,2.78,0,0,1-1.05.16h-2.41V333.85h-7.26V348.5a.72.72,0,0,1-.16.55,2.81,2.81,0,0,1-1.06.16h-2.45v-31a.7.7,0,0,1,.16-.53,2.45,2.45,0,0,1,1.07-.16c.6,0,1.41,0,2.44,0v12.93h7.26V318.2a.7.7,0,0,1,.16-.53,2.32,2.32,0,0,1,1-.16q.88,0,2.43,0Z"/><path d="M177.39,348.55a.48.48,0,0,1-.23.59,3.35,3.35,0,0,1-1.34.17c-.82,0-1.54,0-2.18-.09l-1.92-8.07h-7.88l-1.77,7.44a1,1,0,0,1-.44.56,3.12,3.12,0,0,1-1.28.16c-.64,0-1.39-.05-2.27-.14L166.2,318c.09-.42.55-.64,1.36-.64a8.12,8.12,0,0,1,1.72.15Zm-6.48-10.72-1.54-6.52a62.59,62.59,0,0,1-1.58-8.75,80.15,80.15,0,0,1-1.65,8.75l-1.54,6.52Z"/><path d="M192,317.48q4.31,0,6.33,2.14c1.34,1.42,2,3.68,2,6.79,0,3.5-.76,6-2.29,7.6a8,8,0,0,1-6,2.33h-1.65V348.5a.72.72,0,0,1-.16.55,2.71,2.71,0,0,1-1.06.16h-2.4v-31a.6.6,0,0,1,.73-.72Zm.41,15.46a3.16,3.16,0,0,0,2.94-1.61,10.94,10.94,0,0,0,1-5.33,7.59,7.59,0,0,0-.83-3.93,3,3,0,0,0-2.8-1.37h-2.27v12.24Z"/><path d="M203.2,318.29c0-.3.06-.5.18-.58a2.38,2.38,0,0,1,1.06-.18c.59,0,1.4,0,2.43,0v12.93h2.54q4,0,5.77,1.95c1.17,1.3,1.75,3.36,1.75,6.2,0,3.36-.72,6-2.16,7.86a7,7,0,0,1-5.86,2.8H203.2ZM208.82,346a3.12,3.12,0,0,0,3-1.65,12.23,12.23,0,0,0,.88-5.42,7.42,7.42,0,0,0-.76-4,3.08,3.08,0,0,0-2.73-1.09h-2.32v12.06A15.3,15.3,0,0,0,208.82,346Zm11-26.84a3,3,0,0,1,.17-1.22c.12-.22.4-.34.84-.39s1.33-.07,2.71-.07v31a.65.65,0,0,1-.2.55,3,3,0,0,1-1.08.16h-2.44Z"/><path d="M242.05,348.5a.72.72,0,0,1-.16.55,2.66,2.66,0,0,1-1,.16h-2.41V333.85h-7.26V348.5a.77.77,0,0,1-.16.55,2.83,2.83,0,0,1-1.07.16h-2.44v-31a.66.66,0,0,1,.16-.53,2.43,2.43,0,0,1,1.06-.16c.6,0,1.42,0,2.45,0v12.93h7.26V318.2a.66.66,0,0,1,.16-.53,2.32,2.32,0,0,1,1-.16c.59,0,1.4,0,2.42,0Z"/><path d="M258.89,349.31a24.51,24.51,0,0,1-2.46-.14l-1.35-8.84q-.69-5.9-3.82-5.9h-1.44V348.5a.72.72,0,0,1-.16.55,2.86,2.86,0,0,1-1.08.16H246.1v-31a.66.66,0,0,1,.16-.53,2.43,2.43,0,0,1,1.06-.16c.61,0,1.44,0,2.5,0v13.46h1.67a2.33,2.33,0,0,0,1.75-.9,5.66,5.66,0,0,0,1.15-2.59l2.23-9.74a10.56,10.56,0,0,1,2.31-.29,3.14,3.14,0,0,1,1.18.15.52.52,0,0,1,.32.54,1.11,1.11,0,0,1-.05.41L258,328a8.65,8.65,0,0,1-1.13,2.64,5.33,5.33,0,0,1-1.63,1.62,6.6,6.6,0,0,1,2.48,2.8,14.67,14.67,0,0,1,1.33,4.65l1.41,8.66c0,.37-.06.61-.26.73A3.06,3.06,0,0,1,258.89,349.31Z"/><path d="M267.63,345.91h7.8c0,.88,0,1.59,0,2.14a1.83,1.83,0,0,1-.18,1,.66.66,0,0,1-.53.17H264v-31a1.09,1.09,0,0,1,.14-.44.59.59,0,0,1,.59-.28h10.89c0,.85,0,1.55,0,2.09a2.36,2.36,0,0,1-.16,1c-.08.14-.25.2-.5.2h-7.3v9.48h6.86c0,.81,0,1.49,0,2a2.94,2.94,0,0,1-.16,1.07.5.5,0,0,1-.5.25h-6.17Z"/><path d="M42.74,397.59a.72.72,0,0,1-.16.55,2.56,2.56,0,0,1-1,.16l-2.41,0V382.94H31.86v14.65a.72.72,0,0,1-.16.55,2.56,2.56,0,0,1-1.06.16l-2.44,0v-31a.7.7,0,0,1,.15-.53,2.49,2.49,0,0,1,1.07-.16c.6,0,1.42,0,2.44,0V379.5h7.27V367.29a.66.66,0,0,1,.16-.53,2.23,2.23,0,0,1,1-.16q.88,0,2.43,0Z"/><path d="M50.45,395h7.8c0,.88,0,1.59,0,2.15a1.81,1.81,0,0,1-.18,1,.66.66,0,0,1-.53.18H46.82v-31a1.09,1.09,0,0,1,.14-.44.61.61,0,0,1,.59-.28H58.44c0,.85,0,1.55,0,2.09a2.45,2.45,0,0,1-.16,1,.55.55,0,0,1-.5.19h-7.3v9.48h6.86c0,.81,0,1.5,0,2a2.87,2.87,0,0,1-.16,1.06.5.5,0,0,1-.5.25H50.45Z"/><path d="M62.24,405.47a6.08,6.08,0,0,1-1.79-.17c-.29-.12-.43-.41-.43-.86v-9.58h.76c.89,0,1.57-.57,2.06-1.72a33.36,33.36,0,0,0,1.33-7.51q.61-5.81,1.26-18.34a.92.92,0,0,1,.1-.53c.07-.09.31-.14.73-.16s1,0,1.65,0h9.17v28.29h2.27v9.58a.83.83,0,0,1-.44.86,6,6,0,0,1-1.79.17A45.7,45.7,0,0,1,76,398.32H63.28A46.73,46.73,0,0,1,62.24,405.47ZM73.4,394.86V370H68.86c-.51,7.9-1,13.64-1.49,17.26s-1.12,6.14-1.91,7.58Z"/><path d="M82.2,367.44a.76.76,0,0,1,.27-.66,1.56,1.56,0,0,1,1-.21h4.49q7.61,0,7.61,7a9,9,0,0,1-1.34,5.3,4.56,4.56,0,0,1-3,2,6.09,6.09,0,0,1,3.74,1.58c1.07.94,1.61,2.63,1.61,5,0,3.62-.81,6.33-2.42,8.11a8,8,0,0,1-6.2,2.68H82.2Zm6,12.1a2.84,2.84,0,0,0,2.41-1.31,6.86,6.86,0,0,0,.94-4,5.08,5.08,0,0,0-.94-3.5,3.25,3.25,0,0,0-2.46-1H85.92v9.75ZM88,395.09a3.57,3.57,0,0,0,3.06-1.79,9.91,9.91,0,0,0,1.2-5.46,8.16,8.16,0,0,0-.53-3.36,2.6,2.6,0,0,0-1.4-1.47,6.6,6.6,0,0,0-2.28-.34H85.92v12.42Z"/><path d="M99.89,367.29a.82.82,0,0,1,.12-.53,2,2,0,0,1,1-.16c.56,0,1.34,0,2.33,0v15.52q0,4.49-.4,9.42c.42-1.54,1-3.37,1.87-5.49l1.62-4.07,1-2.5,4.34-12a1.32,1.32,0,0,1,.46-.67,2,2,0,0,1,1-.2q.72,0,1.86,0v31a.62.62,0,0,1-.21.53,2.32,2.32,0,0,1-1,.18l-2.18,0v-11.4q0-6.8.53-13.32a131.22,131.22,0,0,1-4.3,12.42l-4.48,11.39a1.27,1.27,0,0,1-.45.67,2.07,2.07,0,0,1-1,.22l-2,0Z"/><path d="M120.2,398.4a3.06,3.06,0,0,1-1.24-.17q-.3-.18-.21-.69L120,388.7a13.66,13.66,0,0,1,1.27-4.58,6.3,6.3,0,0,1,2.45-2.76,5,5,0,0,1-1.62-1.63A9.38,9.38,0,0,1,121,377l-2.18-9.48a1,1,0,0,1-.06-.41.49.49,0,0,1,.31-.49,2.57,2.57,0,0,1,1.06-.15,10.11,10.11,0,0,1,2.23.29l2,9.65a5.8,5.8,0,0,0,1.15,2.66,2.29,2.29,0,0,0,1.75.92h1.86V367.29a.7.7,0,0,1,.15-.53,2.23,2.23,0,0,1,1-.16c.58,0,1.37,0,2.36,0V380h1.86a2.25,2.25,0,0,0,1.7-.92,5.91,5.91,0,0,0,1.15-2.66l2.09-9.65a9.42,9.42,0,0,1,2.18-.29,2.69,2.69,0,0,1,1.1.15.5.5,0,0,1,.3.49,1.94,1.94,0,0,1,0,.41L140.82,377a8.35,8.35,0,0,1-1.06,2.69,4.92,4.92,0,0,1-1.61,1.63,6,6,0,0,1,2.42,2.75,14.41,14.41,0,0,1,1.3,4.59l1.27,8.84c.06.34,0,.57-.23.69a3,3,0,0,1-1.22.17,23.46,23.46,0,0,1-2.36-.14l-1.22-9q-.72-5.89-3.72-5.9h-1.68v14.25a.72.72,0,0,1-.16.55,2.49,2.49,0,0,1-1,.16l-2.34,0v-15H127.5q-3.07,0-3.72,5.9l-1.28,9A21,21,0,0,1,120.2,398.4Z"/><path d="M146.82,367.29a.82.82,0,0,1,.12-.53,2.07,2.07,0,0,1,1-.16q.84,0,2.34,0v15.52q0,4.49-.41,9.42a55.73,55.73,0,0,1,1.88-5.49c.83-2.11,1.37-3.47,1.61-4.07l1-2.5,4.34-12a1.38,1.38,0,0,1,.46-.67,2.07,2.07,0,0,1,1-.2q.72,0,1.86,0v31a.62.62,0,0,1-.21.53,2.29,2.29,0,0,1-1,.18l-2.18,0v-11.4q0-6.8.54-13.32-1.28,4.62-4.31,12.42l-4.48,11.39a1.32,1.32,0,0,1-.44.67,2.15,2.15,0,0,1-1.05.22l-2,0Z"/><path d="M184.18,366.57v31a.77.77,0,0,1-.16.55,2.63,2.63,0,0,1-1.07.16l-2.49,0,.14-11.11c.06-2,.19-4.47.41-7.5s.36-5.07.46-6.16l-.78,2.73c-1.19,4.35-1.93,6.93-2.22,7.76l-2.41,7a.49.49,0,0,1-.49.35H174L171.62,384q-.59-1.77-2.91-10.26l0,.05c.08.94.23,2.87.44,5.81s.33,5.4.37,7.39l.09,10.56a.63.63,0,0,1-.21.55,2.89,2.89,0,0,1-1.07.16l-2.3,0v-31c0-.3.06-.5.18-.58a.89.89,0,0,1,.55-.14h2.62l4.36,13.78c.32,1,.63,2,.9,3s.45,1.65.55,2q.12-.53.51-2c.26-1,.53-1.94.8-2.91l4-13.2a1.7,1.7,0,0,1,.27-.56.56.56,0,0,1,.46-.16Z"/><path d="M195.74,398.78a7.41,7.41,0,0,1-4.84-1.44,8.85,8.85,0,0,1-2.55-5,48,48,0,0,1-.81-10.08,39.1,39.1,0,0,1,.92-9.53,9.46,9.46,0,0,1,2.83-5.08,7.64,7.64,0,0,1,4.94-1.54A6.94,6.94,0,0,1,201,367.6a8.85,8.85,0,0,1,2.51,4.92,44.8,44.8,0,0,1,.8,9.6,43.31,43.31,0,0,1-.89,9.85,9.63,9.63,0,0,1-2.72,5.21A7.31,7.31,0,0,1,195.74,398.78Zm.14-3.78a3.06,3.06,0,0,0,2.62-1.26,9.08,9.08,0,0,0,1.38-4,49.22,49.22,0,0,0,.45-7.5,56.88,56.88,0,0,0-.37-7.33,8.07,8.07,0,0,0-1.28-3.81,3,3,0,0,0-2.53-1.19,3.11,3.11,0,0,0-2.61,1.29,9.61,9.61,0,0,0-1.43,4.19,52.9,52.9,0,0,0-.45,7.81,50,50,0,0,0,.38,6.92,8.22,8.22,0,0,0,1.29,3.74A3.05,3.05,0,0,0,195.88,395Z"/><path d="M214.52,398.78a7.21,7.21,0,0,1-4.06-1.07c-1.07-.71-1.92-2.17-2.55-4.36a38,38,0,0,1-.92-9.6,36.37,36.37,0,0,1,1.31-11.11c.87-2.59,1.95-4.33,3.24-5.2a7.53,7.53,0,0,1,4.38-1.33,5.7,5.7,0,0,1,3.26.72,2.16,2.16,0,0,1,1,1.78,4.41,4.41,0,0,1-.6,2.23,4.63,4.63,0,0,0-3-1.14,4.46,4.46,0,0,0-2.95,1.07,8,8,0,0,0-2.06,4.11,36.28,36.28,0,0,0-.8,8.7,33.68,33.68,0,0,0,.55,6.89,6.57,6.57,0,0,0,1.54,3.36,3.48,3.48,0,0,0,2.45.91,6.91,6.91,0,0,0,2.41-.43,6.29,6.29,0,0,0,1.81-1,5.31,5.31,0,0,1,.54,2.22,2.74,2.74,0,0,1-1.59,2.32A7.62,7.62,0,0,1,214.52,398.78Z"/><path d="M237.63,366.57v2.67a.85.85,0,0,1-.17.62.87.87,0,0,1-.59.16h-5.58v27.57a.72.72,0,0,1-.17.55,2.87,2.87,0,0,1-1.1.16l-2.39,0V370h-6.19v-2.73q0-.72.78-.72Z"/><path d="M240,367.29a.75.75,0,0,1,.13-.53,2,2,0,0,1,1-.16q.85,0,2.34,0v15.52q0,4.49-.41,9.42c.43-1.54,1.05-3.37,1.88-5.49s1.37-3.47,1.61-4.07l1-2.5,4.34-12a1.45,1.45,0,0,1,.46-.67,2.12,2.12,0,0,1,1-.2q.72,0,1.86,0v31a.6.6,0,0,1-.22.53,2.23,2.23,0,0,1-1,.18l-2.18,0v-11.4q0-6.8.53-13.32Q251,378.22,248,386l-4.49,11.39a1.26,1.26,0,0,1-.44.67,2.1,2.1,0,0,1-1,.22l-2,0Z"/></g></g></svg>