<svg xmlns="http://www.w3.org/2000/svg" viewBox="0 0 273.24 404.14"><g id="Слой_2" data-name="Слой 2"><g id="Слой_1-2" data-name="Слой 1"><path d="M203.42,71.26c-.28-.86-1.31-1.48-2-2.19Q169.31,36.52,137.2,4c-5.24-5.31-7.53-5.31-12.8,0L92.82,36C81.24,47.75,69.55,59.38,58.17,71.3c-1.56,1.63-2.92,5.31-2.12,6.89,1.11,2.17,4.36,3.28,6.73,4.76a2.31,2.31,0,0,0,1.48,0c5-1,5.74,1.55,5.66,5.88-.24,13.5-.09,27-.09,40.5,0,8.62,2,10.61,10.45,10.61h49.5q15.6,0,31.21,0h18.29c8.13,0,10.38-2.24,10.41-10.36,0-12.34,0-24.67,0-37,0-9,.07-8.76,8.87-9.79,2.39-.28,5.64-2.12,6.47-4.1S204.24,73.74,203.42,71.26ZM116.62,91c.87-8.56,7.49-11.7,16.24-10.74,6.19.67,11.21,6.54,11.41,14.28.28,11.13.16,22.27-.05,33.4,0,1.27-1.69,3.55-2.65,3.58-8.59.28-17.19.17-25.3.17C116.27,117.7,115.28,104.23,116.62,91Zm64.66-16.14V86.6c0,13.5-.07,27,.07,40.48,0,3.27-.6,4.83-4.36,4.69-7.77-.28-15.55-.08-23.78-.08,0-12.5.2-24.3-.07-36.09-.21-9.4-3.88-17.33-12.6-21.72-14.36-7.21-33.32,1.64-34,21.09-.39,11.65-.1,23.32-.13,35a6.85,6.85,0,0,1-.4,1.37H78.85V75l-11.22-.88,61.11-62.33,64.1,62.5Z" fill="#8cc63f"/><path d="M63.53,255.87a8,8,0,0,1-2.66,5.4c-2.73,1.93-5.46.11-5.53-3.41-.12-5.83.28-11.69-.21-17.48a13.43,13.43,0,0,0-3.22-7.73c-12.8-13.11-25.84-26-38.88-38.83A23.88,23.88,0,0,1,5.37,175.6c.26-23.33.08-46.66.09-70,0-10.47,6.92-17.79,16.77-17.83s16.86,7.13,16.94,17.58c0,3.33,0,6.67,0,10h0c0,4,.36,8-.16,12-.24,1.8-1.9,4.36-3.45,4.84-3.27,1-4.33-2-4.48-4.5-.3-4.81-.15-9.66-.18-14.49,0-2.83.11-5.67-.09-8.49-.41-5.82-3.11-8.33-8.52-8.18A8.14,8.14,0,0,0,14.32,105c-.08,24.33-.19,48.66.16,73,0,3.07,2.06,6.75,4.3,9.05,13.21,13.64,26.7,27,40.23,40.34,3.31,3.26,5,6.79,4.73,11.49C63.46,244.54,63.88,250.23,63.53,255.87Z" fill="#009245"/><path d="M116.69,257.78c.11,3.18-1.62,4-4.36,4s-4.4-.88-4.35-4c.1-6.33,0-12.67,0-19,.13-11.48.54-23-4.36-33.84-2.74-6.1-6.28-11.59-12.29-14.58-18.39-9.15-32.86-23-46.72-37.73-1.25-1.33-2.57-2.61-3.94-3.82-3.8-3.38-7.71-3.61-10.67-.69-3.37,3.33-3.21,6.88.7,10.84q13.71,13.85,27.51,27.61c2.24,2.24,4.46,4.49,6.72,6.71s3.19,4.91.74,7.42-4.53.67-6.4-1.2c-11.91-11.87-23.92-23.65-35.68-35.68-6.4-6.54-6.3-15-.29-21.38a15.62,15.62,0,0,1,22-.8,122.22,122.22,0,0,1,10.47,10,136.43,136.43,0,0,0,38.08,30.26c13.18,7,20,19.07,21.28,33.54C116.44,229.51,116.2,243.68,116.69,257.78Z" fill="#009245"/><path d="M239.53,162.71c-12.22,12.72-24.8,25.1-37.27,37.58-1.9,1.9-3.94,2.22-6.1.11-2.75-2.69-1.2-4.8.78-6.8q15.67-15.76,31.4-31.46a36.65,36.65,0,0,0,4.13-4.33c2.4-3.37,2.59-6.91-.64-9.85-3-2.75-6.33-2.55-9.26.25-5.42,5.16-10.93,10.25-16.07,15.68a128.42,128.42,0,0,1-33.38,25c-12,6.4-17.13,17.5-18.19,30.24-1,12.23-.52,24.59-.91,36.88-.06,1.88-.8,4.55-2.15,5.4-3,1.89-5.88,0-6-3.68-.17-6.66-.05-13.32-.05-20-.32-11.94-.18-23.83,4.48-35.2,3.13-7.64,7.32-14.85,14.55-18.4,19.91-9.77,34.43-25.86,50.16-40.61a23.43,23.43,0,0,1,7.36-4.77c6.83-2.67,13.6-.27,17.82,5.82C243.88,149.93,244,158,239.53,162.71Z" fill="#009245"/><path d="M255.88,178.5c.14,5.82-2.06,10.26-6,14.2-13.18,13.19-26.41,26.34-39.41,39.71a11.56,11.56,0,0,0-2.85,6.85c-.4,6-.24,12-.11,18,.07,3.22-1.38,4.66-4.44,4.61s-4.43-1.47-4.36-4.7c.14-7.16-.35-14.35.18-21.48.19-2.63,2-5.6,3.95-7.58,13.25-13.59,26.88-26.8,40-40.51a16.25,16.25,0,0,0,4.16-10c.35-24,.21-48,.18-72,0-6-2.54-8.92-7.52-9.06s-8.6,3.62-8.72,9.35-.16,11.66,0,17.49c.12,3.51-1.39,5.66-4.72,5.66-3.61,0-3.29-3.15-3.26-5.6.09-7.32-.17-14.68.59-21.94.91-8.75,8.7-14.28,17.83-13.69,7.54.49,15,9.17,14.59,16.27-.71,12.62-.2,25.31-.2,38C255.8,154.18,255.61,166.34,255.88,178.5Z" fill="#009245"/><path d="M68.57,351.09c-.32,1.24-1.92,3.05-3,3.08-9.44.24-18.89.14-29.85.14,1.13-4.26,1.3-8.21,3.12-11.14,4.54-7.33,9.86-14.16,14.8-21.24a21.85,21.85,0,0,0,2.28-4.4c2.16-5.44-.16-8.82-6.11-8.47-3.59.21-7.13,1.18-10.65,1.81-2.11-6.66-1.28-8.77,4.61-10.25a44.46,44.46,0,0,1,10.84-1.28c14.6.08,16.53,12.5,11.28,21.71-4,7-9.21,13.39-13.88,20.05-.46.66-.89,1.34-2.06,3.12H68.7C68.7,346.88,69.07,349.1,68.57,351.09Z" fill="#009245"/><path d="M32.1,350.53c-.51,1.49-2.17,3.62-3.39,3.66-9.28.31-18.59.17-28.1.17-1.39-8.46-1.39-8.46,10.7-10.58V310c-1.89.13-3.52.69-4.77.23C4.8,309.58,2.82,308.47,2,307c-.4-.71,1.32-3.67,2.57-4.06a114.69,114.69,0,0,1,14.9-3.49c3.18-.54,3.69,1.58,3.58,4.41-.47,11.79-.74,23.6-1.05,35.4,0,1.47.13,2.94.22,4.77l10,.43C32.24,346.7,32.69,348.79,32.1,350.53Z" fill="#009245"/><path d="M142.24,395.91c-3.32,1.53-4.73,1.26-5-2a48,48,0,0,0-1.61-9.23c-.32-1.14-1.87-1.93-2.87-2.87l-1.38.66c0,3.91.09,7.83-.07,11.74,0,.9-1,1.76-1.48,2.64-.57-.85-1.58-1.66-1.65-2.55-.21-2.81.11-5.67-.14-8.47-.11-1.22-1.1-2.36-1.7-3.53-1.23,1.09-3.1,2-3.56,3.31-.93,2.79-1,5.85-1.65,8.75a8.66,8.66,0,0,1-1.62,2.51c-.51-.85-1.57-1.79-1.43-2.52.79-4.31,1.92-8.56,2.79-12.87a8.7,8.7,0,0,0-.21-3.47c-.91-4.14-1.94-8.25-2.92-12.37l2.75-.63c.69,2.91,1.08,6,2.17,8.7.69,1.74,2.42,3.06,3.69,4.57a21.87,21.87,0,0,0,1.72-4.66c.39-2.72.35-5.5.48-8.26l2.29,0v13.49c6.34-1.51,4.94-6.38,6.43-9.43.76-1.56,1.53-3.12,2.29-4.67l1.93.77c-1.17,5.11-3.35,10.24-3.23,15.32S140.82,390.88,142.24,395.91Z"/><path d="M182.52,393.19c0,1.25-1.27,2.48-2,3.71-.73-1.33-2.12-2.68-2.08-4,.16-5.77.73-11.53.49-17.44l-4.67,13.82-1.66.21-4-9.81H168v17l-1.36.54c-.72-.9-1.91-1.72-2.1-2.71-1.57-8.47-.06-27.33,2.76-29.56,2,5.92,3.82,11.61,6,18.31,1.77-5.44,3.16-10.13,4.88-14.71.48-1.26,1.94-2.15,3-3.21.48,1.29,1.35,2.58,1.37,3.88C182.66,377.2,182.69,385.2,182.52,393.19Z"/><path d="M78.22,395.6c-4.13-4-2.1-8.59-2.44-12.87-.36-4.47.08-9-.2-13.47-.08-1.28-1.18-3.29-2.21-3.59-6.84-2-9.29-.05-9.33,7a53.21,53.21,0,0,1-.19,7.48c-.62,4.22-1.51,8.4-2.43,12.57-.73,3.35-1.68,6.65-2.53,10l2.11.53,2.09-5.92H74.84c.7,2.54,1.28,4.69,1.87,6.83l1.73-.39C78.44,401,79.61,397,78.22,395.6Zm-5.52-1.85H65.35c.79-7.5,1.47-15,2.48-22.41.12-.88,2.08-1.51,3.18-2.25.56.86,1.6,1.71,1.61,2.58C72.75,378.94,72.7,386.21,72.7,393.75Z"/><path d="M159.93,365.45v30.81l-.75.86c-.75-1.13-2.11-2.24-2.15-3.4-.22-6.08-.1-12.17-.1-18.6-2.62,6.6-5.13,13-7.75,19.38a10.31,10.31,0,0,1-2,2.35c-.61-1-1.72-2-1.73-3q-.18-12.72.05-25.46c0-1.08,1.08-2.13,1.66-3.2l1.53.37V385l1.18.14L158,364.92Z"/><path d="M42,394.2c0,.91-1.24,1.8-1.91,2.7-.69-.93-1.86-1.8-2-2.79a66.36,66.36,0,0,1-.08-8c0-2.39.36-4.66-3.35-4.64s-4,2.13-3.88,4.88a69.11,69.11,0,0,1-.06,7.48c-.1,1.13-.91,2.2-1.39,3.3l-1.48-.52v-31l1.85-.32a47,47,0,0,1,1,6.41c.19,6.43.11,6.43,7.36,5.78,0-2.95-.16-6,.09-9.06.09-1,1.23-2,1.89-3,.65.93,1.86,1.86,1.88,2.81Q42.19,381.23,42,394.2Z"/><path d="M201.64,380.91a84,84,0,0,0-.07-9c-.39-3.74-2.09-6.68-6.37-7.1-4.07-.41-6.65,1.39-8,5.24a35.9,35.9,0,0,0-.46,21c1.16,4.53,3.78,6.24,8.28,5.89s5.76-3.63,6.44-7.1c.56-2.91.37-6,.51-9Zm-4.34,9.49c-.07,1.14-2.05,3-3.13,3a4.69,4.69,0,0,1-3.46-2.83c-.76-3-.77-6.17-1.09-9.42.32-3,.32-6.21,1.15-9.17.37-1.31,2.31-2.69,3.75-3,.8-.16,2.89,1.83,2.93,2.91C197.69,378.07,197.65,384.25,197.3,390.4Z"/><path d="M97.3,316.61V348c-2.52.89-4,.73-3.94-2.65.17-7.15.19-14.3,0-21.45,0-1.31-1.53-2.59-2.36-3.88-.69,1.27-1.85,2.48-2,3.81-.66,5.75-.91,11.55-1.53,17.31-.55,5.07-2.6,7.08-6.34,6.37,5.55-9.8,3.8-20.52,5.45-30.9Z"/><path d="M91.77,379.44c.48-.91,1.14-1.61,1.19-2.35.18-3,1.33-6.87-.09-8.66-1.69-2.11-5.62-2.57-8.68-3.35-.66-.16-2.52,1.37-2.53,2.14-.18,9.74-.12,19.49-.12,29.13,5.41,1.45,9.53.62,12.34-3.74C96,389.39,94.94,382.87,91.77,379.44Zm-7.26-7.66c0-.95.15-1.91.25-3.06,3.31-.31,5.73-.08,5.69,4,0,3.63-1.2,5.73-6,4.73C84.5,375.35,84.47,373.56,84.51,371.78Zm6.55,14.9c-.2,3.44-.33,7.62-6.18,7.13V381.39C89.55,380.66,91.26,383.1,91.06,386.68Z"/><path d="M113.17,365.64V398c-3.9-3.91-2.1-7.8-2.4-11.13-.33-3.57-.08-7.19-.78-10.95l-8.5,21.36-1.78-.49V365.5l1.87-.08c.19,3.29.45,6.57.53,9.85.1,3.46,0,6.91,0,10.37l1,0q4.09-10.26,8.18-20.51Z"/><path d="M239.06,316.59v31.56l-1.58.26c-.27-2.37-.66-4.73-.79-7.11-.14-2.64,0-5.3,0-8.41H230c-2.46,5.06,2.29,11.66-2.78,15.75l-1.69-.32q0-15.61,0-31.22h0c3.8-.57,3.81-.57,3.84,4,0,2.62,0,5.24,0,8.15h7c.27-4.44.52-8.62.78-12.79Z"/><path d="M252.18,365.81v31l-1.69.07v-21l-1.22-.07-8.7,21.45-1.81-.58V365.6l1.94-.08c.19,3.21.46,6.42.55,9.64a48.13,48.13,0,0,0,.95,10.75l8.36-20.82Z"/><path d="M154.41,345.19c0,1.2-1.45,2.37-2.23,3.55l-1.52-.68V332.69h-7.8v15.67l-2.62-.07c-.13-10.52-.17-21,0-31.57l2.28-.18.92,12.69h6.78v-12l1.37-1.05c1,1,2.77,2,2.8,3Q154.74,332.2,154.41,345.19Z"/><path d="M257.49,346.63c.06.55-.81,1.19-1.26,1.79-.59-.46-1.56-.83-1.7-1.41-.69-2.71-1.2-5.46-1.66-8.22s-1.08-5.3-6.21-4.77v14.37l-1.77-.1v-31.5l1-.39a15.31,15.31,0,0,1,1.26,3.56c.22,2.31,0,4.68.22,7,.11.9,1.12,1.7,1.72,2.54.83-.6,2.11-1,2.4-1.84,1.13-3.06,1.86-6.27,2.91-9.36.25-.75,1.16-1.29,1.76-1.92.44.9,1.34,1.86,1.23,2.69-.31,2.44-.54,5.09-1.69,7.17-2.21,4-.6,7.42.49,11.17A48.19,48.19,0,0,1,257.49,346.63Z"/><path d="M167.56,316.41l-2-.33c-4.17,10.12-5.81,21-9.17,32.86,5.91-1.32,4-7,6.84-8.92,4.18-.58,8.15-1,8,5.26,0,1.14,1.63,2.3,2.51,3.46l1.92-.83Zm-4.2,20c.72-3.91,1.4-7.65,2.08-11.4l.93.05c.89,3.62,1.79,7.24,2.8,11.35Z"/><path d="M269.23,345c1.24.72,2.57,1.29,3.87,1.93a18.52,18.52,0,0,1-4.18,1.62,54.47,54.47,0,0,1-6.83.08V316.3a70.67,70.67,0,0,1,7.77.09c1.18.13,2.26,1.16,3.38,1.78-1,.58-2.12,1.71-3.11,1.64-4-.28-5.14,1.52-5.13,5.33,0,3.2.84,4.7,4.18,4.48a8.48,8.48,0,0,1,2.74.82c-.36.76-.47,1.44-.79,1.56-1.91.69-5.15.81-5.56,2a16.52,16.52,0,0,0-.19,8.33C265.59,343.4,267.84,344.15,269.23,345Z"/><path d="M204.16,328.43V316.65l-1.86-.09V348c6.88,1.23,10.91-1,12.27-6.65C216.28,334.18,214.53,331.9,204.16,328.43Zm1,16.69V332.69c3.48-.45,5.47.61,5.37,4.14S211.66,344.85,205.13,345.12Z"/><path d="M105,327.18c0,.64.16,1.27.26,2.07L112,330c.06.49.12,1,.17,1.47L105,333.08c0,2.53.11,5.29,0,8s.84,3.9,3.7,3.92c1.29,0,2.58,1.12,3.58,2.29-10.26,2.49-10.5,2.27-10.45-7.48,0-7.6,0-15.2,0-23h11.92l-.36.35c-1.45,1.45-2.18,2.6-2.75,2.53C104.16,318.84,104.79,323.13,105,327.18Z"/><path d="M198.57,323.45c-.71-4.84-4.28-7.37-9.66-7.23-2.55.07-3.51,1-3.48,3.55.1,8.63,0,17.26.1,25.89,0,1,.77,1.93,1.19,2.9l1.41-.32V335.83c1.74-.29,2.54-.39,3.33-.56C196.73,334.1,199.47,329.54,198.57,323.45Zm-9.72,8.6V319.36c4.47-.33,5.65,1.89,5.59,5.72S194.35,332.18,188.85,332.05Z"/><path d="M129.61,317.9c-.31.77-1.13,1.94-1.69,1.9-4.18-.24-3.88,2.49-3.86,5.27.06,7.61,0,15.21,0,22.82l-1.89.66c-.52-1.18-1.45-2.35-1.47-3.54-.13-6.47-.1-12.95,0-19.42,0-3.29-.14-6-4.63-5.75-.92.07-1.92-1.1-2.89-1.69.07-.33.13-.66.2-1,0-.12,0-.23.07-.35l.09-.43c4.86,0,9.71-.05,14.56.07C128.67,316.46,129.72,317.64,129.61,317.9Z"/><path d="M229.48,369.35c0,7.74.12,15.48-.11,23.22,0,1.47-1.47,2.89-2.26,4.34-.65-1.43-1.81-2.85-1.85-4.3-.19-7.6-.09-15.2-.09-23.29l-5-.43-1-1.07c1-.89,2-2.41,3.14-2.57,8.5-1.2,12.07-.18,12.64,3.47Z"/><path d="M56.74,394.77c-.06.51-.11,1-.17,1.54H46.37V385c0-5.14-.16-10.3.05-15.43,0-1.37,1.08-3.74,1.88-3.84,2.7-.32,5.5.17,8.26.35-.42,1-.65,2.62-1.3,2.8-1.67.48-3.52.31-5.58.41v8.18l6.83,1.06v1.75l-6.7.92v12.29Z"/><path d="M218,393.74c-1.12,1.06-2.1,2.79-3.37,3.05-3.66.74-7.09.09-8.39-4.17-.58-1.89-1.34-3.93-1.17-5.82a126.83,126.83,0,0,1,2.44-17.53c.75-3.24,3.79-5.1,7.41-4.37,1.14.24,2,1.6,3.06,2.44l-.87,1.2c-6.9-.51-6.67,2-8,7.51-.7,3-.15,6.3-.12,9.46C209.07,392.09,210.44,393.34,218,393.74Z"/><path d="M221.6,332.3h-.1c0,4.47.13,8.95-.09,13.41,0,.92-1.37,1.77-2.1,2.66-.52-.89-1.49-1.76-1.5-2.65-.11-8.78-.13-17.56,0-26.34,0-1,1.2-1.92,1.84-2.88.64,1,1.8,1.89,1.84,2.88C221.72,323.68,221.6,328,221.6,332.3Z"/><path d="M128.74,11.75l64.1,62.49-11.55.63V86.6c0,13.49-.08,27,.06,40.48,0,3.27-.6,4.82-4.36,4.69-7.76-.28-15.55-.09-23.78-.09,0-12.49.2-24.29-.06-36.08-.21-9.4-3.88-17.33-12.61-21.72-14.35-7.21-33.31,1.64-34,21.09-.4,11.65-.11,23.32-.14,35a7,7,0,0,1-.4,1.37H78.85V75l-11.22-.88Z" fill="#fff"/><path d="M116.27,131.7c0-14-1-27.47.35-40.7.87-8.56,7.5-11.69,16.25-10.74,6.18.68,11.21,6.55,11.4,14.29.28,11.13.17,22.27,0,33.4,0,1.27-1.69,3.55-2.65,3.58C133,131.81,124.39,131.7,116.27,131.7Z" fill="#fff"/><path d="M72.7,393.75H65.36c.78-7.51,1.46-15,2.48-22.41.12-.88,2.07-1.51,3.17-2.25.57.86,1.6,1.71,1.62,2.57C72.76,378.93,72.7,386.21,72.7,393.75Z" fill="#fff"/><path d="M189.62,381.15c.33-3,.33-6.21,1.16-9.17.36-1.31,2.31-2.69,3.75-3,.79-.16,2.88,1.83,2.92,2.91.25,6.16.21,12.34-.15,18.49-.06,1.14-2.05,3-3.12,3a4.72,4.72,0,0,1-3.47-2.83C190,387.58,190,384.4,189.62,381.15Z" fill="#fff"/><path d="M84.88,381.39c4.68-.73,6.39,1.71,6.19,5.29s-.33,7.62-6.19,7.13Z" fill="#fff"/><path d="M84.51,377.47c0-2.13,0-3.91,0-5.69,0-1,.14-1.91.24-3.06,3.31-.31,5.74-.08,5.7,4C90.42,376.36,89.26,378.47,84.51,377.47Z" fill="#fff"/><path d="M166.37,325.05c.9,3.62,1.79,7.24,2.81,11.35h-5.81c.71-3.91,1.39-7.65,2.08-11.4Z" fill="#fff"/><path d="M205.13,332.68c3.48-.45,5.48.62,5.37,4.15s1.16,8-5.37,8.29Z" fill="#fff"/><path d="M188.85,319.36c4.47-.33,5.66,1.88,5.6,5.72s-.1,7.1-5.6,7Z" fill="#fff"/></g></g></svg>