<svg xmlns="http://www.w3.org/2000/svg" viewBox="0 0 305.48 406.89"><g id="Слой_2" data-name="Слой 2"><g id="Слой_1-2" data-name="Слой 1"><path d="M278.33,198.84V121.27a61.53,61.53,0,0,0-7.36,0c-4.29.55-5.34-1.29-5.25-5.34.25-10.49.21-21,0-31.49-.05-2.06-.84-4.85-2.3-6-11.88-9.39-24-18.43-36-27.67-2.95-2.28-5.49-2.27-8.53-.08-12.7,9.14-25.57,18-38.17,27.28a8.83,8.83,0,0,0-2.93,6.14c-.29,10.49-.12,21-.15,31.49,0,1.75-.19,3.5-.3,5.36a29.19,29.19,0,0,1-3,.27c-7.53-.2-15-.24-21.43,4.69-.71.55-2.2.31-3.27.1-3.89-.75-7.72-2-11.64-2.36-3.25-.31-4.19-1.52-4.17-4.65.1-26.66,0-53.32.21-80a8,8,0,0,1,2.88-5.54c10.59-7.79,21.47-15.19,32.08-22.95,2.53-1.85,4.23-1.76,6.58,0q11.23,8.7,22.71,17.12c5.79,4.24,12,8,9.93,17-.25,1.07,2,3.92,2.83,3.8a6.28,6.28,0,0,0,4.41-3.08c2.42-6-.22-14.26-5.33-18.12-11.28-8.54-22.64-17-33.81-25.64-2.69-2.09-4.63-2.26-7.42-.26-12.83,9.24-25.76,18.31-38.7,27.38-2.87,2-3.82,4.57-3.8,8.07.13,27.17,0,54.33.15,81.49,0,3.29-.27,5.24-4.44,5.21-22.16-.18-44.32-.15-66.48,0-3.47,0-4.7-1.19-4.67-4.65.12-12.66-.09-25.33.17-38a8.14,8.14,0,0,1,3-5.62C64.5,67.74,75.19,60.66,85.57,53.17c3.29-2.38,5.65-2.29,8.78.2,6.63,5.29,13.41,10.41,20.44,15.14,1.58,1.06,5.39,1.18,6.51.06,2.32-2.32,0-4.41-2.12-6-8.43-6.22-16.9-12.38-25.22-18.73-2.64-2-4.94-2.29-7.68-.37-13,9-25.9,18.11-38.94,27a8.89,8.89,0,0,0-4.25,8.31c.19,13.33.15,26.67,0,40,0,1.56-1.27,4.29-2.29,4.46-4.74.79-5.18,3.78-5.16,7.64.09,20.33,0,40.66.08,61,0,7.21.72,7.92,8.11,7.93,16.49,0,33,0,49.48,0,2.08,0,4.15.36,6.37.56C95,213.3,97,217,111.51,223.37c1.13,7.63,3.91,10.4,11.4,12.39,1.36.36,2.87,2.51,3.17,4.05,1,5,3.86,8.8,8.4,9.55,4.72.79,5.39,3.7,6.68,7.05,2.68,7,11,10.71,17.08,6.93,4.57-2.85,7.11-1.51,9.83,2a21.59,21.59,0,0,0,3.15,3.19c5.11,4.35,10.56,5.24,15.47,1.39,3-2.37,4.85-6.23,7.9-10.33,6.79-.2,13-3.13,14.1-12.52.08-.67,1.63-1.46,2.61-1.7,7.41-1.75,11.21-6.62,12.18-13.92,6.94-1.12,12-4.35,13.69-11.42,1.49-6.18-1.87-10.48-6-14.32-1.93-1.79-4.12-3.32-6.19-5l1.08-1.95Zm-6.89-71v15.74c0,14.65,0,29.3.1,43.94,0,3.15-.77,4.56-4.18,4.39-4.81-.23-9.65-.15-14.47,0-3.07.08-4.48-.79-4.45-4.23q.19-27.72,0-55.44c0-3.2,1-4.52,4.31-4.44C258.83,127.93,264.93,127.82,271.44,127.82ZM185,116c.3-9,.23-18,0-26.95-.1-3.67.87-5.91,4.16-8.09,10.23-6.79,20.18-14,30.06-21.34,2.83-2.1,4.93-1.89,7.53.1,9.61,7.37,19.34,14.59,28.93,22,1.18.91,2.48,2.59,2.5,3.94.2,11.62.11,23.24.11,35.62H238.63c-16.14,0-32.28-.15-48.42.1C186,121.44,184.88,120.09,185,116ZM70.79,191.86q-12-.12-24,0c-2.41,0-3.7-.61-3.69-3.33.06-18,0-36,.12-54,0-1,1.38-3,2.14-3,9.44-.21,18.88-.13,28.87-.13,0,19.64,0,38.28,0,56.93C74.3,190.94,73.33,191.88,70.79,191.86Zm40.43,23.21c-4.7.3-7.59-3.15-6.74-8.06.58-3.39,8-9.66,11.46-9.71,4.45-.06,6.36,1.88,6.26,6.36C122.12,207.66,115.23,214.81,111.22,215.07Zm13.52,14.33c-4.6.12-8.33-5.57-5.76-9.37a33.9,33.9,0,0,1,7.79-8.11c4-2.93,9.8.49,9.86,5.43C136.68,221.23,128.72,229.3,124.74,229.4Zm14.63,15.45c-2.76-2.22-5.4-3.36-6.15-5.26s-.12-4.78,1-6.62c1.38-2.34,3.72-4.17,5.82-6,2.93-2.59,6.13-2.52,8.83.22s3.12,5.85.17,8.75S142.94,241.56,139.37,244.85ZM154,257.4c-2.05-.13-4.94-1-5.81-2.53A8,8,0,0,1,148,248a23.28,23.28,0,0,1,7.15-7.4c4.58-3,9.62.14,9.55,5.54C164.63,250.22,157.9,257.65,154,257.4Zm29.58,5.54c-2.88,2.78-5.36,1.77-7.77-.64-.94-.95-1.84-1.94-2.86-2.79-3.06-2.54-4.95-5.13-2-9.14,1-1.33,1-3.42,1.59-5.89,3.81,3.8,7.31,7.09,10.56,10.61C185.24,257.43,186.48,260.1,183.54,262.94Zm41.7-52.73c.12.11.25.22.36.34,4.67,4.82,5.38,8.17,2.37,11.15-3.17,3.14-5.88,2.55-11-2.45-2.5-2.44-4.73-5.26-7.54-7.25-1.3-.93-3.72-.27-5.63-.33.09,1.89-.53,4.34.42,5.58,2.51,3.28,5.79,6,8.61,9,2.66,2.88,4.42,6,.9,9.56-2.63,2.64-6.22,2.25-9.66-1.05-2.76-2.66-5.42-5.41-8.18-8.06-1.86-1.78-3.88-3.64-6.42-1.17s-1.56,4.7.66,6.85c3,2.9,5.84,5.93,8.81,8.84s3.4,5.89.54,8.76-6.1,2.43-8.93-.06c-3-2.64-5.72-5.58-8.55-8.4-4.23-4.21-5.38-4.22-10.25.54-3.06-6.1-7.7-9.4-14.24-9.83-.23-7.5-4.05-11.71-11-13.69a6.71,6.71,0,0,1-3.79-4.12,13.58,13.58,0,0,0-9.93-10,6,6,0,0,1-3.5-3.55c-3.12-10.25-12.58-13.7-21.56-7.72-.89.6-2.54,1.43-3,1.07C99.17,190.1,92.79,192,86.82,192c-4.8,0-5.79-1.63-5.73-6,.24-16.49.09-33,.11-49.48,0-1.46.14-2.92.23-4.61h63.28l.86,1.28c-2.27,2.41-4.3,5.1-6.84,7.17-7,5.7-10.32,12.66-9.23,21.83.64,5.42-.17,11.06.81,16.39,1.62,8.84,6.32,12.18,14.59,11.67,6.66-.4,11.25-5.57,12-13.62.17-1.82,0-3.66,0-5.49,0-11.23,0-11.23,9.21-19.29,1.13,1,2.37,2,3.49,3.13Q197.45,182.55,225.24,210.21Zm-20.84-31c-9.14-10.51-20-19.55-29.92-29.38a11,11,0,0,1-2.65-5.32c-.69-3.16-3-4.31-4.93-2.58-5.82,5.16-11.21,10.84-16.57,16.5-.71.75-.38,2.55-.4,3.87-.05,4.67.09,9.34-.08,14-.15,4.23-3.65,8-7.07,7.57-4.28-.55-6.4-3.11-6.15-7.58a40.05,40.05,0,0,0,0-8.48c-1.87-11.4,2.86-19.52,10.71-27.62,8.36-8.61,16.89-13.69,29.21-12.55,8.92.83,18,.16,27,.16v0c11,0,22,.13,33-.06,4-.07,5.55,1.1,5.5,5.37q-.33,27,0,54c0,3.84-1.35,5.17-4.93,4.76a3.35,3.35,0,0,0-1,0C222.87,194.17,213.14,189.28,204.4,179.24Z" fill="#009245"/><path d="M222.84,357.87v39.26l-5.3.39V378.78l-1.11-.19a44.28,44.28,0,0,1-2.14,5.22,31.76,31.76,0,0,1-3,4,36.53,36.53,0,0,1-2.73-4.29c-.81-1.73-1.27-3.63-3-5.38,0,4.83-.17,9.67.05,14.5.17,3.93-1,5.73-5.54,4.36V357.73c4.26-1.41,6,.38,7,3.82a51.71,51.71,0,0,0,5.34,13c1.25-4.4,2.44-8.81,3.76-13.19C217.08,358.15,218.73,355.94,222.84,357.87Z" fill="#009245"/><path d="M92.05,392.8a20.71,20.71,0,0,1-2-9.73c-.11-8.43,0-16.88,0-25.59H74.9c-.4,6.47-.48,12.75-1.25,18.95-.69,5.51.48,11.52-4.57,16.06-2.34,2.09-.63,11.79,2.12,14.4.66-1.21,1.76-2.31,1.76-3.4,0-6.14,4-6.17,8.33-5.82a7.42,7.42,0,0,0,1.49,0c3.78-.46,6,.51,5.83,5-.07,1.36,1.43,2.79,2.21,4.19l1.64-.63C92.46,401.7,93.86,396.45,92.05,392.8Zm-14.16-1.09c1.17-10.09,2.23-19.31,3.29-28.52l1.53-.34c.46.9,1.3,1.8,1.31,2.7.11,7.61,0,15.23.07,22.84C84.12,392.68,81.1,391.2,77.89,391.71Z" fill="#009245"/><path d="M246.28,395c0,1.08-2.77,2.1-5.39,4V377l-1.06-.16c-2,5.58-4,11.13-5.83,16.75-1,3-2.65,4.51-6.25,3.24V357.51h5.43v20.88l1.29.15c1.91-5.93,3.73-11.9,5.76-17.79,1.25-3.64,1.39-3.59,6.24-3C246.47,370.1,246.58,382.55,246.28,395Z" fill="#009245"/><path d="M196.12,360.54c0-1.09-1.37-3.05-2.16-3.08a35.85,35.85,0,0,0-9.83.66c-6.93,1.71-6.87,14.09-3.44,19.07a6.37,6.37,0,0,1,.71,4.49c-1.08,5.17-2.48,10.27-3.77,15.45,5.22,1.28,7.55.39,7.66-4.67.08-3.54,1.38-7.07,2.13-10.6l2.05.33a116.19,116.19,0,0,0,.15,11.81c.12,1.16,2.07,3,3.18,2.95S196,395.1,196,394C196.27,382.87,196.26,371.7,196.12,360.54Zm-7,14-1.58.55c-.83-2.13-2.26-4.24-2.3-6.38,0-2,1.4-4,2.19-6l1.69.81Z" fill="#009245"/><path d="M113.11,364.7c-1.48-6-7.8-8.62-17-6.9v39.64l5.28-.24V382.94C111.63,379.87,115.35,373.83,113.11,364.7Zm-11.52,11.87c0-4.29-.06-8.11.07-11.93,0-.52.93-1.35,1.52-1.43a2.79,2.79,0,0,1,2.17.75C107.59,366.39,105.68,374.54,101.59,376.57Z" fill="#009245"/><path d="M164.42,372.48v-15h-5.91c0,12.69,0,24.82.06,37a3.6,3.6,0,0,0,1.55,2.71c4.38,2.11,12.59-1.51,14.28-6.13C177.92,381.47,174.53,374.88,164.42,372.48ZM167,391.76h-1.71V379.21l1.71.05Z" fill="#009245"/><path d="M135,357.79c-2.39,11.32-4.72,22.53-7.12,33.73-1.16,5.43-6,8.09-9.69,5.22-1.1-.86-1.52-2.6-2.63-4.63h7c-1.5-6-3-11.68-4.33-17.39s-2.59-11.28-3.84-16.77c6.67-2.33,6.77,2.24,7.59,5.56,1,3.87,1.46,7.86,2.17,11.79l1.36.06c.82-4.37,1.91-8.71,2.38-13.11C128.45,357.47,130.69,356.28,135,357.79Z" fill="#009245"/><path d="M153.16,394.1c-2.21,3.89-6.28,4.64-10.51,4.07-4.55-.6-6.12-2.95-5-7.57a5.66,5.66,0,0,1,1.85.19c3.34,1.52,6.79,3.1,8.76-1.63,1.73-4.14-.26-7.49-4.73-9.45a4.6,4.6,0,0,1-2.26-3.09c-.11-.74,1.22-2.12,2.19-2.51,3.28-1.32,4.87-4.77,3.44-8.62s-4-2.35-6.48-1.12c-.25.13-.64,0-2.91-.14,1.18-2.57,1.66-5.82,3.07-6.28,3.65-1.2,7.94-2.12,11.11,1.48s3.24,7.5,1.31,11.64c-1.14,2.45-1.62,4.25.51,7.06C157.22,383.08,156.08,389,153.16,394.1Z" fill="#009245"/><path d="M51.51,335.5c0,.76-1.24,1.51-1.9,2.26-.64-1-1.82-1.93-1.85-2.92-.17-6.11-.08-12.22-.08-18.15-2.35,5.9-4.79,12.16-7.38,18.36a11.57,11.57,0,0,1-2.24,2.66c-.62-1.18-1.76-2.35-1.79-3.54-.14-8.15-.15-16.31.06-24.45,0-1.26,1.4-2.47,2.16-3.71.51,1.2,1.43,2.39,1.47,3.6.16,5.27.07,10.55.07,17,5-7,4.72-15.38,9.88-20.83l1.69.55C51.6,316,51.64,325.77,51.51,335.5Z"/><path d="M221.62,312.24c-.44-3.81-2.12-6.07-6.18-6.41-4.32-.36-6.9,1.44-8.15,5.56a35.28,35.28,0,0,0-.22,20.53c1,3.6,2.63,6,6.62,6.17s6.4-1.9,7.43-5.36,1.44-7.08,2.13-10.64C222.68,318.73,222,315.5,221.62,312.24Zm-4.09,19.05c-.32,1.12-2.21,2.35-3.48,2.47-1,.09-3-1.5-3-2.38-.13-6.5,0-13,.37-19.51.05-1,2-2.57,3-2.56a4.27,4.27,0,0,1,3.19,2.5,86.18,86.18,0,0,1,1.49,9.88A76.62,76.62,0,0,1,217.53,331.29Z"/><path d="M147.33,63V81.19H167V63ZM153,76.92V67.39h8.08C162.57,77.53,162.29,77.89,153,76.92Z" fill="#8cc63f"/><path d="M117.55,91.66A3.8,3.8,0,0,0,115,89c-5.27-.26-10.56-.12-16.12-.12v18.71h18.76C117.67,102,117.8,96.8,117.55,91.66Zm-9.75,12c-4.17.18-3.84-2.36-4-5.13-.12-3.26.79-4.7,4.46-4.74,4.42-.05,4.38,2.42,4.07,5.43C113.14,103.07,111,103.5,107.8,103.63Z" fill="#8cc63f"/><path d="M244.05,316.88c2,6.27.1,11.16-.46,16.67-.14,1.38-.41,2.74-.74,4.95,7.2-2.28,2.29-11.69,9.72-13.94,0,3.21-.11,5.65,0,8.07s-1,5.79,3.87,5V306.47C246.32,304.64,241.27,308.18,244.05,316.88Zm8.35,1.9c-.07.61-2.26,1-3.47,1.48-.56-2.34-1.72-4.75-1.48-7,.19-1.73,2.14-3.27,3.31-4.89l1.8.73A89.17,89.17,0,0,1,252.4,318.78Z"/><path d="M238.31,321.48c0-5.22,1.06-9.23-.24-12.21-2-4.54-6.87-3.65-11.56-3.17v31.62c5,1,9.19.21,11.8-3.9C241.35,329,241.29,324.15,238.31,321.48Zm-3.4-7.24c0,2.51-1.18,6-3.37,4.39s-2-5.86-3-9.15C234.27,308.26,235,310.82,234.91,314.24Zm-3.25,20c-1,.05-2.16-3.71-3.66-6.48l4.15-5.75c1.35,1.75,3.57,3.36,3.87,5.27C236.5,330.36,235.6,334,231.66,334.21Z"/><path d="M32.44,334.08c0,1.46-1.42,2.88-2.19,4.33l-1.87-.68V316.46c0-1.33.29-2.76-.1-4s-1.48-2-2.26-3c-.66,1-1.79,1.86-1.92,2.88-.68,5.41-1,10.88-1.67,16.29a20.42,20.42,0,0,1-2,7.09c-.6,1.08-2.72,1.33-3.64,1.74,1.07-4.8,2.18-8.64,2.73-12.56.77-5.41,1.19-10.88,1.6-16.33.26-3.51,2.84-2.63,4.8-2.71,6.67-.27,6.67-.22,6.67,6.27C32.55,319.44,32.67,326.77,32.44,334.08Z"/><path d="M108.93,318.4c0-3.4.16-6.56-.09-9.68-.07-1-1.23-1.85-1.88-2.77-.71.91-2,1.82-2,2.75-.15,9.58-.09,19.16-.09,28.62,8.39,1.76,12.12-.61,13.82-8.36C119.93,323.15,117.2,320,108.93,318.4Zm.45,16.19V322.31c3.88-.74,5.08,1.44,5.27,4.4C114.89,330.31,114.54,333.74,109.38,334.59Z"/><path d="M81.55,338.65V322.28h-8c0,4.29.14,8.39-.1,12.48-.07,1.1-1.33,2.14-2,3.2-.68-1.07-1.94-2.13-2-3.21q-.26-12.74,0-25.47c0-1.11,1.24-2.21,1.91-3.32.74,1.2,2,2.34,2.12,3.6a86.41,86.41,0,0,1,.1,9.16h7.16c.19-4.29.37-8.42.58-13.09C84.83,308.54,85.06,334.63,81.55,338.65Z"/><path d="M202.11,306.18v31.38l-1,.51c-.59-.86-1.61-1.68-1.69-2.58-.24-2.65-.1-5.32-.13-8-.07-5.95-.09-6-7.15-5,0,4.17.15,8.15-.09,12.11-.07,1.12-1.27,2.18-1.95,3.28-.67-1.07-1.91-2.13-1.93-3.21q-.24-12.72,0-25.46c0-1.1,1.22-2.17,1.88-3.26.7,1,1.92,2,2,3.09.27,3.11.09,6.26.09,9.67h6.45C200.73,314.55,197.3,309.45,202.11,306.18Z"/><path d="M305.32,308.8c0-1-2.1-2.93-2.93-2.78-2.78.48-6.1,1-8,2.82-3,2.89-2.91,7.31-.73,10.62,2,3.1,1.94,5.1.25,8.33-1.49,2.82-1.25,6.54-1.77,9.87l1.7.74c.81-1.47,1.75-2.88,2.41-4.41,1.34-3.14-.07-8,6-9.3v12.87l1.63.56c.52-.79,1.48-1.58,1.49-2.38C305.49,326.76,305.55,317.78,305.32,308.8Zm-3.06,11.37-1.7,1.18c-1.37-1.41-3.79-2.76-3.89-4.25a12.77,12.77,0,0,1,2-7.64c1.08-1.54,3.5-1,3.56,1.8S302.26,317.2,302.26,320.17Z"/><path d="M183.93,42.25V58h15.39V42.25ZM194,52c-.38.6-3.11.69-3.56.1-1-1.3-1.18-3.18-1.86-5.32h6.78C194.9,48.68,194.85,50.57,194,52Z" fill="#8cc63f"/><path d="M14.1,337.31l-2.42.9c-.78-1.36-1.88-2.63-2.25-4.09-.7-2.7-.7-5.59-1.53-8.23-.38-1.22-2-2-3.11-3l-1.35.85v13.71L2.18,338c-.73-.86-2.08-1.72-2.09-2.59-.14-9-.11-18,0-27,0-.91,1.08-1.8,1.67-2.7l1.64.43c0,3.21-.14,6.44.07,9.64.07,1.07,1,2.07,1.61,3.11.89-.81,2.22-1.46,2.6-2.46.81-2.14,1-4.52,1.71-6.68a23.58,23.58,0,0,1,2.41-4.2l2.23.94c-1,3.65-2.3,7.27-3,11a17.14,17.14,0,0,0,.25,6.21C12.1,328.27,13.15,332.78,14.1,337.31Z"/><path d="M176.12,305.9c-3.53,10.56-7.39,20.76-8.69,31.55l2.17.68c1-2.75,2.07-5.49,3.21-8.52h6.7l4.09,8.44,2.07-.85C183,326.67,181.17,315.92,176.12,305.9Zm-3,20,2.64-10.18,1.37.23c.73,3.13,1.47,6.26,2.33,9.95Z"/><path d="M173.28,40.43H158.77c0-4.38-.08-8.61.08-12.83a2.7,2.7,0,0,1,1.74-1.94,107.7,107.7,0,0,1,10.93,0c.62,0,1.65,1.26,1.68,2C173.36,31.9,173.28,36.13,173.28,40.43Z" fill="#8cc63f"/><path d="M82.21,72V85.66H68.85c-.22-.45-.35-.6-.35-.75C68,69.5,65.54,70.9,82.21,72Z" fill="#8cc63f"/><path d="M160.09,309.85v20.73c0,1.49.3,3.07-.12,4.44-.34,1.11-1.54,2-2.36,2.92-.62-1-1.73-1.94-1.76-2.93-.16-6.79-.11-13.59-.1-20.38,0-2.66.53-5.57-3.76-5.3-.54,0-1.16-1.21-1.75-1.86.68-.54,1.35-1.52,2.06-1.56,3.47-.16,7-.19,10.43,0,1.08.06,2.12.92,3.18,1.41-1.07.69-2.09,1.46-3.21,2.05A11,11,0,0,1,160.09,309.85Z"/><path d="M66.27,336.52c-.88.53-1.71,1.42-2.64,1.54-7.34.95-8.26.05-8.19-7.27.07-7-.09-14,.12-20.93,0-1.32,1.22-3.59,2.1-3.71,2.71-.35,5.52.12,8.29.28-.45,1-.68,2.52-1.41,2.82-1.31.54-2.92.33-5.08.47v8.9l6.27,1.08v1.59l-6.57,1.14c0,3-.37,6.35.2,9.49.2,1.11,2.71,1.78,4.14,2.69C64.45,335.21,65.35,335.88,66.27,336.52Z"/><path d="M103.13,307.49c-1,.65-2.07,1.88-3.07,1.84-4-.15-4.14,2.35-4.11,5.22,0,6.32.11,12.65,0,19a21,21,0,0,1-1,4.53l-1.64-.19c-.16-1.53-.44-3.05-.45-4.58q-.08-9.48,0-19c0-2.61.24-5.15-3.64-5-.65,0-1.35-1.07-2-1.65.63-.59,1.24-1.68,1.89-1.71,4.54-.15,9.1-.08,13.65-.08C102.84,306.41,103,307,103.13,307.49Z"/><path d="M147.85,333.86l.93,1.55c-1.9.89-4,2.78-5.65,2.44-2.23-.46-5.21-2.21-5.93-4.13a31.72,31.72,0,0,1,.46-23.29c1.51-3.81,4.58-5.16,8.42-4.5,1,.16,1.78,1.44,3.35,2.81-7.49.29-9.69,2.58-9.81,9,0,2.33,0,4.65,0,7C139.61,333.33,139.78,333.52,147.85,333.86Z"/><path d="M289.66,335.51c-1.64.85-3.33,2.48-4.89,2.37a8.83,8.83,0,0,1-5.83-2.73c-3.1-4-2.48-22.88.95-26.4,1.6-1.65,4.49-2.22,6.91-2.8.77-.19,1.91,1.14,2.82,2.41-5.72-.34-8,2.61-8.45,7.35a76.46,76.46,0,0,0-.63,11.79c.3,4.89,3.06,7.49,8.65,6.08C289.35,334.22,289.5,334.86,289.66,335.51Z"/><path d="M274.34,307.55c-.44.73-1.28,1.79-1.92,1.75-4.1-.26-4,2.36-3.95,5.21.07,7.73,0,15.46,0,23.19l-2.13.28a20.72,20.72,0,0,1-.88-4.1c-.09-6.15-.06-12.3,0-18.45,0-3.28.3-6.56-4.64-6.19-.6,0-1.31-1.16-2-1.78.06-.51.13-1,.19-1.54,4.64,0,9.28-.05,13.92.07C273.49,306,274.46,307.35,274.34,307.55Z"/><path d="M122.72,338.9V306.13C125.81,309.58,125.69,334.89,122.72,338.9Z"/><path d="M171.76,242.09c-3.06-6.1-7.7-9.4-14.24-9.83-.23-7.5-4.05-11.71-11-13.7a6.69,6.69,0,0,1-3.79-4.11,13.58,13.58,0,0,0-9.93-10,6.07,6.07,0,0,1-3.5-3.55c-3.12-10.25-12.58-13.71-21.56-7.72-.89.6-2.53,1.43-3,1.07C99.17,190.1,92.79,192,86.82,192c-4.8,0-5.79-1.64-5.73-6,.24-16.48.09-33,.11-49.47,0-1.46.14-2.93.23-4.61h63.28l.86,1.28c-2.27,2.4-4.3,5.09-6.84,7.17-7,5.7-10.32,12.66-9.23,21.83.64,5.42-.17,11.06.81,16.39,1.62,8.84,6.32,12.18,14.59,11.67,6.66-.41,11.25-5.57,12-13.62.17-1.82,0-3.66,0-5.49,0-11.23,0-11.23,9.21-19.29,1.13,1,2.37,2,3.49,3.13q27.81,27.63,55.6,55.28c.12.12.25.23.36.35,4.67,4.81,5.38,8.17,2.37,11.15-3.17,3.14-5.88,2.55-11-2.45-2.5-2.44-4.72-5.26-7.54-7.26-1.3-.92-3.72-.27-5.63-.33.09,1.9-.53,4.35.42,5.59,2.51,3.28,5.79,6,8.61,9,2.66,2.89,4.42,6,.9,9.57-2.63,2.64-6.22,2.25-9.66-1.06-2.76-2.65-5.42-5.4-8.18-8.05-1.86-1.78-3.88-3.64-6.42-1.18s-1.56,4.7.66,6.86c3,2.89,5.84,5.92,8.81,8.84s3.4,5.88.54,8.76-6.1,2.42-8.93-.06c-3-2.64-5.72-5.58-8.55-8.4C177.78,237.34,176.63,237.33,171.76,242.09Z" fill="#fff"/><path d="M203.49,127.8c11,0,22,.13,33-.06,4-.07,5.55,1.09,5.5,5.37q-.33,27,0,54c0,3.84-1.35,5.17-4.93,4.76a3.35,3.35,0,0,0-1,0c-13.16,2.32-22.89-2.57-31.63-12.62-9.14-10.51-20-19.54-29.92-29.37a11,11,0,0,1-2.65-5.32c-.69-3.16-3-4.31-4.93-2.58-5.82,5.16-11.21,10.84-16.57,16.49-.71.75-.38,2.56-.4,3.88-.05,4.67.09,9.33-.08,14-.15,4.24-3.65,8-7.07,7.57-4.28-.54-6.4-3.1-6.15-7.57a40.05,40.05,0,0,0,0-8.48c-1.87-11.4,2.86-19.52,10.71-27.62,8.36-8.61,16.89-13.69,29.21-12.55,8.92.82,18,.16,27,.16Z" fill="#fff"/><path d="M258.2,85.65c0-1.35-1.32-3-2.5-3.94-9.59-7.4-19.32-14.62-28.93-22-2.6-2-4.7-2.2-7.53-.1-9.88,7.31-19.83,14.55-30.06,21.34-3.29,2.18-4.26,4.42-4.16,8.09.23,9,.3,18,0,27-.14,4.09.93,5.44,5.19,5.37,16.14-.25,32.28-.1,48.42-.1h19.68C258.31,108.89,258.4,97.27,258.2,85.65ZM217.37,116.3H198.54c-.1-1-.25-1.82-.25-2.62,0-5.47,0-10.94,0-17.22,5.79,0,11.36-.1,16.91.12.76,0,2.06,1.67,2.09,2.59C217.47,104.78,217.37,110.39,217.37,116.3Zm6.69-27.87H208.94V74.58h15.12Zm31.27,12H239.46c-.07-1.39-.17-2.51-.18-3.64-.16-12.5.29-13,12.93-11.37,1.14.14,2.88,1.73,3,2.77C255.54,92.08,255.33,96.06,255.33,100.39Z" fill="#fff"/><path d="M74.25,131.39c-10,0-19.43-.08-28.87.13-.76,0-2.13,2-2.14,3-.13,18-.06,36-.12,54,0,2.72,1.28,3.35,3.69,3.33q12-.1,24,0c2.54,0,3.51-.92,3.5-3.54C74.21,169.67,74.25,151,74.25,131.39ZM57.64,186.8c-1.14,0-3.07-2.56-3.12-4,0-1.13,2.26-3.21,3.59-3.27s2.9,1.76,5.51,3.56C60.85,184.92,59.23,186.81,57.64,186.8Z" fill="#fff"/><path d="M271.44,143.56V127.82c-6.51,0-12.61.11-18.7,0-3.28-.08-4.33,1.24-4.31,4.44q.16,27.72,0,55.44c0,3.44,1.38,4.31,4.45,4.23,4.82-.14,9.66-.22,14.47,0,3.41.17,4.21-1.24,4.18-4.39C271.4,172.86,271.46,158.21,271.44,143.56Zm-10.63,43.29c-1.45-.19-2.63-2.33-3.93-3.63,1.42-1.31,2.67-3.13,4.34-3.71.8-.28,2.41,1.78,4.6,3.53C263.53,184.89,262,187,260.81,186.85Z" fill="#fff"/><path d="M136.63,217.35c.05,3.88-7.91,12-11.89,12.05-4.6.12-8.33-5.57-5.76-9.37a33.54,33.54,0,0,1,7.79-8.11C130.74,209,136.57,212.41,136.63,217.35Z" fill="#fff"/><path d="M139.37,244.85c-2.76-2.23-5.4-3.37-6.15-5.26s-.12-4.78,1-6.62c1.38-2.35,3.73-4.17,5.82-6,2.93-2.59,6.13-2.52,8.83.21s3.12,5.86.17,8.76S142.94,241.56,139.37,244.85Z" fill="#fff"/><path d="M122.2,203.66c-.08,4-7,11.15-11,11.41-4.7.3-7.59-3.15-6.74-8.07.58-3.38,8-9.65,11.46-9.7C120.39,197.24,122.3,199.18,122.2,203.66Z" fill="#fff"/><path d="M164.69,246.14c-.06,4.08-6.79,11.51-10.73,11.26-2.05-.13-4.94-1-5.81-2.54A8,8,0,0,1,148,248a23.41,23.41,0,0,1,7.15-7.41C159.72,237.59,164.76,240.74,164.69,246.14Z" fill="#fff"/><path d="M172.51,244.48c3.81,3.8,7.31,7.09,10.56,10.6,2.17,2.35,3.41,5,.47,7.86s-5.36,1.77-7.77-.65c-.94-.94-1.84-1.93-2.86-2.78-3.06-2.54-4.95-5.13-2-9.14C171.91,249,171.89,247,172.51,244.48Z" fill="#fff"/><path d="M77.9,391.7l3.28-28.51,1.53-.34c.46.9,1.3,1.79,1.31,2.7.11,7.61,0,15.22.07,22.84C84.12,392.68,81.1,391.2,77.9,391.7Z" fill="#fff"/><path d="M189.08,363.5v11l-1.58.54c-.83-2.12-2.26-4.23-2.3-6.37,0-2,1.4-4,2.19-6Z" fill="#fff"/><path d="M101.59,376.57c0-4.29-.06-8.12.07-11.93,0-.53.93-1.35,1.52-1.44a2.84,2.84,0,0,1,2.17.76C107.59,366.39,105.68,374.54,101.59,376.57Z" fill="#fff"/><path d="M167,379.25v12.51h-1.71V379.21Z" fill="#fff"/><path d="M219.14,321.68a76.47,76.47,0,0,1-1.61,9.61c-.32,1.12-2.21,2.35-3.48,2.47-1,.09-3-1.51-3-2.38-.13-6.5,0-13,.37-19.51.05-1,2-2.57,3-2.56a4.27,4.27,0,0,1,3.19,2.5A86.34,86.34,0,0,1,219.14,321.68Z" fill="#fff"/><path d="M153,76.92V67.39h8.08C162.57,77.53,162.29,77.88,153,76.92Z" fill="#fff"/><path d="M112.38,99.19c.76,3.87-1.42,4.3-4.58,4.44-4.17.18-3.84-2.36-4-5.13-.12-3.26.79-4.7,4.46-4.74C112.73,93.71,112.69,96.18,112.38,99.19Z" fill="#fff"/><path d="M252.56,309.1a89,89,0,0,1-.16,9.67c-.07.62-2.26,1-3.47,1.49-.56-2.34-1.72-4.75-1.48-7,.19-1.73,2.14-3.27,3.31-4.9Z" fill="#fff"/><path d="M228,327.73l4.15-5.75c1.35,1.74,3.57,3.36,3.87,5.27.48,3.11-.42,6.75-4.36,7C230.68,334.26,229.5,330.5,228,327.73Z" fill="#fff"/><path d="M228.58,309.48c5.69-1.22,6.39,1.33,6.33,4.76,0,2.51-1.18,6-3.37,4.38S229.52,312.77,228.58,309.48Z" fill="#fff"/><path d="M109.38,322.31c3.88-.75,5.08,1.44,5.27,4.4.24,3.6-.11,7-5.27,7.88Z" fill="#fff"/><path d="M300.56,321.35c-1.37-1.42-3.79-2.76-3.89-4.25a12.76,12.76,0,0,1,2-7.64c1.08-1.54,3.5-1,3.56,1.79.07,3,0,5.94,0,8.91Z" fill="#fff"/><path d="M188.56,46.73h6.79c-.45,1.94-.5,3.84-1.37,5.22-.38.61-3.11.7-3.56.11C189.44,50.76,189.24,48.88,188.56,46.73Z" fill="#fff"/><path d="M177.1,316c.73,3.14,1.47,6.27,2.33,10h-6.34c.94-3.61,1.79-6.89,2.64-10.17Z" fill="#fff"/><path d="M217.27,99.17c0-.92-1.33-2.56-2.09-2.59-5.55-.22-11.12-.12-16.91-.12,0,6.28,0,11.75,0,17.22,0,.8.15,1.59.25,2.62h18.83C217.37,110.39,217.47,104.78,217.27,99.17ZM211.59,110c-1.86,1.25-5.92,1.84-7.22.67-1.7-1.52-1.62-5-2.3-7.69l1.56-1.55c2.82.67,6,.75,8.26,2.28C212.89,104.38,212.71,109.22,211.59,110Z" fill="#8cc63f"/><path d="M208.94,74.58h15.12V88.43H208.94Z" fill="#8cc63f"/><path d="M255.18,88.15c-.09-1-1.83-2.63-3-2.77-12.64-1.59-13.09-1.13-12.93,11.37,0,1.13.11,2.25.18,3.64h15.87C255.33,96.06,255.54,92.08,255.18,88.15Zm-9.67,7c-.65-.6-.66-3.07,0-3.65,1-.89,2.81-.89,4.81-1.41.14,2.26.23,3.83.4,6.59C248.29,96.09,246.49,96.09,245.51,95.19Z" fill="#8cc63f"/><path d="M63.62,183.07c-2.77,1.85-4.39,3.74-6,3.73-1.14,0-3.07-2.56-3.12-4,0-1.13,2.26-3.21,3.59-3.27S61,181.27,63.62,183.07Z" fill="#8cc63f"/><path d="M265.82,183c-2.29,1.85-3.8,4-5,3.81-1.45-.19-2.63-2.34-3.93-3.64,1.42-1.31,2.67-3.12,4.34-3.71C262,179.23,263.64,181.29,265.82,183Z" fill="#8cc63f"/><path d="M203.63,101.4c2.82.68,6,.75,8.26,2.29,1,.69.82,5.52-.3,6.29-1.86,1.25-5.92,1.83-7.22.66-1.7-1.52-1.62-5-2.3-7.68Z" fill="#fff"/><path d="M250.71,96.72c-2.42-.64-4.22-.64-5.2-1.53-.65-.61-.66-3.07,0-3.65,1-.9,2.81-.89,4.81-1.41C250.45,92.39,250.54,94,250.71,96.72Z" fill="#fff"/></g></g></svg>