<svg xmlns="http://www.w3.org/2000/svg" viewBox="0 0 307.93 408.46"><g id="Слой_2" data-name="Слой 2"><g id="Слой_1-2" data-name="Слой 1"><path d="M272.42,198.84V121.27a61.53,61.53,0,0,0-7.36,0c-4.29.55-5.34-1.29-5.25-5.34.25-10.49.21-21,0-31.49-.05-2.06-.84-4.85-2.3-6-11.88-9.39-24-18.43-36-27.67-2.95-2.28-5.49-2.27-8.53-.08-12.7,9.14-25.57,18-38.17,27.28a8.83,8.83,0,0,0-2.93,6.14c-.29,10.49-.12,21-.15,31.49,0,1.75-.19,3.5-.3,5.36a29.19,29.19,0,0,1-3,.27c-7.53-.2-15-.24-21.43,4.69-.71.55-2.2.31-3.27.1-3.89-.75-7.72-2-11.64-2.36-3.25-.31-4.19-1.52-4.17-4.65.1-26.66,0-53.32.21-80A8,8,0,0,1,131,33.51c10.59-7.79,21.47-15.19,32.08-22.95,2.53-1.85,4.23-1.76,6.58,0q11.24,8.7,22.71,17.12c5.79,4.24,12,8,9.93,17-.25,1.07,2,3.92,2.83,3.8a6.28,6.28,0,0,0,4.41-3.08c2.42-6-.22-14.26-5.33-18.12-11.28-8.54-22.64-17-33.81-25.64-2.69-2.09-4.63-2.26-7.42-.26-12.83,9.24-25.76,18.31-38.7,27.38-2.87,2-3.82,4.57-3.8,8.07.13,27.17.05,54.33.15,81.49,0,3.29-.27,5.24-4.44,5.21-22.16-.18-44.32-.15-66.48,0-3.47,0-4.7-1.19-4.67-4.65.12-12.66-.09-25.33.17-38a8.14,8.14,0,0,1,3-5.62c10.37-7.51,21.06-14.59,31.44-22.08,3.29-2.38,5.65-2.29,8.78.2,6.63,5.29,13.41,10.41,20.44,15.14,1.58,1.06,5.39,1.18,6.51.06,2.32-2.32,0-4.41-2.12-6-8.43-6.22-16.9-12.38-25.22-18.73-2.64-2-4.94-2.29-7.68-.37-13,9-25.9,18.11-38.94,27a8.89,8.89,0,0,0-4.25,8.31c.19,13.33.15,26.67,0,40,0,1.56-1.27,4.29-2.29,4.46-4.74.79-5.18,3.78-5.16,7.64.09,20.33.05,40.66.08,61,0,7.21.72,7.92,8.11,7.93,16.49,0,33,0,49.48,0,2.08,0,4.15.36,6.37.56-4.69,12.89-2.68,16.6,11.86,23,1.13,7.63,3.91,10.4,11.4,12.39,1.36.36,2.87,2.51,3.17,4.05,1,5,3.86,8.8,8.4,9.55,4.72.79,5.39,3.7,6.68,7.05,2.68,7,11,10.71,17.08,6.93,4.57-2.85,7.11-1.51,9.83,2a21.59,21.59,0,0,0,3.15,3.19c5.11,4.35,10.56,5.24,15.47,1.39,3-2.37,4.85-6.23,7.9-10.33,6.79-.2,13-3.13,14.1-12.52.08-.67,1.63-1.46,2.61-1.7,7.41-1.75,11.21-6.62,12.18-13.92,6.94-1.12,12-4.35,13.69-11.42,1.49-6.18-1.87-10.48-6-14.32-1.93-1.79-4.12-3.32-6.19-5l1.08-1.95Zm-6.89-71v15.74c0,14.65,0,29.3.1,43.94,0,3.15-.77,4.56-4.18,4.39-4.81-.23-9.65-.15-14.47,0-3.07.08-4.48-.79-4.45-4.23q.19-27.72,0-55.44c0-3.2,1-4.52,4.31-4.44C252.92,127.93,259,127.82,265.53,127.82ZM179.11,116c.3-9,.23-18,0-26.95-.1-3.67.87-5.91,4.16-8.09,10.23-6.79,20.18-14,30.06-21.34,2.83-2.1,4.93-1.89,7.53.1,9.61,7.37,19.34,14.59,28.93,22,1.18.91,2.48,2.59,2.5,3.94.2,11.62.11,23.24.11,35.62H232.72c-16.14,0-32.28-.15-48.42.1C180,121.44,179,120.09,179.11,116ZM64.88,191.86q-12-.12-24,0c-2.41,0-3.7-.61-3.69-3.33.06-18,0-36,.12-54,0-1,1.38-3,2.14-3,9.44-.21,18.88-.13,28.87-.13,0,19.64,0,38.28,0,56.93C68.39,190.94,67.42,191.88,64.88,191.86Zm40.43,23.21c-4.7.3-7.59-3.15-6.74-8.06.58-3.39,8-9.66,11.46-9.71,4.45-.06,6.36,1.88,6.26,6.36C116.21,207.66,109.32,214.81,105.31,215.07Zm13.52,14.33c-4.6.12-8.33-5.57-5.76-9.37a33.9,33.9,0,0,1,7.79-8.11c4-2.93,9.8.49,9.86,5.43C130.77,221.23,122.81,229.3,118.83,229.4Zm14.63,15.45c-2.76-2.22-5.4-3.36-6.15-5.26s-.12-4.78,1-6.62c1.38-2.34,3.72-4.17,5.82-6,2.93-2.59,6.13-2.52,8.83.22s3.12,5.85.17,8.75S137,241.56,133.46,244.85Zm14.59,12.55c-2.05-.13-4.94-1-5.81-2.53a8,8,0,0,1-.16-6.87,23.28,23.28,0,0,1,7.15-7.4c4.58-3,9.62.14,9.55,5.54C158.72,250.22,152,257.65,148.05,257.4Zm29.58,5.54c-2.88,2.78-5.36,1.77-7.77-.64-.94-.95-1.84-1.94-2.86-2.79-3.06-2.54-4.95-5.13-2-9.14,1-1.33,1-3.42,1.59-5.89,3.81,3.8,7.31,7.09,10.56,10.61C179.33,257.43,180.57,260.1,177.63,262.94Zm41.7-52.73c.12.11.25.22.36.34,4.67,4.82,5.38,8.17,2.37,11.15-3.17,3.14-5.88,2.55-11-2.45-2.5-2.44-4.73-5.26-7.54-7.25-1.3-.93-3.72-.27-5.63-.33.09,1.89-.53,4.34.42,5.58,2.51,3.28,5.79,6,8.61,9,2.66,2.88,4.42,6,.9,9.56-2.63,2.64-6.22,2.25-9.66-1.05-2.76-2.66-5.42-5.41-8.18-8.06-1.86-1.78-3.88-3.64-6.42-1.17s-1.56,4.7.66,6.85c3,2.9,5.84,5.93,8.81,8.84s3.4,5.89.54,8.76-6.1,2.43-8.93-.06c-3-2.64-5.72-5.58-8.55-8.4-4.23-4.21-5.38-4.22-10.25.54-3.06-6.1-7.7-9.4-14.24-9.83-.23-7.5-4.05-11.71-11-13.69a6.71,6.71,0,0,1-3.79-4.12,13.58,13.58,0,0,0-9.93-10,6,6,0,0,1-3.5-3.55c-3.12-10.25-12.58-13.7-21.56-7.72-.89.6-2.54,1.43-3,1.07-5.57-4.15-12-2.28-17.92-2.27-4.8,0-5.79-1.63-5.73-6,.24-16.49.09-33,.11-49.48,0-1.46.14-2.92.23-4.61H138.8l.86,1.28c-2.27,2.41-4.3,5.1-6.84,7.17-7,5.7-10.32,12.66-9.23,21.83.64,5.42-.17,11.06.81,16.39,1.62,8.84,6.32,12.18,14.59,11.67,6.66-.4,11.25-5.57,12-13.62.17-1.82,0-3.66,0-5.49,0-11.23,0-11.23,9.21-19.29,1.13,1,2.37,2,3.49,3.13Q191.54,182.55,219.33,210.21Zm-20.84-31c-9.14-10.51-20-19.55-29.92-29.38a11,11,0,0,1-2.65-5.32c-.69-3.16-3-4.31-4.93-2.58-5.82,5.16-11.21,10.84-16.57,16.5-.71.75-.38,2.55-.4,3.87-.05,4.67.09,9.34-.08,14-.15,4.23-3.65,8-7.07,7.57-4.28-.55-6.4-3.11-6.15-7.58a40.05,40.05,0,0,0,0-8.48c-1.87-11.4,2.86-19.52,10.71-27.62,8.36-8.61,16.89-13.69,29.21-12.55,8.92.83,18,.16,27,.16v0c11,0,22,.13,33-.06,4-.07,5.55,1.1,5.5,5.37q-.33,27,0,54c0,3.84-1.35,5.17-4.93,4.76a3.35,3.35,0,0,0-1,0C217,194.17,207.23,189.28,198.49,179.24Z" fill="#009245"/><path d="M141.42,63V81.19H161.1V63Zm5.71,13.94V67.39h8.08C156.66,77.53,156.38,77.89,147.13,76.92Z" fill="#8cc63f"/><path d="M111.64,91.66A3.8,3.8,0,0,0,109.12,89c-5.27-.26-10.56-.12-16.12-.12v18.71h18.76C111.76,102,111.89,96.8,111.64,91.66Zm-9.75,12c-4.17.18-3.84-2.36-4-5.13-.12-3.26.79-4.7,4.46-4.74,4.42-.05,4.38,2.42,4.07,5.43C107.23,103.07,105.05,103.5,101.89,103.63Z" fill="#8cc63f"/><path d="M178,42.25V58h15.39V42.25Zm10,9.71c-.38.6-3.11.69-3.56.1-1-1.3-1.18-3.18-1.86-5.32h6.78C189,48.68,188.94,50.57,188.07,52Z" fill="#8cc63f"/><path d="M167.37,40.43H152.86c0-4.38-.08-8.61.08-12.83a2.7,2.7,0,0,1,1.74-1.94,107.7,107.7,0,0,1,10.93,0c.62,0,1.65,1.26,1.68,2C167.45,31.9,167.37,36.13,167.37,40.43Z" fill="#8cc63f"/><path d="M76.3,72V85.66H62.94c-.22-.45-.35-.6-.35-.75C62.11,69.5,59.63,70.9,76.3,72Z" fill="#8cc63f"/><path d="M165.85,242.09c-3.06-6.1-7.7-9.4-14.24-9.83-.23-7.5-4.05-11.71-11-13.7a6.69,6.69,0,0,1-3.79-4.11,13.58,13.58,0,0,0-9.93-10,6.07,6.07,0,0,1-3.5-3.55c-3.12-10.25-12.58-13.71-21.56-7.72-.89.6-2.53,1.43-3,1.07-5.57-4.15-12-2.29-17.92-2.27-4.8,0-5.79-1.64-5.73-6,.24-16.48.09-33,.11-49.47,0-1.46.14-2.93.23-4.61H138.8l.86,1.28c-2.27,2.4-4.3,5.09-6.84,7.17-7,5.7-10.32,12.66-9.23,21.83.64,5.42-.17,11.06.81,16.39,1.62,8.84,6.32,12.18,14.59,11.67,6.66-.41,11.25-5.57,12-13.62.17-1.82,0-3.66,0-5.49,0-11.23,0-11.23,9.21-19.29,1.13,1,2.37,2,3.49,3.13q27.81,27.63,55.6,55.28c.12.12.25.23.36.35,4.67,4.81,5.38,8.17,2.37,11.15-3.17,3.14-5.88,2.55-11-2.45-2.5-2.44-4.72-5.26-7.54-7.26-1.3-.92-3.72-.27-5.63-.33.09,1.9-.53,4.35.42,5.59,2.51,3.28,5.79,6,8.61,9,2.66,2.89,4.42,6,.9,9.57-2.63,2.64-6.22,2.25-9.66-1.06-2.76-2.65-5.42-5.4-8.18-8.05-1.86-1.78-3.88-3.64-6.42-1.18s-1.56,4.7.66,6.86c3,2.89,5.84,5.92,8.81,8.84s3.4,5.88.54,8.76-6.1,2.42-8.93-.06c-3-2.64-5.72-5.58-8.55-8.4C171.87,237.34,170.72,237.33,165.85,242.09Z" fill="#fff"/><path d="M197.58,127.8c11,0,22,.13,33-.06,4-.07,5.55,1.09,5.5,5.37q-.33,27,0,54c0,3.84-1.35,5.17-4.93,4.76a3.35,3.35,0,0,0-1,0c-13.16,2.32-22.89-2.57-31.63-12.62-9.14-10.51-20-19.54-29.92-29.37a11,11,0,0,1-2.65-5.32c-.69-3.16-3-4.31-4.93-2.58-5.82,5.16-11.21,10.84-16.57,16.49-.71.75-.38,2.56-.4,3.88-.05,4.67.09,9.33-.08,14-.15,4.24-3.65,8-7.07,7.57-4.28-.54-6.4-3.1-6.15-7.57a40.05,40.05,0,0,0,0-8.48c-1.87-11.4,2.86-19.52,10.71-27.62,8.36-8.61,16.89-13.69,29.21-12.55,8.92.82,18,.16,27,.16Z" fill="#fff"/><path d="M252.29,85.65c0-1.35-1.32-3-2.5-3.94-9.59-7.4-19.32-14.62-28.93-22-2.6-2-4.7-2.2-7.53-.1C203.45,66.93,193.5,74.17,183.27,81c-3.29,2.18-4.26,4.42-4.16,8.09.23,9,.3,18,0,27-.14,4.09.93,5.44,5.19,5.37,16.14-.25,32.28-.1,48.42-.1H252.4C252.4,108.89,252.49,97.27,252.29,85.65ZM211.46,116.3H192.63c-.1-1-.25-1.82-.25-2.62,0-5.47,0-10.94,0-17.22,5.79,0,11.36-.1,16.91.12.76,0,2.06,1.67,2.09,2.59C211.56,104.78,211.46,110.39,211.46,116.3Zm6.69-27.87H203V74.58h15.12Zm31.27,12H233.55c-.07-1.39-.17-2.51-.18-3.64-.16-12.5.29-13,12.93-11.37,1.14.14,2.88,1.73,3,2.77C249.63,92.08,249.42,96.06,249.42,100.39Z" fill="#fff"/><path d="M68.34,131.39c-10,0-19.43-.08-28.87.13-.76,0-2.13,2-2.14,3-.13,18-.06,36-.12,54,0,2.72,1.28,3.35,3.69,3.33q12-.1,24,0c2.54,0,3.51-.92,3.5-3.54C68.3,169.67,68.34,151,68.34,131.39ZM51.73,186.8c-1.14,0-3.07-2.56-3.12-4,0-1.13,2.26-3.21,3.59-3.27s2.9,1.76,5.51,3.56C54.94,184.92,53.32,186.81,51.73,186.8Z" fill="#fff"/><path d="M265.53,143.56V127.82c-6.51,0-12.61.11-18.7,0-3.28-.08-4.33,1.24-4.31,4.44q.16,27.72,0,55.44c0,3.44,1.38,4.31,4.45,4.23,4.82-.14,9.66-.22,14.47,0,3.41.17,4.21-1.24,4.18-4.39C265.49,172.86,265.55,158.21,265.53,143.56ZM254.9,186.85c-1.45-.19-2.63-2.33-3.93-3.63,1.42-1.31,2.67-3.13,4.34-3.71.8-.28,2.41,1.78,4.6,3.53C257.62,184.89,256.11,187,254.9,186.85Z" fill="#fff"/><path d="M130.72,217.35c.05,3.88-7.91,12-11.89,12.05-4.6.12-8.33-5.57-5.76-9.37a33.54,33.54,0,0,1,7.79-8.11C124.83,209,130.66,212.41,130.72,217.35Z" fill="#fff"/><path d="M133.46,244.85c-2.76-2.23-5.4-3.37-6.15-5.26s-.12-4.78,1-6.62c1.38-2.35,3.72-4.17,5.82-6,2.93-2.59,6.13-2.52,8.83.21s3.12,5.86.17,8.76S137,241.56,133.46,244.85Z" fill="#fff"/><path d="M116.29,203.66c-.08,4-7,11.15-11,11.41-4.7.3-7.59-3.15-6.74-8.07.58-3.38,8-9.65,11.46-9.7C114.48,197.24,116.39,199.18,116.29,203.66Z" fill="#fff"/><path d="M158.78,246.14c-.06,4.08-6.79,11.51-10.73,11.26-2.05-.13-4.94-1-5.81-2.54a8,8,0,0,1-.16-6.86,23.41,23.41,0,0,1,7.15-7.41C153.81,237.59,158.85,240.74,158.78,246.14Z" fill="#fff"/><path d="M166.6,244.48c3.81,3.8,7.31,7.09,10.56,10.6,2.17,2.35,3.41,5,.47,7.86s-5.36,1.77-7.77-.65c-.94-.94-1.84-1.93-2.86-2.78-3.06-2.54-4.95-5.13-2-9.14C166,249,166,247,166.6,244.48Z" fill="#fff"/><path d="M147.13,76.92V67.39h8.08C156.66,77.53,156.38,77.88,147.13,76.92Z" fill="#fff"/><path d="M106.47,99.19c.76,3.87-1.42,4.3-4.58,4.44-4.17.18-3.84-2.36-4-5.13-.12-3.26.79-4.7,4.46-4.74C106.82,93.71,106.78,96.18,106.47,99.19Z" fill="#fff"/><path d="M182.65,46.73h6.79c-.45,1.94-.5,3.84-1.37,5.22-.38.61-3.11.7-3.56.11C183.53,50.76,183.33,48.88,182.65,46.73Z" fill="#fff"/><path d="M211.36,99.17c0-.92-1.33-2.56-2.09-2.59-5.55-.22-11.12-.12-16.91-.12,0,6.28,0,11.75,0,17.22,0,.8.15,1.59.25,2.62h18.83C211.46,110.39,211.56,104.78,211.36,99.17ZM205.68,110c-1.86,1.25-5.92,1.84-7.22.67-1.7-1.52-1.62-5-2.3-7.69l1.56-1.55c2.82.67,6,.75,8.26,2.28C207,104.38,206.8,109.22,205.68,110Z" fill="#8cc63f"/><path d="M203,74.58h15.12V88.43H203Z" fill="#8cc63f"/><path d="M249.27,88.15c-.09-1-1.83-2.63-3-2.77-12.64-1.59-13.09-1.13-12.93,11.37,0,1.13.11,2.25.18,3.64h15.87C249.42,96.06,249.63,92.08,249.27,88.15Zm-9.67,7c-.65-.6-.66-3.07,0-3.65,1-.89,2.81-.89,4.81-1.41.14,2.26.23,3.83.4,6.59C242.38,96.09,240.58,96.09,239.6,95.19Z" fill="#8cc63f"/><path d="M57.71,183.07c-2.77,1.85-4.39,3.74-6,3.73-1.14,0-3.07-2.56-3.12-4,0-1.13,2.26-3.21,3.59-3.27S55.1,181.27,57.71,183.07Z" fill="#8cc63f"/><path d="M259.91,183c-2.29,1.85-3.8,4-5,3.81-1.45-.19-2.63-2.34-3.93-3.64,1.42-1.31,2.67-3.12,4.34-3.71C256.11,179.23,257.72,181.29,259.91,183Z" fill="#8cc63f"/><path d="M197.72,101.4c2.82.68,6,.75,8.26,2.29,1,.69.82,5.52-.3,6.29-1.86,1.25-5.92,1.83-7.22.66-1.7-1.52-1.62-5-2.3-7.68Z" fill="#fff"/><path d="M244.8,96.72c-2.42-.64-4.22-.64-5.2-1.53-.65-.61-.66-3.07,0-3.65,1-.9,2.81-.89,4.81-1.41C244.54,92.39,244.63,94,244.8,96.72Z" fill="#fff"/><path d="M12.79,338.83a24.35,24.35,0,0,1-2.46-.14L9,329.85Q8.29,324,5.16,324H3.72V338a.72.72,0,0,1-.16.55,2.9,2.9,0,0,1-1.08.16H0v-31c0-.27.05-.45.16-.53A2.28,2.28,0,0,1,1.22,307c.6,0,1.44,0,2.5,0v13.46H5.39a2.33,2.33,0,0,0,1.75-.9A5.71,5.71,0,0,0,8.29,317l2.23-9.74a10.56,10.56,0,0,1,2.31-.29,3.43,3.43,0,0,1,1.18.14.54.54,0,0,1,.32.55,1.37,1.37,0,0,1-.05.41l-2.41,9.51a8.44,8.44,0,0,1-1.13,2.64,5.26,5.26,0,0,1-1.63,1.63,6.54,6.54,0,0,1,2.48,2.8,14.43,14.43,0,0,1,1.32,4.64l1.42,8.67c0,.37-.06.61-.26.72A2.86,2.86,0,0,1,12.79,338.83Z"/><path d="M18,339.1a1.9,1.9,0,0,1-2.13-2.16,7.52,7.52,0,0,1,.09-.82c1.22,0,2.14-.95,2.77-2.74a36.24,36.24,0,0,0,1.43-8.19q.48-5.49,1.06-17.11a1.42,1.42,0,0,1,.22-.73c.1-.14.36-.23.78-.28s1.17-.07,2.23-.07h8.29v31a.68.68,0,0,1-.18.55,2.9,2.9,0,0,1-1.06.16H29.06V310.45H24.67c-.35,6.87-.76,12.34-1.26,16.42a36.56,36.56,0,0,1-2,9.18Q20.13,339.1,18,339.1Z"/><path d="M36.73,307.72a.8.8,0,0,1,.12-.53,1.94,1.94,0,0,1,1-.16c.57,0,1.34,0,2.34,0v15.52q0,4.47-.41,9.42a54.86,54.86,0,0,1,1.88-5.49l1.61-4.08,1-2.49,4.34-12a1.38,1.38,0,0,1,.46-.67,2,2,0,0,1,1-.2c.48,0,1.11,0,1.86,0v31a.64.64,0,0,1-.21.53,2.44,2.44,0,0,1-1.05.18H48.48V327.35q0-6.8.53-13.32-1.26,4.62-4.31,12.42l-4.48,11.39a1.32,1.32,0,0,1-.44.67,2.27,2.27,0,0,1-1.05.22h-2Z"/><path d="M59.58,335.43h7.79c0,.88,0,1.59,0,2.14a2.05,2.05,0,0,1-.18,1,.69.69,0,0,1-.53.17H56v-31a1,1,0,0,1,.14-.44.58.58,0,0,1,.58-.28h10.9c0,.85,0,1.55,0,2.09a2.21,2.21,0,0,1-.16,1c-.08.14-.24.2-.49.2h-7.3v9.48h6.85c0,.81,0,1.49,0,2a2.73,2.73,0,0,1-.16,1.07.5.5,0,0,1-.5.25H59.58Z"/><path d="M85,338a.77.77,0,0,1-.16.55,2.78,2.78,0,0,1-1,.16H81.35V323.37H74.09V338a.72.72,0,0,1-.16.55,2.81,2.81,0,0,1-1.06.16H70.42v-31c0-.27,0-.45.16-.53a2.28,2.28,0,0,1,1.06-.16c.61,0,1.42,0,2.45,0v12.93h7.26V307.72a.68.68,0,0,1,.16-.53,2.18,2.18,0,0,1,1-.16q.88,0,2.43,0Z"/><path d="M103.56,307v2.67a.82.82,0,0,1-.18.62.84.84,0,0,1-.58.16H97.22V338a.72.72,0,0,1-.18.55,3.1,3.1,0,0,1-1.1.16H93.55V310.45H87.37v-2.73c0-.48.25-.72.77-.72Z"/><path d="M105.93,307.81c0-.3,0-.5.17-.58a2.41,2.41,0,0,1,1.07-.18c.59,0,1.4-.05,2.42-.05v12.93h2.54q4,0,5.77,1.95c1.17,1.3,1.76,3.36,1.76,6.2,0,3.36-.73,6-2.16,7.86a7,7,0,0,1-5.87,2.8h-5.7Zm5.61,27.71a3.12,3.12,0,0,0,3-1.65,12.23,12.23,0,0,0,.88-5.42,7.4,7.4,0,0,0-.76-4,3.07,3.07,0,0,0-2.73-1.09h-2.32v12.06A15.4,15.4,0,0,0,111.54,335.52Zm11-26.84a2.78,2.78,0,0,1,.18-1.22c.11-.22.39-.34.83-.39s1.34-.07,2.71-.07v31a.68.68,0,0,1-.19.55,3,3,0,0,1-1.09.16h-2.44Z"/><path d="M144.29,339.2a7.21,7.21,0,0,1-4.06-1.06q-1.62-1.08-2.55-4.36a37.56,37.56,0,0,1-.92-9.6,36.32,36.32,0,0,1,1.31-11.11q1.31-3.88,3.24-5.21a7.59,7.59,0,0,1,4.38-1.32,5.7,5.7,0,0,1,3.26.72,2.15,2.15,0,0,1,1,1.77,4.33,4.33,0,0,1-.61,2.24,4.58,4.58,0,0,0-2.94-1.14,4.51,4.51,0,0,0-2.95,1.06,8,8,0,0,0-2.06,4.11,36.33,36.33,0,0,0-.8,8.7,32.91,32.91,0,0,0,.55,6.89,6.61,6.61,0,0,0,1.54,3.37,3.51,3.51,0,0,0,2.45.9,6.9,6.9,0,0,0,2.41-.42,6.09,6.09,0,0,0,1.8-1,5.18,5.18,0,0,1,.55,2.22,2.74,2.74,0,0,1-1.59,2.32A7.72,7.72,0,0,1,144.29,339.2Z"/><path d="M167.4,307v2.67a.63.63,0,0,1-.76.78h-5.58V338a.68.68,0,0,1-.18.55,3,3,0,0,1-1.09.16h-2.4V310.45h-6.18v-2.73q0-.72.78-.72Z"/><path d="M187.31,338.07a.48.48,0,0,1-.23.58,3.12,3.12,0,0,1-1.34.18c-.82,0-1.55,0-2.18-.09l-1.92-8.08h-7.88L172,338.11a1,1,0,0,1-.45.56,3.06,3.06,0,0,1-1.27.16,22.66,22.66,0,0,1-2.27-.14l8.12-31.2c.09-.42.54-.64,1.36-.64a8.12,8.12,0,0,1,1.72.15Zm-6.48-10.72-1.54-6.52a62.59,62.59,0,0,1-1.58-8.75,82.62,82.62,0,0,1-1.65,8.75l-1.54,6.52Z"/><path d="M204.13,338a.72.72,0,0,1-.16.55,2.66,2.66,0,0,1-1,.16h-2.41V323.37h-7.26V338a.77.77,0,0,1-.16.55,2.83,2.83,0,0,1-1.07.16h-2.44v-31c0-.27,0-.45.16-.53a2.24,2.24,0,0,1,1.06-.16c.6,0,1.42,0,2.45,0v12.93h7.26V307.72c0-.27,0-.45.16-.53a2.18,2.18,0,0,1,1-.16c.59,0,1.4,0,2.42,0Z"/><path d="M215.75,339.2a7.41,7.41,0,0,1-4.84-1.43,8.85,8.85,0,0,1-2.55-5,47.26,47.26,0,0,1-.82-10.08,39.61,39.61,0,0,1,.92-9.53,9.43,9.43,0,0,1,2.84-5.08,7.6,7.6,0,0,1,4.94-1.54A7,7,0,0,1,221,308a8.86,8.86,0,0,1,2.52,4.93,44.8,44.8,0,0,1,.8,9.6,43.31,43.31,0,0,1-.89,9.85,9.63,9.63,0,0,1-2.73,5.21A7.29,7.29,0,0,1,215.75,339.2Zm.14-3.77a3.09,3.09,0,0,0,2.62-1.26,9.09,9.09,0,0,0,1.38-4,50.63,50.63,0,0,0,.44-7.49,55.27,55.27,0,0,0-.37-7.34,8.07,8.07,0,0,0-1.27-3.8,3,3,0,0,0-2.54-1.19,3.09,3.09,0,0,0-2.6,1.29,9.73,9.73,0,0,0-1.44,4.18,54.83,54.83,0,0,0-.44,7.82,50.35,50.35,0,0,0,.37,6.92,8.26,8.26,0,0,0,1.3,3.74A3.05,3.05,0,0,0,215.89,335.43Z"/><path d="M227.63,307.86a.75.75,0,0,1,.27-.65,1.62,1.62,0,0,1,1-.21h4.48c5.07,0,7.62,2.33,7.62,7a8.9,8.9,0,0,1-1.35,5.29,4.55,4.55,0,0,1-3,2.06,6.14,6.14,0,0,1,3.73,1.57c1.08,1,1.62,2.64,1.62,5.05q0,5.44-2.43,8.12a8,8,0,0,1-6.2,2.67h-5.71Zm6,12.1a2.8,2.8,0,0,0,2.41-1.31,6.73,6.73,0,0,0,.94-3.95,5.06,5.06,0,0,0-.94-3.51,3.25,3.25,0,0,0-2.46-1h-2.22V320Zm-.19,15.56a3.56,3.56,0,0,0,3.06-1.79,9.9,9.9,0,0,0,1.21-5.46,8.27,8.27,0,0,0-.53-3.36,2.63,2.63,0,0,0-1.4-1.47,6.47,6.47,0,0,0-2.29-.34h-2.13v12.42Z"/><path d="M246.4,328.72a5.9,5.9,0,0,1,1.12-2.47,6.5,6.5,0,0,1,2.25-1.75,7.14,7.14,0,0,1-3.46-3.19,10.69,10.69,0,0,1-1.31-5.42q0-4.62,2-6.75c1.35-1.43,3.4-2.14,6.13-2.14h4.53a.56.56,0,0,1,.57.28,1.09,1.09,0,0,1,.14.44v31H256a2.57,2.57,0,0,1-1-.16.72.72,0,0,1-.16-.55V325.49h-1.14a3.13,3.13,0,0,0-2.23.92,4.53,4.53,0,0,0-1.26,2.59l-1.73,8.93a1,1,0,0,1-.38.72,2.79,2.79,0,0,1-1.29.18l-2.41-.09Zm6.48-6.63a15.47,15.47,0,0,0,1.92-.12V310.31a21.52,21.52,0,0,0-2.27-.09,2.91,2.91,0,0,0-2.62,1.38,7.29,7.29,0,0,0-.87,3.88,9.61,9.61,0,0,0,1,4.87A3.16,3.16,0,0,0,252.88,322.09Z"/><path d="M277,307v2.67a.63.63,0,0,1-.76.78h-5.58V338a.68.68,0,0,1-.18.55,3,3,0,0,1-1.09.16H267V310.45h-6.18v-2.73q0-.72.78-.72Z"/><path d="M286.26,339.2a7.18,7.18,0,0,1-4.05-1.06q-1.62-1.08-2.55-4.36a37.56,37.56,0,0,1-.92-9.6,36.32,36.32,0,0,1,1.31-11.11q1.31-3.88,3.24-5.21a7.54,7.54,0,0,1,4.37-1.32,5.68,5.68,0,0,1,3.26.72,2.13,2.13,0,0,1,1,1.77,4.32,4.32,0,0,1-.6,2.24,4.58,4.58,0,0,0-2.94-1.14,4.53,4.53,0,0,0-3,1.06,8.09,8.09,0,0,0-2.05,4.11,36.33,36.33,0,0,0-.8,8.7,32.91,32.91,0,0,0,.55,6.89,6.53,6.53,0,0,0,1.54,3.37,3.5,3.5,0,0,0,2.44.9,6.82,6.82,0,0,0,2.41-.42,6,6,0,0,0,1.81-1,5.33,5.33,0,0,1,.55,2.22,2.74,2.74,0,0,1-1.59,2.32A7.78,7.78,0,0,1,286.26,339.2Z"/><path d="M295.92,328.72a6,6,0,0,1,1.11-2.47,6.5,6.5,0,0,1,2.25-1.75,7.16,7.16,0,0,1-3.45-3.19,10.69,10.69,0,0,1-1.31-5.42c0-3.08.67-5.33,2-6.75S300,307,302.68,307h4.54a.56.56,0,0,1,.57.28,1.09,1.09,0,0,1,.14.44v31H305.5a2.69,2.69,0,0,1-1-.16.77.77,0,0,1-.16-.55V325.49h-1.13a3.13,3.13,0,0,0-2.23.92,4.53,4.53,0,0,0-1.26,2.59L298,337.93a1,1,0,0,1-.37.72,2.82,2.82,0,0,1-1.29.18l-2.41-.09Zm6.48-6.63a15.19,15.19,0,0,0,1.91-.12V310.31a21.18,21.18,0,0,0-2.26-.09,2.93,2.93,0,0,0-2.63,1.38,7.3,7.3,0,0,0-.86,3.88,9.72,9.72,0,0,0,1,4.87A3.18,3.18,0,0,0,302.4,322.09Z"/><path d="M72.94,408.46a17.39,17.39,0,0,1-2.45-.13,1.53,1.53,0,0,1-1.08-.51,2,2,0,0,1-.28-1.2V393.38h1.09c1,0,1.77-.65,2.29-2s1-4.22,1.38-8.75.91-12.07,1.47-22.6a1.93,1.93,0,0,1,.23-.82c.12-.14.52-.23,1.19-.26s1.6-.07,2.75-.07H91.22v34.47h2.89v13.24a2,2,0,0,1-.31,1.2,1.46,1.46,0,0,1-1.06.51,18.09,18.09,0,0,1-2.51.13c-.54-2-.93-3.63-1.19-4.87a36.15,36.15,0,0,1-.55-4.2H74.74a31.35,31.35,0,0,1-.56,4C73.93,404.57,73.51,406.26,72.94,408.46Zm11.87-15.08V364.93H81.49q-.8,12.09-1.57,18.53a46.87,46.87,0,0,1-2.06,9.92Z" fill="#009245"/><path d="M103,358.91a16.26,16.26,0,0,1,6.31,1A7.23,7.23,0,0,1,113,363.6a16.69,16.69,0,0,1,1.28,7.23q0,7.16-3.1,10.06a11.08,11.08,0,0,1-7.89,2.89h-.46v14.46a1,1,0,0,1-.28.83,5.16,5.16,0,0,1-1.88.26c-1.06,0-2.48.06-4.25.06V360.06a1.34,1.34,0,0,1,.23-.89,1.19,1.19,0,0,1,.92-.26Zm1,18.92a2.39,2.39,0,0,0,2.25-1.62q.75-1.62.75-6.2a11.12,11.12,0,0,0-.6-4.18,2.07,2.07,0,0,0-2-1.36h-1.63v13.36Z" fill="#009245"/><path d="M122.27,399.67a6.71,6.71,0,0,1-3.6-.87,2.75,2.75,0,0,1-1.38-2.48,8.41,8.41,0,0,1,1-3.65,9.4,9.4,0,0,0,1.83,1,4.43,4.43,0,0,0,1.52.37,1.24,1.24,0,0,0,1.14-.65,6.43,6.43,0,0,0,.55-2.11q-1.11-3-3.74-13.17t-3.9-15.8a17.44,17.44,0,0,1-.46-2.44.74.74,0,0,1,.37-.75,3.79,3.79,0,0,1,1.37-.17h4.57l2.3,10.59c.5,2.42.89,4.62,1.15,6.61s.56,4.44.87,7.37a140,140,0,0,1,2-14l1.56-8.45a3.76,3.76,0,0,1,.7-1.68,2,2,0,0,1,1.49-.46h4.57l-6.76,31.57a45.87,45.87,0,0,1-1.4,5.29,6,6,0,0,1-2,2.84A6.11,6.11,0,0,1,122.27,399.67Z" fill="#009245"/><path d="M146.32,400a12.41,12.41,0,0,1-6.34-1.36,4,4,0,0,1-2.28-3.51,6.78,6.78,0,0,1,1.22-3.92,8.3,8.3,0,0,0,2.89,1.9,10.4,10.4,0,0,0,3.88.64,3.37,3.37,0,0,0,3.17-1.58q.91-1.59.92-5.53a5.83,5.83,0,0,0-1.13-3.79,3.83,3.83,0,0,0-3.14-1.36h-2.09c-1.08,0-1.61-.59-1.61-1.79v-4.11h5.61a20.23,20.23,0,0,0,.87-6.18,7.23,7.23,0,0,0-.73-3.62,2.31,2.31,0,0,0-2.1-1.24,5,5,0,0,0-2.32.68,7.19,7.19,0,0,0-2.25,1.8,18.27,18.27,0,0,1-1.44-2.11,3.29,3.29,0,0,1-.42-1.59,4.65,4.65,0,0,1,1.61-3.4q1.62-1.56,5.84-1.56t6.54,2.37a9.43,9.43,0,0,1,2.2,6.65,16.83,16.83,0,0,1-.87,5.21,17.1,17.1,0,0,1-2.07,4.39,8.51,8.51,0,0,1,3.26,3.74,12.93,12.93,0,0,1,1.13,5.56q0,6.83-2.46,10.27C152.56,398.83,149.94,400,146.32,400Z" fill="#009245"/><path d="M159.32,360.06a1,1,0,0,1,.27-.82,4.46,4.46,0,0,1,1.84-.26c1.06-.05,2.5-.07,4.31-.07v15.91h1.73q5.16,0,7.32,2.51t2.18,8q0,6.77-2.73,10.42a8.51,8.51,0,0,1-7.16,3.63h-7.76ZM167,393.77a1.66,1.66,0,0,0,1.42-.65,5.47,5.47,0,0,0,.73-2.33,38,38,0,0,0,.23-4.81,22.49,22.49,0,0,0-.18-3.25,2.46,2.46,0,0,0-.64-1.47,2,2,0,0,0-1.43-.44h-1.4v12.84A4.29,4.29,0,0,0,167,393.77Z" fill="#009245"/><path d="M181.18,386.77a7.48,7.48,0,0,1,1.28-3.13,8.27,8.27,0,0,1,2.6-2.23,9.78,9.78,0,0,1-4-4.2,14,14,0,0,1-1.38-6.38A16.53,16.53,0,0,1,181,363.6a7.39,7.39,0,0,1,3.79-3.65,16.44,16.44,0,0,1,6.26-1h5.43c.5,0,.81.15.94.44a1.57,1.57,0,0,1,.22.71v39.33c-1.81,0-3.25,0-4.31-.06a5,5,0,0,1-1.86-.26,1,1,0,0,1-.25-.83V383.09h-.76q-1.91,0-2.53,4l-1.51,11a3,3,0,0,1-.3.94,1,1,0,0,1-.74.39,10.72,10.72,0,0,1-1.92.12c-1.34,0-2.73-.06-4.16-.17Zm8.79-9.58a3.09,3.09,0,0,0,1.22-.23V364.63a8.19,8.19,0,0,0-1.63-.16,2.13,2.13,0,0,0-2,1.42,9.63,9.63,0,0,0-.69,4.12,14.78,14.78,0,0,0,.74,5.43A2.48,2.48,0,0,0,190,377.19Z" fill="#009245"/><path d="M225.24,358.91v39.33a.94.94,0,0,1-.3.83,5.19,5.19,0,0,1-1.89.26c-1.08,0-2.54.06-4.4.06l.29-11.11c.08-2.73.25-5.37.49-7.94s.49-4.67.71-6.29.4-2.64.48-3.06l-.18-.11q-2.15,8.5-2.94,10.76l-2.78,7.68a.58.58,0,0,1-.64.41h-2.65l-2.71-8.09q-.83-2.43-2.84-10.76l-.18.11c.07.42.23,1.44.48,3.05s.52,3.66.76,6.21.38,5.2.38,8l.17,10a.88.88,0,0,1-.35.83,5.62,5.62,0,0,1-1.9.26q-1.56.06-4.11.06V360.06c0-.5.1-.81.29-.94a1.48,1.48,0,0,1,.86-.21h4.86l4.62,14.35a38.06,38.06,0,0,1,1.14,3.8c.24,1.08.39,1.75.44,2,0-.27.16-.94.39-2s.57-2.3,1-3.7l4-13.3a3,3,0,0,1,.42-.92,1,1,0,0,1,.73-.23Z" fill="#009245"/><path d="M228.77,360c0-.42.07-.69.23-.79a4.45,4.45,0,0,1,1.73-.23c1-.05,2.38-.07,4.11-.07v16.24q0,4.69-.69,11.87.91-3.58,2.77-9.09l.86-2.55,4.7-15a2,2,0,0,1,.6-1.1,2.57,2.57,0,0,1,1.33-.33c.64-.05,1.88-.07,3.74-.07v39.38a.8.8,0,0,1-.36.78,5.36,5.36,0,0,1-1.82.26c-1,0-2.26.06-3.85.06V385.05c0-1.62.08-3.72.24-6.28s.34-4.83.58-6.79a76.67,76.67,0,0,1-3.3,12.31l-4.8,13.59a2.47,2.47,0,0,1-.63,1.1,2.59,2.59,0,0,1-1.37.35c-.67,0-2,.06-4.07.06Z" fill="#009245"/></g></g></svg>