<svg xmlns="http://www.w3.org/2000/svg" viewBox="0 0 304.27 383.41"><g id="Слой_2" data-name="Слой 2"><g id="Слой_1-2" data-name="Слой 1"><path d="M270.09,152c-19.91-19.86-39.73-39.81-59.71-59.61-2.64-2.62-3.15-4.68-1.51-8.18,2.08-4.45,4-9.26,4.56-14.08,2.38-20.14-2.59-38-18.5-51.56S161.16.88,141,7.15a11.65,11.65,0,0,1-7.81-.72c-16.54-8-33.41-8.79-49.88-.95C56.6,18.19,43.42,45,51.55,75.24,55,88,62.82,98.2,73.62,105.81c2.95,2.08,4.18,4,4.16,7.63q-.18,54.5.07,109c0,2.71.9,6.27,2.74,8,7.42,6.9,15.4,13.21,23.13,19.79,2.32,2,4.37,1.83,6.64-.12,7.33-6.28,14.83-12.36,22.07-18.73,5.2-4.58,5.24-12.07.37-17.09-3.9-4-7.85-8-11.84-12,2.16-2.32,3.6-3.92,5.1-5.48,8.58-9,10.94-8,.15-18.43-1.84-1.77-6.52-3.16-3.41-7.19.24-.31,4.89,2,6.72,3.82,19.86,19.89,39.49,40,59.36,59.88,6.93,6.93,16.7,10.55,26.49.31,18.75-19.62,38.24-38.53,57.31-57.84a18,18,0,0,0,3.81-6.3C279.42,163,275.41,157.28,270.09,152ZM189.16,24.14c17.22,15.23,21.59,39.25,11.3,58.17-10.38-9-24-7.48-36.64-11.08,2.62-10.28,1.71-20.16-1.3-30s-8.6-18.19-16.24-25.75C156.12,9.85,177.25,13.62,189.16,24.14Zm-111.07,75c-14.24-10.69-21.79-25.19-21-43A50.11,50.11,0,0,1,96.33,9.76c27.34-6,54.41,11.14,60,40.11,1,5.46.21,11.29.13,16.95,0,3.28-2.32,3.74-4.89,3.33-7.53-1.2-15-2.93-22.57-3.6-4.15-.37-8.55.62-12.66,1.67-2.6.67-3.74.36-4.3-2.2-.9-4.18-1.61-7.62,3.62-10.3,7-3.56,9.42-11.94,7-19.5-1.92-6-9.41-11.38-15.74-11.32S92.75,31,91,37.45c-1.9,6.78,1.34,15.27,7.72,18.4,3.08,1.51,3.86,3.25,4.08,6.42.28,4.27,1.46,8.47,2.18,12.72.2,1.11.57,2.54.09,3.38-4.91,8.57-1.34,17.14-.18,25.71.17,1.25.23,2.52.4,4.36C94.9,108,85.9,105,78.09,99.17Zm30.76-65c-1.27,4.37-2.5,8.77-3.88,13.11-.19.61-1.37,1.52-1.68,1.38-1.14-.5-2.88-1.31-3-2.15-.34-3.14-1.1-6.84.18-9.38,1.09-2.15,4.78-3,7.31-4.4Zm13.7,153.58c.14,3-5.06,6.43-8.21,9.34-3.63,3.35-3.76,6.17,0,9.53s7.08,7,10.57,10.6c3.78,3.85,3.86,6.6,0,10.09-4.83,4.33-9.86,8.43-14.73,12.72-2.12,1.87-3.77,1.94-6-.07-4.71-4.21-9.83-8-14.5-12.21-1.54-1.4-3.12-3.76-3.13-5.69-.18-34.66-.12-69.31-.1-104a28.45,28.45,0,0,1,.4-2.85l8.27,2.39v5.56q0,46,.08,92c0,1.62-.06,3.57.77,4.76.6.84,2.84,1.16,4,.76a4.41,4.41,0,0,0,2.37-3.16c.3-4.48.2-9,.2-13.49q0-39.74,0-79.47a13.45,13.45,0,0,1,.08-3.48,9.38,9.38,0,0,1,1.68-2.5c.92.68,2.45,1.22,2.65,2.07,1.07,4.5,2,9.06,2.6,13.64,1.35,9.83,2,19.77,7.17,28.72.57,1-1.14,3.77-2.39,5.21-3.84,4.45-3.87,5.23.15,9.52C117.47,181,122.4,184.32,122.55,187.78Zm142.71-14.6q-28,28.17-56.1,56.23c-5,5-8.67,5-13.75-.08-22.65-22.57-45.15-45.29-67.84-67.82-5.8-5.75-7.85-13-9-20.55-2.06-13.24-3.89-26.52-5.71-39.8a45.25,45.25,0,0,1,0-6.36c5.86,5.07,11.54,9.85,17,14.85a8.14,8.14,0,0,1,2,4.19c3.51,16.1,17.79,17.82,26,12.39,7.84-5.18,9.86-15.32,4.6-22.73-5.43-7.66-16.12-10-23.16-4.23-3.88,3.18-6.39,2.71-9.14-.57C125.61,93.39,121.3,88,117,82.55c-2.6-3.24-.77-5,2.21-6.36,6-2.81,11.8-.32,17.62.44,11.68,1.51,23.26,3.74,35,5.12,11.5,1.36,21.47,4.64,29.95,13.5,20.72,21.63,42.21,42.52,63.38,63.71C270.82,164.71,270.91,167.49,265.26,173.18Zm-111.34-54.4c-6.32,3.17-9.74,2.3-12.37-3.25Zm-10.8-12.27c6.3-3.77,9.59-2.88,13.19,3.9Z" fill="#006837"/><path d="M217.92,332.24c-.89-6.13-2.34-12.2-2.75-18.35-.49-7.24-.12-14.55-.12-22.12H199.43c-.63,7.68-1.17,15.09-1.88,22.49-.29,3,.06,6.77-1.61,8.64-4.71,5.26-1.91,10.94-1.94,16.79,1.63-.7,3.36-1.87,3.3-2.93-.29-5.27,2.57-6.12,6.86-5.74,2.46.21,5,0,7.42,0a43.21,43.21,0,0,0,1.83,6.39c.43.94,1.74,1.48,2.65,2.21.62-1,1.54-1.88,1.78-2.94A12.9,12.9,0,0,0,217.92,332.24Zm-10.78-6.92-5-.33c1.14-9.33,2.24-18.35,3.38-27.63C208.27,299.43,209.16,317.93,207.14,325.32Z" fill="#009245"/><path d="M134.23,332.72c-.4-4.35-2.13-8.57-2.55-12.92-.48-4.94-.13-10-.13-15,0-14.05,0-14.06-14.1-13.28a7.4,7.4,0,0,0-1.62.57c-.55,7.37-1,14.8-1.68,22.2-.29,3.11-.1,7.07-1.89,9.08-4.56,5.13-1.64,10.6-1.83,16.29,1.74-.73,3.6-2,3.53-3.1-.33-5,2.26-5.92,6.42-5.58,2.62.21,5.27,0,7.88,0a15.05,15.05,0,0,0,.52,1.75c1.1,2.31,2.45,6.66,3.3,6.57C136.34,338.89,134.44,335,134.23,332.72ZM123.89,325h-5.25c1.18-9.37,2.34-18.47,3.49-27.57l1.76.13Z" fill="#009245"/><path d="M279.65,296.84c-.85-4.43-4.27-6.39-8.31-6.45s-8.47,1.54-9,6.23A166.44,166.44,0,0,0,261,322.8c.29,6.19,3.74,8.52,9,8.75,5.54.24,8.1-1.49,9.75-7.73,1.13-4.27,1.37-8.76,2-13.31C281,305.94,280.52,301.36,279.65,296.84Zm-6,24.41c-.23,1.4-2,2.55-3,3.81-.89-1.24-2.5-2.45-2.55-3.72-.24-6.63-.26-13.29.06-19.92.06-1.35,1.91-2.61,2.94-3.91.9,1.28,2.35,2.48,2.59,3.87a79.31,79.31,0,0,1,.58,9.28A89,89,0,0,1,273.63,321.25Z" fill="#009245"/><path d="M304.27,330.64h-8c-1.65-5.5,1.26-12.13-4.32-18.31-.34,2.79-.63,4.4-.7,6-.09,2.33,0,4.67,0,7,0,6.17-.09,6.22-7.09,5.13,0-12.21-.09-24.51.16-36.79,0-1,2.38-2.63,3.63-2.61s2.93,1.81,3.13,3c.47,2.93.1,6,.2,9a21.59,21.59,0,0,0,.66,3.41l1.95-.09c.61-3.15,1.25-6.29,1.81-9.44.2-1.14-.24-2.86.39-3.37,1.48-1.22,3.42-1.87,5.17-2.75.58,1.37,1.83,2.87,1.6,4.09-.82,4.19-2.24,8.26-3.26,12.41a8,8,0,0,0,.05,3.64C301.05,317.31,302.6,323.62,304.27,330.64Z" fill="#009245"/><path d="M106.45,291.84V330.7h-5.31V310.48l-1-.13c-2.07,5.73-4.35,11.39-6.11,17.21-1,3.45-2.75,4.18-6.36,2.66,0-11.94-.12-24.06.19-36.16,0-1.21,2.69-2.36,4.13-3.53l1.48,1.5v19.8l1.21.31c1.62-5.13,3.29-10.24,4.82-15.4C100.51,293.4,101.39,290.14,106.45,291.84Z" fill="#009245"/><path d="M80.53,309.83c.63-4.91,1.66-8.43,1.3-11.81-.23-2.18-2.1-5.41-3.91-6-3.49-1.06-7.45-.6-11.22-.6-.27,0-.78,1.41-.79,2.16,0,12.27,0,24.54,0,36.69,8.79,1.82,13,.63,15.93-4.3S83.92,314,80.53,309.83ZM72.32,296c4.35,3.21,4.43,6.53,0,10.77Zm-.11,29.82V310.86c1.8,1.78,3.68,2.8,3.66,3.8C75.82,318.35,78.08,322.94,72.21,325.8Z" fill="#009245"/><path d="M257.14,291.65v38.72c-6.11,1.19-6.38,1-6.41-4.58,0-8.31,0-16.63-.19-24.94,0-1.11-1.15-2.2-1.76-3.3a13.77,13.77,0,0,0-1.35,3.28c-1.07,8.17-1.92,16.38-3.11,24.54a7.1,7.1,0,0,1-2.5,4.61c-1.35.87-3.53.44-5.35.57a33.89,33.89,0,0,1,.6-4.41c.93-3.43,2.54-6.76,3-10.23,1-7.87,1.37-15.8,2.05-24.26Z" fill="#009245"/><path d="M13.56,308.86a5.62,5.62,0,0,1,.44-1.18c2.59-3.74,3.16-10.65,1.09-13.52-1.56-2.15-9.77-4.43-12.89-3.28a3.82,3.82,0,0,0-2.1,2.76C0,305.9,0,318.16,0,330.31c9,1.86,13.34.56,16.13-4.53A14.77,14.77,0,0,0,13.56,308.86ZM6.23,296.7l.92-.71c.89,1.18,2.5,2.34,2.52,3.52,0,2.31-.84,4.63-1.33,6.94L6.23,306ZM5.8,325.23c0-4-.16-7.67.16-11.31,0-.54,2.82-1.64,3.43-1.21C11.92,314.49,9.75,323.76,5.8,325.23Z" fill="#009245"/><path d="M143.23,305.29a95.8,95.8,0,0,0-.18-11.22c-.12-1.06-2.25-2.46-3.58-2.6-1-.11-3.13,1.53-3.15,2.41-.21,12.12-.14,24.24-.14,36.52,10.52,1.73,15.41-.52,17.25-7.4C156,313.36,153.58,309,143.23,305.29Zm.68,20.48V312.51C147.17,315.41,147.32,321.74,143.91,325.77Z" fill="#009245"/><path d="M290.28,350.12c-.2-3.34-2.71-6-6.9-5.77-3.92.25-6,2.41-6.82,6.09-.66,2.84-1.51,5.65-2.28,8.48l-2.14-.14c0-3.43.16-6.88-.09-10.3-.08-1.18-1.17-2.3-1.8-3.44-.76,1.19-2.14,2.36-2.17,3.57q-.3,12,0,23.95c0,1.31,1.14,2.6,1.75,3.9.8-1.31,2.16-2.57,2.29-3.94.34-3.48.11-7,.11-10.52l1.8-.34a18.61,18.61,0,0,1,1.23,3c.48,2.08.71,4.22,1.2,6.3.72,3.1,2.1,5.39,5.86,5.65,4,.28,7.12-1.3,7.5-4.89A131.68,131.68,0,0,0,290.28,350.12ZM286.77,369c-.34,1.55-2.33,2.75-3.58,4.1-1.2-1.41-3.33-2.75-3.44-4.24a99.9,99.9,0,0,1,.06-16.41c.13-1.5,2.56-2.79,3.93-4.17,1.11,1.44,2.86,2.75,3.2,4.35.54,2.54.14,5.29.14,7.94h-.14C286.94,363.41,287.36,366.33,286.77,369Z"/><path d="M233.66,325.73c1.25,3.61.57,5.51-3.88,5.37-12.16-.37-10,1.53-10.21-9.82-.14-8.48.14-17-.08-25.45-.1-3.64,1-5.27,4.75-5.06,2.66.15,5.34-.13,8,.14.8.08,2.12,1.41,2.07,2.08-.08,1.06-1.18,3-1.73,2.92-8.19-.6-5.62,5.12-5.8,9.87l5.81.75c.07,1.54.14,3.08.23,4.86l-5.44.95C225.18,323.42,225.72,324.58,233.66,325.73Z" fill="#009245"/><path d="M53.81,325.85c1.34,3.88,0,5.37-4.15,5.24-10.39-.32-9.28,1.52-9.32-9.28,0-9,.17-17.95.1-26.93,0-3,1.11-4.25,4.09-4.11,2.82.13,5.68-.16,8.47.17a3.38,3.38,0,0,1,2.12,2.54A3.54,3.54,0,0,1,52.9,296c-6.66,1.59-6.68,1.52-5.74,9.91l6.19.66c1.07,3.5.57,5.51-3.65,5.56-1,0-2.07,1.77-2.9,2.89-.32.42,0,1.29,0,1.95C46.72,324.52,46.72,324.52,53.81,325.85Z" fill="#009245"/><path d="M155.4,376l-2,.77a37.82,37.82,0,0,1-2.52-5.46c-.73-2.49-.8-5.18-1.61-7.63-.27-.84-1.92-1.22-2.94-1.81-.49.92-1.33,1.82-1.39,2.77-.18,2.82,0,5.66-.1,8.49a20.43,20.43,0,0,1-.66,3.42l-1.7,0v-14c-5.47-1.53-5.81,1.73-6.34,4.66-.41,2.27-.49,4.62-1,6.86-.25,1-1.28,1.83-2,2.74l-1.72-.6c.58-3.77.32-8,1.93-11.23,2.71-5.46,0-10-.95-14.85-.34-1.75-.34-3.56-.56-6,6.57,3.15,1.67,12.37,10.12,14.23V345.16l2.22-.18c.37,4.23.75,8.45,1.17,13.19,7.69-1.73,3.23-10.71,9.73-13.21-.5,2.8-.36,5.94-1.62,8.34-2.75,5.21-.22,9.71.81,14.51C154.88,370.49,155.05,373.26,155.4,376Z"/><path d="M190,324.43c.64,3.39,1,5.86-2.78,6.76-5.07,1.21-10-.11-10.74-4.27a123.35,123.35,0,0,1-1.73-21c0-3.32,1.38-6.77,2.66-9.95,1.58-4,5.16-5.74,9.16-5.52,1.66.1,3.2,2.18,4.79,3.36-1.32,1-2.51,2.62-4,3-4.2,1-5.63,4.06-5.86,7.67a133,133,0,0,0,0,14.94C181.77,324.61,185.49,325.16,190,324.43Z" fill="#009245"/><path d="M33.82,324.74c1.22,0,2.48,1.22,3.72,1.89-.85,1.43-1.35,3.61-2.59,4.16-6.71,3-12.26-.46-13.09-7.8-.38-3.28-.92-6.54-1.63-11.44,1.11-4.48,2.2-10.5,4.16-16.23,1.31-3.84,6.91-6.08,10.37-4.61,1.37.58,2.19,2.43,3.26,3.71-1.27.89-2.5,2.49-3.8,2.54-5.84.23-5.77,5-6.35,8.55a57.51,57.51,0,0,0-.07,12.92C28,321.94,29.27,324.87,33.82,324.74Z" fill="#009245"/><path d="M248.86,346.9c-1.49.6-3,1.2-4.48,1.82-.29.11-.56.28-1.46.73v26.78l-1.76.48c-.45-1.33-1.26-2.65-1.28-4-.13-7.79-.07-15.59-.07-23.84-3.88-.26-7.48-.8-11-.62-1.52.08-3.83,1.31-4.31,2.58-2.38,6.32-3.52,13-.21,19.25.94,1.78,4.35,2.25,7.27,3.63-.58.65-1.46,2.48-2.41,2.53a24.55,24.55,0,0,1-7-1.08c-.61-.16-1.24-1.23-1.4-2-1.84-8.84-2.86-17.73,1.59-26.07.8-1.48,3.53-2.61,5.43-2.7a143.28,143.28,0,0,1,16.44.37C245.77,344.91,247.3,346.17,248.86,346.9Z"/><path d="M91.54,374.1c-.33-2.27-1.84-4.41-2-6.65-.3-5.31-.09-10.66-.06-16,0-6.6-.09-6.52-6.66-6.53-3.52,0-4.85,1.66-5,4.73-.2,4,.06,8-.44,12-.47,3.71-.93,7.76-2.73,10.89-2.16,3.75-1.44,6.93-.91,10.42l1.33.24,1.46-6.26H89l.74,6.49,2.33,0A92.63,92.63,0,0,0,91.54,374.1Zm-5.18-.76h-7.3c1-7.93,1.88-15.59,3-23.22a2.57,2.57,0,0,1,2.16-1.35c.84.2,2.07,1.26,2.08,2C86.41,358.19,86.36,365.64,86.36,373.34Z"/><path d="M196.1,376.41l-2.5.09V357l-1.31-.09q-2.06,6.1-4.13,12.23l-1.44.21-4.38-11.53-.8-.1v19.09c-3.3-2.15-4.23-24.18-1.06-32.26,1.17,2.56,2.49,5.08,3.48,7.71,1.07,2.86,1.83,5.82,3.71,8.84q2.93-8.36,5.86-16.7l2.52.56C196.25,355.46,196.24,365.94,196.1,376.41Z"/><path d="M163.65,327.88c-.1,5.47-4.06,2.43-7,2.91,0-12.51-.08-24.61.17-36.7,0-.94,2.38-2.56,3.63-2.54s3.13,1.85,3.15,2.92C163.81,305.6,163.86,316.75,163.65,327.88Z" fill="#009245"/><path d="M215.27,350.87c-.54-3.95-2.3-6.46-6.66-6.55-4.65-.09-7.51,2.65-7.9,6.67a124.68,124.68,0,0,0-.06,19.23c.2,3.47,2,6.09,6.23,6.38,4.44.29,7.09-1.59,8.11-5.6.89-3.5,1.21-7.16,1.81-10.95C216.29,357.05,215.69,354,215.27,350.87Zm-4.42,19.83c-.27,1-1.94,2.4-2.79,2.28a4.59,4.59,0,0,1-3.22-2.47,28.88,28.88,0,0,1,.41-20.37c.34-.86,2.14-1.67,3.18-1.57a3.85,3.85,0,0,1,2.83,2.15c.74,3.18,1,6.48,1.49,10.25C212.2,364,211.76,367.4,210.85,370.7Z"/><path d="M126.66,345.15v31.27l-1.85.1c-1-6.46-.06-13.09-.57-20.52-4.53,6.89-4.64,15.21-11,21.71V345.18L115,345c1.46,6.91,0,14.18,1.59,21.2l8.65-21.55Z"/><path d="M105.43,358.88c2.77-3.54,4.39-7.2,1.6-11.09s-7.06-3.44-11.54-3V376c6.86,1.06,10.72-.17,12.43-3.83C110.46,366.71,109.87,363.09,105.43,358.88ZM98.67,348.5c5-1.2,5.4,1.44,5.34,4.89-.07,3.67-1.68,4.73-5.34,3.53Zm2.64,24.77c-.46.23-2.63-1.36-2.72-2.24a97.06,97.06,0,0,1-.13-9.8c4-1.1,6.05.43,6.67,3.69C105.81,368.5,104.64,371.56,101.31,373.27Z"/><path d="M171.34,377.2V355.65c-4.29,6.73-5.49,14.76-11.16,20.65V345l1.75-.09v20.52l1.44.18,8.56-21C175.27,350.77,174.58,374.31,171.34,377.2Z"/><path d="M54.81,345.1v31.21l-1.83.2v-15.1H45.27c0,4,.18,7.82-.1,11.58-.09,1.21-1.41,2.32-2.17,3.48-.67-1.07-1.91-2.12-1.93-3.2q-.24-12.47,0-24.93c0-1.13,1.29-2.23,2-3.34.74,1,1.89,2,2.13,3.15a18.15,18.15,0,0,1,.08,5.46c-.27,2.71.54,4,3.51,3.94,2.7,0,4-.87,3.83-3.76s.1-5.86.17-8.8Z"/><path d="M259.81,357.89c-4.78-.42-4.7-2.94-4.68-6.33a57.34,57.34,0,0,0-.76-6.86l-2,.19v31.62c1.89,0,3.55.11,5.2,0,4.53-.37,6.79-3.27,7.36-7.43C265.89,362.22,264.37,358.28,259.81,357.89Zm.67,12c-.39,1.37-2.11,2.37-3.23,3.54a36,36,0,0,1-2-3.8.83.83,0,0,1-.06-.21,3.06,3.06,0,0,1-.06-1.05l.06-.79c0-.13,0-.26,0-.39s0-.36,0-.54v-.09l0-.47a2.35,2.35,0,0,1,0-.26,6.79,6.79,0,0,1,0-.78,3.58,3.58,0,0,1,.19-1.28c.38-1,1.62-2.61,2.16-2.49,1.15.26,2.75,1.3,3,2.3A13.33,13.33,0,0,1,260.48,369.92Z"/><path d="M63.29,373.29l8,.63v2l-11,.76V345c3,0,5.74-.14,8.48.08.89.07,1.7,1.07,2.54,1.65-.94.61-1.8,1.54-2.83,1.77a31.63,31.63,0,0,1-5.18.33V357l6.87,1.1c0,.56,0,1.11,0,1.67L63.29,361Z"/><path d="M30.9,373.67c-.87.9-1.75,2.56-2.63,2.56-2.32,0-5-.17-6.86-1.34-1.35-.85-2.18-3.39-2.27-5.22a136.46,136.46,0,0,1,0-16.43c.38-5.61,3.88-9.18,8.24-8.83,1.3.1,2.51,1.24,3,1.5-3,2.87-7,4.84-7.38,7.33-.82,5.73-.21,11.75.62,17.54C23.76,371.87,27.62,372.44,30.9,373.67Z"/><path d="M265.08,159c-21.17-21.19-42.66-42.08-63.38-63.71-8.48-8.86-18.45-12.14-29.95-13.5-11.7-1.38-23.28-3.61-35-5.12-5.82-.76-11.66-3.25-17.62-.44-3,1.41-4.81,3.12-2.21,6.36,4.34,5.41,8.65,10.84,13.11,16.15,2.75,3.28,5.26,3.75,9.14.57,7-5.77,17.73-3.43,23.16,4.23,5.26,7.41,3.24,17.55-4.6,22.73-8.21,5.43-22.49,3.71-26-12.39a8.14,8.14,0,0,0-2-4.19c-5.48-5-11.16-9.78-17-14.85a45.25,45.25,0,0,0,0,6.36c1.82,13.28,3.65,26.56,5.71,39.8,1.19,7.59,3.24,14.8,9,20.55,22.69,22.53,45.19,45.25,67.84,67.82,5.08,5.06,8.79,5,13.75.08q28.11-28.07,56.1-56.23C270.91,167.49,270.82,164.71,265.08,159Zm-87.3,34.95c-1.35-1.27-3.2-2.21-3.21-3.19,0-1.92.37-4.41,1.6-5.72,6.27-6.66,12.87-13,19.34-19.48,1.89-1.88,3.5-4.21,5.72-5.52,1.47-.88,3.79-.32,5.73-.4,0,2,.52,4.2-.19,5.89s-2.65,2.91-4.07,4.32q-10.59,10.56-21.22,21.11C180.47,191.91,179.27,192.71,177.78,193.91Zm15.36,9.85c-.64.66-1.73.87-3,1.48-1.09-.83-2.69-1.47-3.24-2.61s-.49-3.22.25-4c6.08-6.34,12.31-12.56,18.75-18.54.7-.65,3.4,0,4.49.9.8.65,1.17,3.29.56,4C205.15,191.38,199.14,197.58,193.14,203.76Zm38.73-17.85c-8.6,9-17.47,17.82-26.33,26.6-.76.75-2,1-3.43,1.7-1-.92-2.48-1.65-2.67-2.63-.28-1.47-.23-3.68.67-4.61,8.68-9,17.49-17.81,26.52-26.43.93-.89,4.29-.77,5.09.15S232.78,185,231.87,185.91Z" fill="#fff"/><path d="M105.24,108.44C94.9,108,85.9,105,78.09,99.18c-14.25-10.7-21.79-25.2-21-43A50.09,50.09,0,0,1,96.33,9.77c27.34-6,54.41,11.14,60,40.1,1,5.46.21,11.3.13,17,0,3.27-2.32,3.73-4.89,3.32-7.53-1.2-15-2.92-22.57-3.6-4.15-.36-8.55.62-12.66,1.68-2.6.67-3.74.35-4.3-2.21-.9-4.17-1.61-7.62,3.62-10.29,7-3.56,9.42-11.95,7-19.51-1.92-6-9.41-11.37-15.74-11.32S92.75,31.05,91,37.45c-1.91,6.78,1.34,15.28,7.72,18.4,3.08,1.51,3.86,3.26,4.07,6.43.29,4.26,1.47,8.47,2.19,12.71.19,1.12.57,2.54.09,3.38-4.91,8.58-1.34,17.14-.18,25.71C105,105.33,105.07,106.6,105.24,108.44Z" fill="#fff"/><path d="M86.8,115.29l8.27,2.38v5.56q0,46,.08,92c0,1.63-.07,3.58.77,4.76.59.84,2.84,1.17,4,.76a4.39,4.39,0,0,0,2.37-3.16c.3-4.48.2-9,.2-13.48q0-39.73,0-79.47a13.88,13.88,0,0,1,.08-3.48,9.72,9.72,0,0,1,1.69-2.51c.92.69,2.45,1.23,2.65,2.08,1.06,4.5,2,9.05,2.6,13.63,1.34,9.84,2,19.77,7.17,28.72.57,1-1.14,3.77-2.39,5.21-3.84,4.45-3.87,5.23.15,9.52,3,3.22,8,6.55,8.1,10,.14,3-5.06,6.44-8.21,9.34-3.63,3.35-3.76,6.17,0,9.54s7.08,7,10.57,10.6c3.78,3.84,3.85,6.59,0,10.08-4.83,4.33-9.86,8.43-14.73,12.72-2.12,1.87-3.77,1.94-6-.07-4.71-4.21-9.84-8-14.51-12.21-1.53-1.4-3.11-3.76-3.12-5.69-.18-34.65-.12-69.31-.1-104A28.38,28.38,0,0,1,86.8,115.29Z" fill="#fff"/><path d="M146.28,15.5c9.84-5.65,31-1.88,42.88,8.65,17.22,15.22,21.59,39.25,11.29,58.17-10.37-9-24-7.49-36.63-11.09,2.62-10.27,1.71-20.16-1.3-30S153.91,23.06,146.28,15.5Z" fill="#fff"/><path d="M108.85,34.2c-1.27,4.38-2.5,8.77-3.88,13.11-.19.62-1.37,1.52-1.69,1.38-1.13-.5-2.88-1.3-3-2.15-.35-3.14-1.1-6.84.18-9.37,1.09-2.15,4.78-3,7.31-4.41Z" fill="#fff"/><path d="M156.31,110.41l-13.19-3.89C149.42,102.74,152.71,103.63,156.31,110.41Z" fill="#fff"/><path d="M153.92,118.78c-6.32,3.18-9.74,2.31-12.37-3.25Z" fill="#fff"/><path d="M207.14,325.32l-5-.33c1.15-9.33,2.25-18.35,3.39-27.63C208.27,299.43,209.16,317.93,207.14,325.32Z" fill="#fff"/><path d="M123.89,325h-5.25c1.18-9.36,2.33-18.47,3.49-27.57l1.76.13Z" fill="#fff"/><path d="M274.23,310.66a88.73,88.73,0,0,1-.6,10.59c-.24,1.4-2,2.55-3,3.81-.89-1.24-2.5-2.45-2.55-3.72-.25-6.63-.26-13.29.05-19.92.07-1.34,1.92-2.61,2.95-3.91.9,1.29,2.35,2.48,2.59,3.88A79.27,79.27,0,0,1,274.23,310.66Z" fill="#fff"/><path d="M72.21,310.86c1.79,1.79,3.68,2.81,3.66,3.8-.05,3.69,2.21,8.29-3.66,11.15Z" fill="#fff"/><path d="M72.31,296c4.36,3.21,4.44,6.53,0,10.77Z" fill="#fff"/><path d="M5.8,325.23c0-4-.16-7.67.16-11.3,0-.55,2.82-1.65,3.43-1.22C11.92,314.49,9.75,323.76,5.8,325.23Z" fill="#fff"/><path d="M6.23,306v-9.3l.92-.7c.89,1.17,2.5,2.33,2.52,3.52,0,2.3-.84,4.62-1.33,6.93Z" fill="#fff"/><path d="M143.91,312.51c3.26,2.9,3.41,9.24,0,13.26Z" fill="#fff"/><path d="M286.94,360.6c0,2.82.42,5.73-.17,8.42-.34,1.56-2.33,2.75-3.58,4.1-1.2-1.41-3.33-2.74-3.45-4.23a101.14,101.14,0,0,1,.07-16.42c.13-1.49,2.56-2.78,3.93-4.17,1.11,1.44,2.85,2.75,3.2,4.35.54,2.55.14,5.29.14,8Z" fill="#fff"/><path d="M86.35,373.34H79.06c1-7.93,1.88-15.58,3-23.22a2.6,2.6,0,0,1,2.17-1.35c.83.21,2.07,1.26,2.08,2C86.41,358.19,86.35,365.65,86.35,373.34Z" fill="#fff"/><path d="M212.75,361c-.55,3-1,6.44-1.9,9.73-.27,1-1.94,2.4-2.79,2.28a4.59,4.59,0,0,1-3.22-2.47,28.79,28.79,0,0,1,.41-20.36c.34-.86,2.14-1.68,3.18-1.58a3.82,3.82,0,0,1,2.82,2.15C212,353.91,212.24,357.21,212.75,361Z" fill="#fff"/><path d="M98.46,361.23c4-1.1,6,.43,6.67,3.7.68,3.57-.49,6.64-3.82,8.34-.46.24-2.63-1.36-2.72-2.24A94.17,94.17,0,0,1,98.46,361.23Z" fill="#fff"/><path d="M98.67,348.5c5-1.2,5.4,1.45,5.34,4.89-.07,3.67-1.68,4.73-5.34,3.53Z" fill="#fff"/><path d="M255.24,367.22c0-1.15-.29-2.41.09-3.41s1.62-2.62,2.16-2.5c1.15.26,2.74,1.31,3,2.31a13.16,13.16,0,0,1,0,6.3c-.38,1.38-2.1,2.38-3.22,3.55a34.37,34.37,0,0,1-2-3.81A7.1,7.1,0,0,1,255.24,367.22Z" fill="#fff"/><path d="M202.11,214.21c-1-.91-2.48-1.64-2.67-2.62-.29-1.48-.24-3.69.67-4.62,8.68-9,17.49-17.81,26.52-26.43.93-.89,4.29-.76,5.09.15s1.06,4.26.15,5.22c-8.6,9-17.47,17.82-26.33,26.61C204.78,213.27,203.54,213.52,202.11,214.21Z" fill="#8cc63f"/><path d="M177.78,193.91c-1.35-1.27-3.2-2.21-3.21-3.18,0-1.93.37-4.42,1.6-5.72,6.27-6.66,12.87-13,19.34-19.49,1.89-1.88,3.5-4.2,5.72-5.52,1.47-.87,3.79-.32,5.73-.4,0,2,.52,4.2-.19,5.89s-2.65,2.91-4.07,4.32q-10.6,10.58-21.22,21.11C180.47,191.92,179.27,192.72,177.78,193.91Z" fill="#8cc63f"/><path d="M190.1,205.24c-1.09-.82-2.68-1.47-3.23-2.61s-.49-3.22.24-4c6.09-6.34,12.32-12.56,18.76-18.54.7-.65,3.39,0,4.49.9.79.65,1.17,3.3.56,4-5.77,6.41-11.78,12.6-17.78,18.79C192.5,204.42,191.41,204.63,190.1,205.24Z" fill="#8cc63f"/></g></g></svg>