<svg xmlns="http://www.w3.org/2000/svg" viewBox="0 0 305.47 385.04"><g id="Слой_2" data-name="Слой 2"><g id="Слой_1-2" data-name="Слой 1"><path d="M261.88,152c-19.91-19.86-39.73-39.81-59.71-59.61-2.64-2.62-3.15-4.68-1.51-8.18,2.08-4.45,4-9.26,4.56-14.08,2.38-20.14-2.59-38-18.5-51.56S153,.88,132.77,7.15A11.65,11.65,0,0,1,125,6.43c-16.54-8-33.41-8.79-49.88-.95C48.39,18.19,35.21,45,43.34,75.24c3.42,12.77,11.27,23,22.07,30.57,3,2.08,4.18,4,4.16,7.63q-.18,54.5.07,109c0,2.71.9,6.27,2.74,8,7.42,6.9,15.4,13.21,23.13,19.79,2.32,2,4.37,1.83,6.64-.12,7.33-6.28,14.83-12.36,22.07-18.73,5.2-4.58,5.24-12.07.37-17.09-3.9-4-7.85-8-11.84-12,2.16-2.32,3.6-3.92,5.1-5.48,8.58-9,10.94-8,.15-18.43-1.84-1.77-6.52-3.16-3.41-7.19.24-.31,4.89,2,6.72,3.82,19.86,19.89,39.49,40,59.36,59.88,6.93,6.93,16.7,10.55,26.49.31,18.75-19.62,38.24-38.53,57.31-57.84a18,18,0,0,0,3.81-6.3C271.21,163,267.2,157.28,261.88,152ZM181,24.14c17.22,15.23,21.59,39.25,11.3,58.17-10.38-9-24-7.48-36.64-11.08,2.62-10.28,1.71-20.16-1.3-30s-8.6-18.19-16.24-25.75C147.91,9.85,169,13.62,181,24.14Zm-111.07,75C55.64,88.48,48.09,74,48.93,56.16A50.11,50.11,0,0,1,88.12,9.76c27.34-6,54.41,11.14,60,40.11,1,5.46.21,11.29.13,16.95,0,3.28-2.32,3.74-4.89,3.33-7.53-1.2-15-2.93-22.57-3.6-4.15-.37-8.55.62-12.66,1.67-2.6.67-3.74.36-4.3-2.2-.9-4.18-1.61-7.62,3.62-10.3,7-3.56,9.42-11.94,7-19.5-1.92-6-9.41-11.38-15.74-11.32S84.54,31,82.74,37.45c-1.9,6.78,1.34,15.27,7.72,18.4,3.08,1.51,3.86,3.25,4.08,6.42C94.82,66.54,96,70.74,96.72,75c.2,1.11.57,2.54.09,3.38-4.91,8.57-1.34,17.14-.18,25.71.17,1.25.23,2.52.4,4.36C86.69,108,77.69,105,69.88,99.17Zm30.76-65c-1.27,4.37-2.5,8.77-3.88,13.11-.19.61-1.37,1.52-1.68,1.38-1.14-.5-2.88-1.31-3-2.15-.34-3.14-1.1-6.84.18-9.38,1.09-2.15,4.78-3,7.31-4.4Zm13.7,153.58c.14,3-5.06,6.43-8.21,9.34-3.63,3.35-3.76,6.17,0,9.53s7.08,7,10.57,10.6c3.78,3.85,3.86,6.6,0,10.09-4.83,4.33-9.86,8.43-14.73,12.72-2.12,1.87-3.77,1.94-6-.07-4.71-4.21-9.83-8-14.5-12.21-1.54-1.4-3.12-3.76-3.13-5.69-.18-34.66-.12-69.31-.1-104a28.45,28.45,0,0,1,.4-2.85l8.27,2.39v5.56q0,46,.08,92c0,1.62-.06,3.57.77,4.76.6.84,2.84,1.16,4,.76a4.41,4.41,0,0,0,2.37-3.16c.3-4.48.2-9,.2-13.49q0-39.74,0-79.47a13.45,13.45,0,0,1,.08-3.48,9.38,9.38,0,0,1,1.68-2.5c.92.68,2.45,1.22,2.65,2.07,1.07,4.5,2,9.06,2.6,13.64,1.35,9.83,2,19.77,7.17,28.72.57,1-1.14,3.77-2.39,5.21-3.84,4.45-3.87,5.23.15,9.52C109.26,181,114.19,184.32,114.34,187.78Zm142.71-14.6q-28,28.17-56.1,56.23c-5,5-8.67,5-13.75-.08-22.65-22.57-45.15-45.29-67.84-67.82-5.8-5.75-7.85-13-9-20.55-2.06-13.24-3.89-26.52-5.71-39.8a45.25,45.25,0,0,1,0-6.36c5.86,5.07,11.54,9.85,17,14.85a8.14,8.14,0,0,1,2,4.19c3.51,16.1,17.79,17.82,26,12.39,7.84-5.18,9.86-15.32,4.6-22.73-5.43-7.66-16.12-10-23.16-4.23-3.88,3.18-6.39,2.71-9.14-.57-4.46-5.31-8.77-10.74-13.11-16.15-2.6-3.24-.77-5,2.21-6.36,6-2.81,11.8-.32,17.62.44,11.68,1.51,23.26,3.74,35,5.12,11.5,1.36,21.47,4.64,30,13.5,20.72,21.63,42.21,42.52,63.38,63.71C262.61,164.71,262.7,167.49,257.05,173.18Zm-111.34-54.4c-6.32,3.17-9.74,2.3-12.37-3.25Zm-10.8-12.27c6.3-3.77,9.59-2.88,13.19,3.9Z" fill="#006837"/><path d="M256.87,159c-21.17-21.19-42.66-42.08-63.38-63.71-8.48-8.86-18.45-12.14-30-13.5-11.7-1.38-23.28-3.61-35-5.12-5.82-.76-11.66-3.25-17.62-.44-3,1.41-4.81,3.12-2.21,6.36,4.34,5.41,8.65,10.84,13.11,16.15,2.75,3.28,5.26,3.75,9.14.57,7-5.77,17.73-3.43,23.16,4.23,5.26,7.41,3.24,17.55-4.6,22.73-8.21,5.43-22.49,3.71-26-12.39a8.14,8.14,0,0,0-2-4.19c-5.48-5-11.16-9.78-17-14.85a45.25,45.25,0,0,0,0,6.36c1.82,13.28,3.65,26.56,5.71,39.8,1.19,7.59,3.24,14.8,9,20.55,22.69,22.53,45.19,45.25,67.84,67.82,5.08,5.06,8.79,5,13.75.08q28.11-28.07,56.1-56.23C262.7,167.49,262.61,164.71,256.87,159Zm-87.3,34.95c-1.35-1.27-3.2-2.21-3.21-3.19,0-1.92.37-4.41,1.6-5.72,6.27-6.66,12.87-13,19.34-19.48,1.89-1.88,3.5-4.21,5.72-5.52,1.47-.88,3.79-.32,5.73-.4,0,2,.52,4.2-.19,5.89s-2.65,2.91-4.07,4.32q-10.59,10.56-21.22,21.11C172.26,191.91,171.06,192.71,169.57,193.91Zm15.36,9.85c-.64.66-1.73.87-3,1.48-1.09-.83-2.69-1.47-3.24-2.61s-.49-3.22.25-4c6.08-6.34,12.31-12.56,18.75-18.54.7-.65,3.4,0,4.49.9.8.65,1.17,3.29.56,4C196.94,191.38,190.93,197.58,184.93,203.76Zm38.73-17.85c-8.6,9-17.47,17.82-26.33,26.6-.76.75-2,1-3.43,1.7-1-.92-2.48-1.65-2.67-2.63-.28-1.47-.23-3.68.67-4.61,8.68-9,17.49-17.81,26.52-26.43.93-.89,4.29-.77,5.09.15S224.57,185,223.66,185.91Z" fill="#fff"/><path d="M97,108.44C86.69,108,77.69,105,69.88,99.18c-14.24-10.7-21.79-25.2-20.95-43A50.1,50.1,0,0,1,88.13,9.77c27.33-6,54.4,11.14,60,40.1,1,5.46.21,11.3.13,17,0,3.27-2.32,3.73-4.89,3.32-7.52-1.2-15-2.92-22.57-3.6-4.15-.36-8.55.62-12.66,1.68-2.6.67-3.74.35-4.3-2.21-.9-4.17-1.61-7.62,3.62-10.29,7-3.56,9.42-11.95,7-19.51-1.92-6-9.41-11.37-15.74-11.32S84.54,31.05,82.74,37.45c-1.9,6.78,1.34,15.28,7.72,18.4,3.08,1.51,3.86,3.26,4.08,6.43C94.82,66.54,96,70.75,96.72,75c.2,1.12.57,2.54.09,3.38-4.91,8.58-1.34,17.14-.18,25.71C96.8,105.33,96.86,106.6,97,108.44Z" fill="#fff"/><path d="M78.59,115.29l8.27,2.38v5.56q0,46,.08,92c0,1.63-.06,3.58.77,4.76.6.84,2.84,1.17,4,.76a4.39,4.39,0,0,0,2.37-3.16c.3-4.48.2-9,.2-13.48q0-39.73,0-79.47a13.43,13.43,0,0,1,.08-3.48,9.43,9.43,0,0,1,1.68-2.51c.92.69,2.45,1.23,2.65,2.08,1.07,4.5,2,9.05,2.6,13.63,1.35,9.84,2,19.77,7.18,28.72.56,1-1.15,3.77-2.39,5.21-3.85,4.45-3.88,5.23.14,9.52,3,3.22,8,6.55,8.1,10,.14,3-5.06,6.44-8.21,9.34-3.63,3.35-3.76,6.17,0,9.54s7.08,7,10.58,10.6c3.77,3.84,3.85,6.59,0,10.08-4.83,4.33-9.86,8.43-14.73,12.72-2.12,1.87-3.77,1.94-6-.07-4.71-4.21-9.83-8-14.5-12.21-1.54-1.4-3.12-3.76-3.13-5.69-.18-34.65-.12-69.31-.1-104A28.38,28.38,0,0,1,78.59,115.29Z" fill="#fff"/><path d="M138.07,15.5c9.84-5.65,31-1.88,42.88,8.65,17.22,15.22,21.59,39.25,11.3,58.17-10.38-9-24-7.49-36.64-11.09,2.62-10.27,1.71-20.16-1.3-30S145.71,23.06,138.07,15.5Z" fill="#fff"/><path d="M100.64,34.2c-1.27,4.38-2.5,8.77-3.88,13.11-.19.62-1.37,1.52-1.68,1.38-1.14-.5-2.88-1.3-3-2.15-.34-3.14-1.1-6.84.18-9.37,1.09-2.15,4.78-3,7.31-4.41Z" fill="#fff"/><path d="M148.1,110.41l-13.19-3.89C141.21,102.74,144.5,103.63,148.1,110.41Z" fill="#fff"/><path d="M145.71,118.78c-6.32,3.18-9.74,2.31-12.37-3.25Z" fill="#fff"/><path d="M193.9,214.21c-1-.91-2.48-1.64-2.67-2.62-.28-1.48-.23-3.69.67-4.62,8.68-9,17.49-17.81,26.52-26.43.93-.89,4.29-.76,5.09.15s1.06,4.26.15,5.22c-8.6,9-17.47,17.82-26.33,26.61C196.57,213.27,195.33,213.52,193.9,214.21Z" fill="#8cc63f"/><path d="M169.57,193.91c-1.35-1.27-3.2-2.21-3.21-3.18,0-1.93.37-4.42,1.61-5.72,6.26-6.66,12.86-13,19.33-19.49,1.89-1.88,3.5-4.2,5.72-5.52,1.47-.87,3.79-.32,5.73-.4,0,2,.52,4.2-.19,5.89s-2.65,2.91-4.07,4.32q-10.59,10.58-21.22,21.11A46.82,46.82,0,0,1,169.57,193.91Z" fill="#8cc63f"/><path d="M181.9,205.24c-1.09-.82-2.69-1.47-3.24-2.61s-.49-3.22.25-4c6.08-6.34,12.31-12.56,18.75-18.54.7-.65,3.4,0,4.49.9.8.65,1.18,3.3.56,4-5.77,6.41-11.77,12.6-17.78,18.79C184.29,204.42,183.2,204.63,181.9,205.24Z" fill="#8cc63f"/><path d="M26.07,378.34A7.18,7.18,0,0,1,22,377.28q-1.62-1.08-2.56-4.36a38.13,38.13,0,0,1-.92-9.6,36.64,36.64,0,0,1,1.31-11.11c.88-2.6,2-4.33,3.25-5.21a7.47,7.47,0,0,1,4.37-1.33,5.67,5.67,0,0,1,3.26.73,2.13,2.13,0,0,1,1,1.77,4.28,4.28,0,0,1-.6,2.23,4.64,4.64,0,0,0-2.94-1.13,4.46,4.46,0,0,0-3,1.06,8.13,8.13,0,0,0-2.06,4.11,36.37,36.37,0,0,0-.79,8.7,32.91,32.91,0,0,0,.55,6.89,6.45,6.45,0,0,0,1.54,3.37,3.49,3.49,0,0,0,2.44.9,6.9,6.9,0,0,0,2.41-.42,6.38,6.38,0,0,0,1.81-1,5.32,5.32,0,0,1,.55,2.21,2.72,2.72,0,0,1-1.6,2.32A7.62,7.62,0,0,1,26.07,378.34Z"/><path d="M56.35,377.15a.69.69,0,0,1-.16.55,2.31,2.31,0,0,1-1,.16l-2.41,0V362.5H45.48v14.65a.73.73,0,0,1-.16.55,2.45,2.45,0,0,1-1.07.16l-2.44,0v-31c0-.27,0-.45.16-.53a2.11,2.11,0,0,1,1.06-.16c.6,0,1.42,0,2.45,0v12.93h7.26v-12.2c0-.27,0-.45.16-.53a2,2,0,0,1,1-.16c.58,0,1.4,0,2.42,0Z"/><path d="M64.07,374.57h7.79c0,.87,0,1.59,0,2.14a1.93,1.93,0,0,1-.17,1,.69.69,0,0,1-.53.18H60.43v-31a.92.92,0,0,1,.15-.44.57.57,0,0,1,.58-.29h10.9c0,.85,0,1.55,0,2.09a2.38,2.38,0,0,1-.16,1,.54.54,0,0,1-.49.19h-7.3v9.48h6.85q0,1.23,0,2a2.83,2.83,0,0,1-.16,1.06.5.5,0,0,1-.5.25H64.07Z"/><path d="M75.85,385a6,6,0,0,1-1.79-.18.82.82,0,0,1-.43-.85v-9.59h.77c.88,0,1.56-.57,2-1.71a32.9,32.9,0,0,0,1.33-7.52q.61-5.81,1.26-18.33a.9.9,0,0,1,.1-.53c.07-.1.31-.15.73-.16s1,0,1.65,0h9.17v28.29H93V384c0,.45-.15.73-.44.85a5.88,5.88,0,0,1-1.79.18,46,46,0,0,1-1.08-7.16H76.89A47,47,0,0,1,75.85,385ZM87,374.42V349.59H82.47q-.75,11.84-1.48,17.25t-1.92,7.58Z"/><path d="M95.81,347a.77.77,0,0,1,.27-.66,1.62,1.62,0,0,1,1-.21h4.48c5.07,0,7.62,2.33,7.62,7a8.93,8.93,0,0,1-1.35,5.3,4.53,4.53,0,0,1-3,2,6.09,6.09,0,0,1,3.73,1.58q1.62,1.43,1.62,5,0,5.45-2.43,8.11a8,8,0,0,1-6.2,2.68H95.81Zm6,12.1a2.8,2.8,0,0,0,2.41-1.31,6.75,6.75,0,0,0,.94-4,5,5,0,0,0-.94-3.51,3.21,3.21,0,0,0-2.46-1H99.53v9.74Zm-.19,15.55a3.57,3.57,0,0,0,3.06-1.78,10,10,0,0,0,1.21-5.46,8.36,8.36,0,0,0-.53-3.37,2.7,2.7,0,0,0-1.4-1.47,6.73,6.73,0,0,0-2.29-.33H99.53v12.41Z"/><path d="M113.5,346.86a.8.8,0,0,1,.12-.53c.1-.1.42-.15,1-.16s1.34,0,2.34,0v15.52q0,4.49-.41,9.43a54.94,54.94,0,0,1,1.88-5.5c.83-2.11,1.37-3.47,1.61-4.07l1-2.5,4.34-12a1.42,1.42,0,0,1,.46-.68,2.1,2.1,0,0,1,1-.19c.48,0,1.1,0,1.86,0v31a.61.61,0,0,1-.21.53,2.29,2.29,0,0,1-1,.18l-2.18,0V366.49q0-6.81.54-13.32-1.27,4.62-4.31,12.41L117,377a1.37,1.37,0,0,1-.44.67,2.18,2.18,0,0,1-1,.21l-2,0Z"/><path d="M133.81,378a2.88,2.88,0,0,1-1.24-.18q-.3-.17-.21-.69l1.26-8.84a13.91,13.91,0,0,1,1.27-4.57,6.34,6.34,0,0,1,2.45-2.77,5.08,5.08,0,0,1-1.61-1.62,9.45,9.45,0,0,1-1.1-2.7l-2.18-9.48a1,1,0,0,1,0-.4.5.5,0,0,1,.3-.5,2.84,2.84,0,0,1,1.06-.14,10.68,10.68,0,0,1,2.23.28l2,9.66a5.9,5.9,0,0,0,1.15,2.66,2.32,2.32,0,0,0,1.76.92h1.86V346.86c0-.27,0-.45.14-.53a2,2,0,0,1,1-.16c.57,0,1.36,0,2.35,0V359.6h1.86a2.28,2.28,0,0,0,1.7-.92A6,6,0,0,0,151,356l2.09-9.66a10,10,0,0,1,2.18-.28,2.94,2.94,0,0,1,1.1.14.51.51,0,0,1,.3.5,1.83,1.83,0,0,1,0,.4l-2.23,9.48a8.42,8.42,0,0,1-1.07,2.7,4.88,4.88,0,0,1-1.61,1.62,6.17,6.17,0,0,1,2.43,2.75,14.68,14.68,0,0,1,1.29,4.59l1.28,8.84c.05.35,0,.58-.23.69a2.83,2.83,0,0,1-1.23.18,23.11,23.11,0,0,1-2.35-.14l-1.23-9q-.72-5.9-3.72-5.9h-1.68v14.24a.69.69,0,0,1-.16.55,2.29,2.29,0,0,1-1,.16l-2.33,0v-15h-1.69q-3.08,0-3.72,5.9l-1.27,9A21.3,21.3,0,0,1,133.81,378Z"/><path d="M160.43,346.86a.74.74,0,0,1,.13-.53c.09-.1.41-.15,1-.16s1.35,0,2.34,0v15.52q0,4.49-.41,9.43a57.61,57.61,0,0,1,1.88-5.5c.84-2.11,1.37-3.47,1.61-4.07l1-2.5,4.34-12a1.42,1.42,0,0,1,.46-.68,2.13,2.13,0,0,1,1-.19c.49,0,1.11,0,1.86,0v31a.61.61,0,0,1-.21.53,2.27,2.27,0,0,1-1,.18l-2.18,0V366.49q0-6.81.53-13.32a130.82,130.82,0,0,1-4.31,12.41L163.92,377a1.3,1.3,0,0,1-.44.67,2.18,2.18,0,0,1-1,.21l-2,0Z"/><path d="M197.79,346.13v31a.69.69,0,0,1-.16.55,2.43,2.43,0,0,1-1.06.16l-2.5,0,.14-11.11q.09-3,.41-7.49t.46-6.17l-.78,2.73q-1.77,6.53-2.22,7.76l-2.4,7a.51.51,0,0,1-.5.35h-1.6l-2.35-7.33q-.58-1.77-2.91-10.26l0,.06q.12,1.39.44,5.81c.21,2.93.34,5.39.37,7.38l.09,10.56a.61.61,0,0,1-.21.55,2.62,2.62,0,0,1-1.06.16l-2.31,0v-31c0-.31.06-.5.18-.59a.89.89,0,0,1,.55-.14H183l4.36,13.79c.33,1,.63,2,.9,3l.55,2c.08-.36.25-1,.52-2s.52-1.93.79-2.9l4-13.2a1.89,1.89,0,0,1,.27-.57.61.61,0,0,1,.46-.16Z"/><path d="M209.35,378.34a7.43,7.43,0,0,1-4.84-1.44,8.82,8.82,0,0,1-2.55-5,48.11,48.11,0,0,1-.81-10.08,39,39,0,0,1,.92-9.53,9.5,9.5,0,0,1,2.83-5.09,7.7,7.7,0,0,1,4.95-1.54,7,7,0,0,1,4.71,1.49,8.86,8.86,0,0,1,2.52,4.92,45.08,45.08,0,0,1,.79,9.61,43.46,43.46,0,0,1-.88,9.85,9.67,9.67,0,0,1-2.73,5.21A7.3,7.3,0,0,1,209.35,378.34Zm.14-3.77a3.07,3.07,0,0,0,2.62-1.26,9.25,9.25,0,0,0,1.39-4,50.63,50.63,0,0,0,.44-7.49,55.27,55.27,0,0,0-.37-7.34,8.07,8.07,0,0,0-1.28-3.81,3,3,0,0,0-2.53-1.19,3.11,3.11,0,0,0-2.61,1.3,9.56,9.56,0,0,0-1.43,4.18,53.23,53.23,0,0,0-.44,7.81,50.41,50.41,0,0,0,.37,6.93,8.39,8.39,0,0,0,1.29,3.74A3.05,3.05,0,0,0,209.49,374.57Z"/><path d="M228.13,378.34a7.23,7.23,0,0,1-4.06-1.06q-1.6-1.08-2.55-4.36a38.13,38.13,0,0,1-.92-9.6,36.64,36.64,0,0,1,1.31-11.11c.88-2.6,2-4.33,3.24-5.21a7.53,7.53,0,0,1,4.38-1.33,5.67,5.67,0,0,1,3.26.73,2.13,2.13,0,0,1,1,1.77,4.28,4.28,0,0,1-.6,2.23,4.67,4.67,0,0,0-2.94-1.13,4.46,4.46,0,0,0-3,1.06,8,8,0,0,0-2.06,4.11,36.37,36.37,0,0,0-.79,8.7A32.91,32.91,0,0,0,225,370a6.45,6.45,0,0,0,1.54,3.37,3.49,3.49,0,0,0,2.44.9,6.9,6.9,0,0,0,2.41-.42,6.38,6.38,0,0,0,1.81-1,5.32,5.32,0,0,1,.55,2.21,2.72,2.72,0,0,1-1.6,2.32A7.62,7.62,0,0,1,228.13,378.34Z"/><path d="M251.25,346.13v2.68a.82.82,0,0,1-.18.62.89.89,0,0,1-.58.16H244.9v27.56a.69.69,0,0,1-.17.55,2.68,2.68,0,0,1-1.1.16l-2.39,0V349.59h-6.19v-2.73c0-.48.26-.73.78-.73Z"/><path d="M253.62,347c0-.31,0-.5.17-.59a2.46,2.46,0,0,1,1.07-.17c.59,0,1.4-.06,2.42-.06v12.93h2.54c2.69,0,4.61.66,5.77,1.95s1.76,3.37,1.76,6.2c0,3.37-.73,6-2.17,7.87a7,7,0,0,1-5.86,2.8h-5.7Zm5.61,27.7a3.12,3.12,0,0,0,3-1.64,12.26,12.26,0,0,0,.88-5.42,7.38,7.38,0,0,0-.76-4,3.07,3.07,0,0,0-2.73-1.1h-2.32v12.07A15.84,15.84,0,0,0,259.23,374.65Z"/><path d="M285.17,378.34a7.15,7.15,0,0,1-4.51-1.29,8.23,8.23,0,0,1-2.5-4.49,40.23,40.23,0,0,1-.92-9.07h-3.49v13.66a.79.79,0,0,1-.14.55,2.21,2.21,0,0,1-1,.16l-2.34,0v-31c0-.27.05-.45.16-.53a2,2,0,0,1,1-.16c.57,0,1.35,0,2.32,0v14h3.52a33.78,33.78,0,0,1,1-8.45,8.89,8.89,0,0,1,2.69-4.55,8.11,8.11,0,0,1,9.27.07,8.84,8.84,0,0,1,2.55,4.94,45,45,0,0,1,.8,9.59,43.37,43.37,0,0,1-.89,9.85,9.8,9.8,0,0,1-2.73,5.21A7.06,7.06,0,0,1,285.17,378.34Zm.09-3.77a3,3,0,0,0,2.55-1.26,9.16,9.16,0,0,0,1.35-4,54.32,54.32,0,0,0,.41-7.49,57.05,57.05,0,0,0-.37-7.34A8.57,8.57,0,0,0,288,350.6a2.94,2.94,0,0,0-2.52-1.21,2.9,2.9,0,0,0-2.43,1.3,10.07,10.07,0,0,0-1.36,4.21,57.4,57.4,0,0,0-.43,7.83,52.35,52.35,0,0,0,.36,6.93,8.3,8.3,0,0,0,1.26,3.74A2.87,2.87,0,0,0,285.26,374.57Z"/><path d="M0,293.28a1,1,0,0,1,.34-.85,2.1,2.1,0,0,1,1.29-.3H7.28a11.72,11.72,0,0,1,7.05,2q2.73,2,2.73,7.12a11.86,11.86,0,0,1-1.59,6.54,5.38,5.38,0,0,1-3.72,2.71q6.63.69,6.64,8.38,0,6.18-2.66,10t-8.15,3.79H0ZM7.69,308.1c.69,0,1.24-.51,1.65-1.51a10.7,10.7,0,0,0,.62-4,9.19,9.19,0,0,0-.54-3.84,1.62,1.62,0,0,0-1.5-1H6.54V308.1Zm.07,19c.92,0,1.65-.67,2.18-2a15.66,15.66,0,0,0,.81-5.62,16.4,16.4,0,0,0-.32-3.81,2.79,2.79,0,0,0-.92-1.68,2.9,2.9,0,0,0-1.64-.41H6.54v13.54Z" fill="#009245"/><path d="M30.93,333.2a8.9,8.9,0,0,1-5.51-1.56q-2.05-1.58-3.1-5.76a53.47,53.47,0,0,1-1-12.17q0-22.14,11.56-22.14c2.24,0,3.71.3,4.42.9a3.09,3.09,0,0,1,1.08,2.5,9.17,9.17,0,0,1-.92,3.88,5,5,0,0,0-3-1q-2.88,0-4.62,3.33t-1.74,12A50.26,50.26,0,0,0,28.5,321a8.24,8.24,0,0,0,1.44,3.92A3.4,3.4,0,0,0,32.61,326a9.72,9.72,0,0,0,4.52-.86,8.27,8.27,0,0,1,.87,3.75,3.51,3.51,0,0,1-1.9,3.16A10,10,0,0,1,30.93,333.2Z" fill="#009245"/><path d="M47.07,326.89h8.22c0,1.54,0,2.77-.07,3.7A4.39,4.39,0,0,1,55,332.3a.83.83,0,0,1-.76.31H40.65V293.28a1.61,1.61,0,0,1,.23-.7.93.93,0,0,1,.92-.45H55.69c0,1.47,0,2.67-.07,3.6a4.33,4.33,0,0,1-.28,1.75.9.9,0,0,1-.82.38H47.07v9.88h7c0,1.43,0,2.62-.06,3.56a5.78,5.78,0,0,1-.26,1.88.71.71,0,0,1-.71.46h-6Z" fill="#009245"/><path d="M66.26,293.28a1,1,0,0,1,.34-.85,2.1,2.1,0,0,1,1.29-.3h5.65a11.75,11.75,0,0,1,7.06,2q2.72,2,2.72,7.12a11.86,11.86,0,0,1-1.59,6.54A5.36,5.36,0,0,1,78,310.47q6.64.69,6.64,8.38,0,6.18-2.66,10c-1.77,2.53-4.49,3.79-8.14,3.79H66.26ZM74,308.1c.7,0,1.25-.51,1.65-1.51a10.7,10.7,0,0,0,.62-4,9.4,9.4,0,0,0-.53-3.84,1.64,1.64,0,0,0-1.51-1H72.8V308.1Zm.07,19c.92,0,1.65-.67,2.18-2a15.63,15.63,0,0,0,.82-5.62,17,17,0,0,0-.32-3.81,2.79,2.79,0,0,0-.92-1.68,3,3,0,0,0-1.65-.41H72.8v13.54Z" fill="#009245"/><path d="M88.18,293.23c0-.42.07-.69.23-.8a4.92,4.92,0,0,1,1.73-.23c1,0,2.38-.07,4.11-.07v16.25q0,4.69-.69,11.87c.61-2.4,1.54-5.43,2.77-9.09l.86-2.55,4.7-15a2,2,0,0,1,.6-1.1,2.56,2.56,0,0,1,1.33-.34c.64,0,1.88-.07,3.74-.07v39.39a.8.8,0,0,1-.36.78,5.31,5.31,0,0,1-1.82.26c-1,0-2.26.05-3.84.05V318.28c0-1.63.07-3.72.23-6.29s.34-4.82.58-6.78a76.67,76.67,0,0,1-3.3,12.31l-4.8,13.59a1.72,1.72,0,0,1-2,1.45c-.67,0-2,.05-4.07.05Z" fill="#009245"/><path d="M114.08,341.68a17.87,17.87,0,0,1-2.45-.12,1.53,1.53,0,0,1-1.08-.51,2.08,2.08,0,0,1-.28-1.21V326.61h1.1c1,0,1.76-.66,2.28-2s1-4.22,1.38-8.75.91-12.07,1.47-22.61a1.68,1.68,0,0,1,.24-.81c.11-.14.51-.23,1.18-.27s1.6-.07,2.75-.07h11.69v34.48h2.89v13.23a2,2,0,0,1-.3,1.21,1.49,1.49,0,0,1-1.07.51,18.49,18.49,0,0,1-2.51.12c-.53-2-.93-3.62-1.19-4.87a35.58,35.58,0,0,1-.55-4.2H115.88a29.59,29.59,0,0,1-.56,4C115.07,337.8,114.65,339.49,114.08,341.68ZM126,326.61V298.16h-3.32q-.8,12.07-1.57,18.53a46.25,46.25,0,0,1-2.06,9.92Z" fill="#009245"/><path d="M137.61,293.28a1,1,0,0,1,.27-.81,4.58,4.58,0,0,1,1.84-.27c1.07,0,2.5-.07,4.31-.07V308h1.73q5.16,0,7.32,2.52t2.18,8q0,6.76-2.73,10.41a8.48,8.48,0,0,1-7.16,3.63h-7.76ZM145.3,327a1.64,1.64,0,0,0,1.42-.66,5.37,5.37,0,0,0,.73-2.32,38.18,38.18,0,0,0,.23-4.82,21,21,0,0,0-.18-3.24,2.43,2.43,0,0,0-.64-1.47,2,2,0,0,0-1.43-.44H144v12.84A4.67,4.67,0,0,0,145.3,327Zm12.85-32a4.4,4.4,0,0,1,.32-2.08,1.82,1.82,0,0,1,1.47-.63c.76-.08,2.34-.13,4.74-.13v39.33q0,.65-.3.84a5.24,5.24,0,0,1-1.91.26c-1.08,0-2.52.05-4.32.05Z" fill="#009245"/><path d="M185.43,333.2a8.9,8.9,0,0,1-5.51-1.56q-2.05-1.58-3.1-5.76a53.36,53.36,0,0,1-1-12.17q0-22.14,11.57-22.14,3.36,0,4.41.9a3.07,3.07,0,0,1,1.09,2.5,9,9,0,0,1-.93,3.88,4.9,4.9,0,0,0-3-1c-1.92,0-3.47,1.11-4.62,3.33s-1.74,6.21-1.74,12A50.26,50.26,0,0,0,183,321a8.24,8.24,0,0,0,1.44,3.92,3.4,3.4,0,0,0,2.67,1.11,9.72,9.72,0,0,0,4.52-.86,8.27,8.27,0,0,1,.87,3.75,3.51,3.51,0,0,1-1.9,3.16A10,10,0,0,1,185.43,333.2Z" fill="#009245"/><path d="M198.09,341.68a17.7,17.7,0,0,1-2.44-.12,1.51,1.51,0,0,1-1.08-.51,2.07,2.07,0,0,1-.29-1.21V326.61h1.1c1,0,1.76-.66,2.29-2s1-4.22,1.38-8.75.9-12.07,1.47-22.61a1.59,1.59,0,0,1,.23-.81c.11-.14.51-.23,1.19-.27s1.6-.07,2.74-.07h11.69v34.48h2.89v13.23a2,2,0,0,1-.3,1.21,1.46,1.46,0,0,1-1.06.51,18.56,18.56,0,0,1-2.52.12c-.53-2-.93-3.62-1.18-4.87a33.6,33.6,0,0,1-.55-4.2H199.9a29.49,29.49,0,0,1-.57,4Q199,338.39,198.09,341.68ZM210,326.61V298.16h-3.31q-.79,12.07-1.58,18.53a46.34,46.34,0,0,1-2,9.92Z" fill="#009245"/><path d="M228,326.89h8.22c0,1.54,0,2.77-.07,3.7a4.39,4.39,0,0,1-.27,1.71.82.82,0,0,1-.76.31H221.58V293.28a1.49,1.49,0,0,1,.23-.7.93.93,0,0,1,.92-.45h13.89c0,1.47,0,2.67-.07,3.6a4.46,4.46,0,0,1-.29,1.75.87.87,0,0,1-.81.38H228v9.88h7c0,1.43,0,2.62,0,3.56a6,6,0,0,1-.27,1.88.71.71,0,0,1-.71.46h-6Z" fill="#009245"/><path d="M241,333.25a3.63,3.63,0,0,1-2.7-1,4,4,0,0,1-1-3,10.25,10.25,0,0,1,.13-1.28c1.46,0,2.55-1.05,3.26-3.17a43.77,43.77,0,0,0,1.57-9.69q.54-6.53,1.12-21.08a1.51,1.51,0,0,1,1.74-1.76,31.92,31.92,0,0,1,3.81-.16h10.29v39.33q0,.65-.3.84a5,5,0,0,1-1.85.26c-1,0-2.46.05-4.27.05V298.16h-3.36q-.52,12.58-1.47,20.18t-2.61,11.24C244.21,332,242.75,333.25,241,333.25Z" fill="#009245"/><path d="M272.52,333.2a9.71,9.71,0,0,1-6.18-1.74q-2.2-1.72-3.23-6.23a64.25,64.25,0,0,1-1-13.08,50.21,50.21,0,0,1,1.19-12.26c.79-3,2-5.14,3.58-6.41a9.77,9.77,0,0,1,6.29-1.91,9.31,9.31,0,0,1,6.06,1.79q2.19,1.78,3.2,6.18a57.6,57.6,0,0,1,1,12.36,54.47,54.47,0,0,1-1.17,12.74q-1.15,4.62-3.49,6.59A9.44,9.44,0,0,1,272.52,333.2Zm.34-6.66a2.36,2.36,0,0,0,2.19-1.44,12.55,12.55,0,0,0,1.05-4.48c.18-2,.28-4.85.28-8.47s-.07-6.56-.19-8.45a10.61,10.61,0,0,0-.93-4.16,2.42,2.42,0,0,0-4.39.14,13.8,13.8,0,0,0-1.1,4.77q-.31,3.29-.32,9.14c0,3.28.08,5.83.25,7.63a10.92,10.92,0,0,0,1,4A2.34,2.34,0,0,0,272.86,326.54Z" fill="#009245"/><path d="M302.53,332.74c-1.39,0-2.9-.06-4.52-.18L297.43,322a19.69,19.69,0,0,0-.69-4.75,4,4,0,0,0-1.28-2.13,3.1,3.1,0,0,0-1.84-.53H293v16.83q0,.65-.3.84a5.11,5.11,0,0,1-1.88.26c-1.05,0-2.5.05-4.35.05V293.28a.93.93,0,0,1,.28-.81,4.89,4.89,0,0,1,1.88-.27c1.06,0,2.52-.07,4.37-.07v16.32h.92a2.31,2.31,0,0,0,1.76-1.05,6.56,6.56,0,0,0,1.2-3l1.79-11.85a19.32,19.32,0,0,1,4.11-.46,6.65,6.65,0,0,1,2.13.23.9.9,0,0,1,.58.92,1.35,1.35,0,0,1-.05.46l-2.27,11.75a8,8,0,0,1-3.17,5.37q3.88,2.26,4.52,10.41l.69,10.17a1,1,0,0,1-.48,1.08A5.57,5.57,0,0,1,302.53,332.74Z" fill="#009245"/></g></g></svg>