<svg xmlns="http://www.w3.org/2000/svg" viewBox="0 0 296.42 359.08"><g id="Слой_2" data-name="Слой 2"><g id="Слой_1-2" data-name="Слой 1"><path d="M266.82,54.35c-8-4.08-16-8-24.29-11.55-4.09-1.75-5.75-3.85-5.55-8.48.42-9.65,0-19.33.15-29,.05-3.76-1.21-5.51-5.22-5.32-5,.25-10,0-15,.09C206.85.28,207.78-2,207.7,9.39c0,5.19,0,10.38,0,16.17-2.09-.75-3-1-3.9-1.4-16.21-7.7-32.36-15.55-48.69-23a11.22,11.22,0,0,0-8.24.07c-12.76,5.69-25.31,11.82-37.92,17.83Q72.47,36.47,36,53.93c-7.77,3.74-11,12.4-7.74,19.67C31.77,81.25,39.57,84.06,48,80.69L54,78.24v6.64q0,69,0,138c0,7.23,0,7.24,7.11,7.24H241.61c6.32,0,6.71-.38,6.91-6.78,0-1.67.07-3.34.07-5q0-67,0-134c0-1.72.14-3.44.23-5.52,3.61,1.25,6.46,2.77,9.46,3.18,7.67,1,14-3.58,16.48-11.45C276.55,64.92,273.18,57.59,266.82,54.35ZM213.64,6.06c5,0,9.56-.16,14.12.13A3.93,3.93,0,0,1,230.32,9c.2,8.77.11,17.55.11,27.66-5.89-2.75-10.56-4.82-15.11-7.13a3.64,3.64,0,0,1-1.6-2.72C213.58,20.17,213.64,13.53,213.64,6.06Zm22.41,218c-28.5-.12-57-.07-85.5-.07-28.33,0-56.66-.08-85,.09-4.35,0-5.73-1.23-5.71-5.65q.23-69.26,0-138.5c0-3.52,1-5.44,4.18-6.93,27.8-13.11,55.52-26.4,83.36-39.44a9.13,9.13,0,0,1,6.85-.15c28,13.13,55.8,26.53,83.72,39.74,2.66,1.26,3.63,2.78,3.63,5.7q-.13,70,0,140C241.65,223.34,240,224.11,236.05,224.09ZM255.58,74.18C247.07,70,238.49,66,229.94,61.9c-24.72-11.79-49.47-23.53-74.13-35.45a10.29,10.29,0,0,0-9.87.11Q96.55,50.33,47,73.84c-5.62,2.69-10.67,1.43-12.84-3.16-2-4.32.1-8.74,5.75-11.44Q93.72,33.58,147.56,8.11a9.78,9.78,0,0,1,7.34.21q53.43,25.17,106.67,50.73c3.48,1.67,7.05,3.49,6.26,8.27C269.09,73.27,262.11,77.39,255.58,74.18Z" fill="#006837"/><path d="M207.5,265.36c-1-4.29-4.55-6.15-10.16-5.8-4.87.31-8.11,3.39-8.43,9.31-.42,7.56-.29,15.16-.07,22.73a8.83,8.83,0,0,0,7.77,8.9c5.47.61,9.71-2,10.9-7.22,1.05-4.65,1.51-9.43,2.26-14.29C209,274.43,208.5,269.84,207.5,265.36Zm-6.2,25.09c0,1.06-2.1,2-3.23,3.06-.74-1.12-2.12-2.24-2.13-3.38-.1-7.19,0-14.4.3-21.59,0-1.06,1.25-2.07,2.47-4,1.39,2,2.74,3,2.76,4.11C201.62,276,201.63,283.21,201.3,290.45Z" fill="#009245"/><path d="M96.6,266.13c-.14-4.3-3.12-6.52-7.77-6.68-5-.17-8.73,1.29-9.87,6.28-1.1,4.78-1.42,9.73-2.08,14.61l.68.07c0,3.49-.19,7,0,10.46.38,5.48,3.62,9.12,8.24,9.65,4.86.56,10-1.9,10.37-6.4A244.24,244.24,0,0,0,96.6,266.13Zm-6.11,24c-.13,1.17-1.79,2.18-2.75,3.26-1-1-2.76-2-2.8-3.11-.27-6.8-.35-13.63,0-20.43.07-1.4,2.21-2.69,3.39-4,.79,1.46,2.08,2.86,2.25,4.4a82.84,82.84,0,0,1,.11,9.46h-.06A98.34,98.34,0,0,1,90.49,290.16Z" fill="#009245"/><path d="M118.42,297.48c0,.87-2.14,1.7-3.28,2.54-.82-1.16-2.32-2.32-2.34-3.5-.21-8.83-.08-17.66-.18-26.5,0-1.89,1.14-4.8-2.55-4.71-3.46.09-2.57,2.71-2.57,4.79,0,8.5,0,17,0,25.5,0,2.34-.19,4.28-3.32,4.44-3.38.16-3.25-2-3.25-4.24,0-11.8,0-23.61,0-36h17.67C118.57,272.59,118.64,285,118.42,297.48Z" fill="#009245"/><path d="M184.32,295.61c0,1.4-1.62,3.62-2.87,3.94-3,.76-2.84-1.84-2.84-3.86,0-4.47,0-8.95,0-14h-5.93c0,4.52,0,8.93,0,13.35,0,2.06.58,4.55-2.86,4.68s-3-2.27-3-4.41c0-11.64,0-23.27,0-35.34l5.92-.48c0,4.16.22,7.93,0,11.67-.33,4.44,1.66,5.22,5.94,3.9V259.78h5.56c.11,2,.3,3.93.31,5.84C184.46,275.62,184.56,285.62,184.32,295.61Z" fill="#009245"/><path d="M35.78,281.11c-1.66-5.5-6.25-5.57-10.7-5.75V265.25c2.62,0,5,.3,7.17-.13a3.9,3.9,0,0,0,2.47-2.8c.06-.87-1.52-2.57-2.46-2.63-4.24-.29-8.52-.13-13.34-.13,0,12.84-.06,25.08.11,37.32a3.79,3.79,0,0,0,2.56,2.7c4.24.19,9,.87,11.81-3.34A17.1,17.1,0,0,0,35.78,281.11Zm-10.58,13V281c1.53,1.17,3.26,1.81,3.46,2.77C29.43,287.56,29.81,291.48,25.2,294.15Z" fill="#009245"/><path d="M137,262.75c-.33-1.28-2.34-2.54-3.81-2.93-.64-.17-2.41,1.73-2.74,2.95-2.88,10.68-5.64,21.4-8.16,32.16-.32,1.36.93,3.09,1.45,4.64,1.65-1.19,4.35-2.09,4.77-3.62.38-1.38.67-2.48,1-3.33q.15-.44.3-.78a4.2,4.2,0,0,1,.46-.82,1.43,1.43,0,0,1,.22-.26,1.94,1.94,0,0,1,.8-.53c1.09-.38,2.79-.05,5.88.6.81,2.83,1.62,5.67,2.55,8.9l6.1-.42C142.72,286.45,140,274.56,137,262.75Zm-3,9.86c.68,4.25,1.23,7.74,1.85,11.61C130.44,284.36,130.18,282.77,134,272.61Z" fill="#009245"/><path d="M268.39,278.85c-.07-1.13-2.93-2.3-4.67-3-1.27-.53-2.83-.38-4.73-.58V259.87h-6.17c0,12.46-.11,24.42.15,36.38,0,1.19,2.19,3.24,3.5,3.36,4.54.41,10,.25,11.35-4.86S268.72,284.15,268.39,278.85Zm-8.68,15.57V281C262.93,284.76,262.81,291.06,259.71,294.42Z" fill="#009245"/><path d="M72.46,297c-2.61,4-7,4.2-11.15,3.23-4-.91-6-3.28-4-8,7.34,3.44,9.78,2.8,10.89-2.8.68-3.45-.12-6.42-4.23-7-3.2-.48-5-1.71-2.87-4.52,1.82-1.83,4.37-3.38,5.23-5.59.68-1.73-.26-4.62-1.45-6.3-.53-.75-3.46.2-6.14.46-.22-.75-1.4-2.61-.89-3.44.91-1.48,2.73-3.14,4.34-3.33,10.64-1.3,12.31,3.94,10.24,13.52a10.57,10.57,0,0,0,.81,7.75A15.88,15.88,0,0,1,72.46,297Z" fill="#009245"/><path d="M119,350.93c-3.42,1.5-4.78,1-4.93-2.43a38,38,0,0,0-1.52-8.78c-.34-1.17-1.86-2-2.84-3l-1.38.62c0,3.75.11,7.52-.07,11.27,0,1.06-1,2.07-1.49,3.1-.7-1.06-1.86-2.07-2-3.2-.3-2.46.15-5-.17-7.47-.17-1.35-1.26-2.58-1.94-3.86-1,1.27-2.55,2.4-3,3.85-.87,2.82-1.06,5.84-1.73,8.74-.18.74-1.08,1.3-1.65,1.95-.52-.84-1.6-1.8-1.46-2.51.83-4.31,2.39-8.52,2.79-12.84.26-2.79-1.12-5.72-1.62-8.61-.45-2.52-.7-5.08-1-7.62,5.91,3,2.15,10.7,9,13.59.59-4.94,1.11-9.31,1.63-13.68l2.27.11c.28,4.26.56,8.52.87,13.26,7.52-1.64,2.42-11.53,9.58-13.29C113.15,330.67,115.94,340.84,119,350.93Z"/><path d="M50.47,299.78c-11,1-11,1.07-11-9.93v-30H53.63V265l-7.84.55v9.75l6.52.68c.08,1.66.16,3.23.25,5.1l-6.89.74v12.45l7.84.38C54.45,297.71,54.15,299.45,50.47,299.78Z" fill="#009245"/><path d="M163.05,293.06c1.52,3.45.45,5.55-2.45,6.68-3.84,1.49-7.62,1.37-10.42-2.08-4.48-5.51-3.31-30,1.42-35.46,2.85-3.29,6.6-3.13,10.08-2.31,1.21.28,1.81,3.12,2.69,4.79-6.27-.29-9,2.15-9.52,6.84a98.78,98.78,0,0,0-1,15.26C154.05,292.35,157.69,294.33,163.05,293.06Z" fill="#009245"/><path d="M218.08,275.21a93.36,93.36,0,0,0,0,11c.27,4,1,7.73,6.61,7.05a3.59,3.59,0,0,1,3,1.74,4.22,4.22,0,0,1-1.06,3.43c-4.09,4.49-12.31,2.34-13.77-4.08-2.14-9.46-2.26-19.12,1-28.46,1.6-4.59,5-6.67,10-6.4,3.9.21,4.81,2,4.24,5.73C221.15,265.37,218.43,268.16,218.08,275.21Z" fill="#009245"/><path d="M71.62,352.57C71.13,345,70.27,337.52,70.1,330c-.22-10.45,0-10.46-10.52-9.31-.26,0-.5.38-1.08.85-.5,6.13-.8,12.59-1.66,19a22.93,22.93,0,0,1-3,8.12c-2.08,3.62-1.15,6.9-.67,10.31l1.63.17c.4-2.25.8-4.5,1.24-7H68c.8,2.27,1.52,4.29,2.24,6.32l1.41-.4C71.64,356.18,71.74,354.37,71.62,352.57Zm-5.88-3.92H59c.81-7.71,1.54-15.19,2.47-22.65a2.87,2.87,0,0,1,2.1-1.88,2.83,2.83,0,0,1,2,2C65.79,333.51,65.74,340.93,65.74,348.65Z"/><path d="M163.54,348.58c0,1.07-1.31,2.12-2,3.17-.67-1.06-1.86-2.11-1.9-3.19-.2-5.12-.09-10.25-.09-16.69-4.25,7.14-4.94,15.05-9.52,20.54-.74-.37-1.48-.74-2.21-1.12,0-9.28-.07-18.57.1-27.85,0-1,1.38-2.06,2.12-3.09.64,1,1.79,2,1.84,3,.2,4.14,0,8.3.07,12.46a6.3,6.3,0,0,0,1.15,3.88c2.06-5.41,4-10.85,6.24-16.2.48-1.17,1.76-2,2.67-3,.55,1.22,1.57,2.43,1.59,3.66C163.72,332.29,163.72,340.44,163.54,348.58Z"/><path d="M242.93,265.71v25.37c0,1.83.38,3.79-.15,5.45-.43,1.34-2,2.33-3,3.48-1-1.18-2.79-2.32-2.83-3.53-.26-8-.15-16-.16-24v-6.71c-1.69-.21-3.16,0-4.2-.62a5.59,5.59,0,0,1-2.63-3.1c-.14-.61,1.66-2.39,2.63-2.43,5.63-.23,11.28-.11,17.44-.11v5.36Z" fill="#009245"/><path d="M137.39,348.34c0,1.13-1.17,2.24-1.8,3.37-.67-1.08-1.9-2.13-1.94-3.22-.19-6.12-.09-12.25-.09-18.13-2.25,5.71-4.63,12-7.22,18.13-.53,1.25-1.89,2.14-2.86,3.2-.54-1.39-1.51-2.78-1.54-4.18-.12-7.81-.11-15.64.12-23.45,0-1.27,1.38-2.51,2.12-3.76.52,1.25,1.44,2.49,1.49,3.75.17,5.1.07,10.22.07,15.32l1.18.29c2.08-5.5,4.08-11,6.33-16.47.46-1.11,1.85-1.82,2.82-2.72.46,1.14,1.31,2.27,1.33,3.42C137.52,332,137.54,340.19,137.39,348.34Z"/><path d="M14.55,329.59q0,10.49-.11,21a13.84,13.84,0,0,1-1.19,2.56c-1.11-2.37-2.21-3.67-2.25-5-.2-6.32-.34-12.66,0-19,.22-4.63-1.51-6.1-6.47-4.74v27l-1.66.87C1.91,351.11.2,350,.17,348.87c-.22-8.31-.26-16.65,0-25,.05-1.3,2-3.42,3.37-3.64C13.88,318.6,14.57,319.29,14.55,329.59Z"/><path d="M188.56,348.45c-.05,1.14-1.54,2.22-2.37,3.33-.58-1.16-1.63-2.3-1.67-3.47-.21-7.8-.2-15.61-.28-23.42,0-.13-.19-.26-.51-.68h-5.34V346a12.7,12.7,0,0,1-.15,4,3.48,3.48,0,0,1-2.37,1.68c-.41.08-1.58-1.19-1.59-1.86-.1-9-.14-18,.06-26.94,0-.92,1.7-1.84,2.67-2.7.19-.16.64,0,1,0,13.1,0,10.42-1.12,10.67,9.89C188.8,336.14,188.8,342.31,188.56,348.45Z"/><path d="M49.62,325.66c-.68-3.76-2.81-5.86-6.72-6-4.2-.19-7.18,2.37-7.5,5.86a127.43,127.43,0,0,0,.05,21.13c.24,3.23,2.58,5.29,6.58,5.32s6.39-1.79,7.3-5.27c1-3.81,1.34-7.79,2-11.85C50.76,331.77,50.18,328.72,49.62,325.66Zm-3.94,19.86c-.33,1.19-2.24,2.5-3.57,2.68-.87.11-2.86-1.69-2.88-2.67-.13-6.61,0-13.24.44-19.85,0-.71,2.4-2,3.34-1.76a5.1,5.1,0,0,1,3.25,3c.61,2.87.46,5.9.69,10.27A56,56,0,0,1,45.68,345.52Z"/><path d="M207.71,335.41a70.59,70.59,0,0,0-.08-9c-.45-3.49-2.16-6.35-6.16-6.77s-6.75,1.1-8.08,5c-2.47,7.31-2.75,14.73-.09,21.91.79,2.13,3.45,4.24,5.71,5,3.57,1.18,6.75-.59,7.67-4.41s1.13-7.82,1.65-11.73ZM203.43,345c-.07,1.18-2.42,3.24-3.45,3.09a5.2,5.2,0,0,1-3.5-3.43c-.55-2.86-.17-5.9-.17-8.87l-.62-.06a71.41,71.41,0,0,1,1.54-9.62c.29-1,2.31-2.13,3.59-2.18a3.76,3.76,0,0,1,2.7,2.54C203.75,332.68,203.8,338.88,203.43,345Z"/><path d="M296.42,320.33v31.35l-1.83.07v-20.5c-4.53,6.76-5.87,14.55-10.23,20.82l-1.25-.53v-31.1l1.43-.07c2.25,6.62,0,13.7,1.49,21.88,3.26-8.29,6-15.33,8.79-22.38Z"/><path d="M260.49,348.38c0,1.12-1.14,2.21-1.75,3.31-.49-1.08-1.39-2.15-1.42-3.24-.13-6.33-.07-12.66-.06-19,0-5.82-.19-6-6.9-4.93,0,7.68.08,15.46-.08,23.23,0,1.34-1.08,2.65-1.65,4-.74-1.22-2.07-2.42-2.1-3.65-.18-7.82,0-15.65-.09-23.48,0-3.48,1.51-4.87,4.85-4.56h.5c8.78-.25,8.78-.25,8.78,8.35C260.57,335.07,260.66,341.73,260.49,348.38Z"/><path d="M84,319.92,82,319.64c-4,10.19-5.74,21.06-8.75,31.75,4,1.1,4.16-1.1,4.44-3.61.32-2.88,2.11-4.24,5.18-4.09,2.87.13,4.68.84,5,4.18.14,1.52,1.56,2.93,2.4,4.39l1.92-1.2Zm-3.89,19.9,1.94-12.24.85-.17c.81,4,1.63,7.91,2.55,12.41Z"/><path d="M225.68,352.26c-4.81-1.76-4.57-5-4.68-8-.13-3.4-.49-6.57-6.09-7.42v15l-2-.1V320.5l1.55-.24c.21,2,.5,4,.6,6s0,4.27,0,7.41c8-2,3.83-11.1,10.5-13.31-.5,2.44-.59,5.06-1.58,7.29-2.26,5.15-1.38,9.86.53,14.88C225.61,345.26,225.3,348.5,225.68,352.26Z"/><path d="M278.82,351.24l-2.52.85c-.83-2.09-1.8-4.14-2.43-6.28s-.71-4.54-1.52-6.65c-.35-.91-1.9-1.35-2.91-2-.54,1-1.48,2.05-1.53,3.11-.19,3.76-.08,7.54-.08,12.57-3.74-3.79-3.84-29.2-.38-33.6.25,5.28.45,9.52.65,13.9,4.95.35,4.53-3.53,5.54-6s1.55-5,3.16-7.23c2,5.5-.48,10.09-1.91,13.69C276.33,340.06,277.57,345.65,278.82,351.24Z"/><path d="M30.29,323.63c-1.84-2.3-6.25-2.54-9.49-3.72-.69,2.11-1.9,4.21-2,6.35-.24,7.12-.1,14.26,0,21.38a28.08,28.08,0,0,0,.66,4.24l2.1-.22V339.3C30.94,337.52,35.24,329.8,30.29,323.63Zm-2.55,6.77c-.1,4.34-.72,4.86-5.59,5V323.57C28.66,322.92,27.82,327,27.74,330.4Z"/><path d="M244.09,319.63c-2,9-3.63,17.49-5.81,25.85-.6,2.3-2.52,4.42-4.32,6.13-.5.48-2.69-.81-4-1.75,4.62-1.88,5.28-3.73,3.73-8.86-1.9-6.28-3.55-12.64-5.24-19a5,5,0,0,1,.22-1.89l1.68-.58c4.11,5.83,4.07,13.08,6,21.3.93-5.12,1-9.11,2.47-12.56C240,325.45,238.18,320.27,244.09,319.63Z"/><path d="M241.62,78.88c0-2.92-1-4.44-3.63-5.7C210.07,60,182.23,46.57,154.27,33.44a9.13,9.13,0,0,0-6.85.15C119.58,46.63,91.86,59.92,64.06,73c-3.16,1.49-4.19,3.41-4.18,6.93q.18,69.24,0,138.5c0,4.42,1.36,5.68,5.71,5.65,28.33-.17,56.66-.08,85-.09,28.5,0,57-.05,85.5.07,3.91,0,5.6-.75,5.59-5.21Q241.42,148.88,241.62,78.88Zm-41.28,63.51c-.45,10.75-4.18,20.72-11.92,28.76q-16.6,17.25-33.15,34.57c-2.25,2.36-4.64,3.66-7.24.95-12.56-13.06-25.3-26-37.39-39.44a33.38,33.38,0,0,1-8.3-22.9c0-7.82,0-15.64,0-23.47h-.12c0-8.65-.21-17.32.15-26a8.24,8.24,0,0,1,3.3-5.86q20.88-12.6,42.18-24.51a7.46,7.46,0,0,1,6.2,0q21.76,12.17,43.18,24.93A7.62,7.62,0,0,1,200.38,95C200.63,110.77,201,126.61,200.34,142.39Z" fill="#fff"/><path d="M267.83,67.33c1.27,6-5.72,10.06-12.25,6.86C247.07,70,238.49,66,229.94,61.91c-24.72-11.8-49.46-23.54-74.12-35.45a10.29,10.29,0,0,0-9.88.1Q96.55,50.33,47,73.85c-5.63,2.68-10.68,1.42-12.84-3.17-2-4.32.1-8.74,5.75-11.43Q93.71,33.59,147.57,8.11a9.73,9.73,0,0,1,7.34.22q53.42,25.16,106.66,50.73C265.06,60.72,268.63,62.54,267.83,67.33Z" fill="#fff"/><path d="M230.44,36.65c-5.9-2.75-10.57-4.82-15.11-7.13a3.66,3.66,0,0,1-1.61-2.71c-.14-6.64-.07-13.28-.07-20.74,5,0,9.55-.17,14.12.13A3.89,3.89,0,0,1,230.32,9C230.52,17.77,230.44,26.54,230.44,36.65Z" fill="#fff"/><path d="M198.71,264.6c1.4,2,2.74,3,2.76,4.1.15,7.25.16,14.51-.16,21.75-.05,1.07-2.11,2.05-3.23,3.07-.75-1.13-2.12-2.25-2.14-3.38-.09-7.2,0-14.41.31-21.6C196.29,267.49,197.49,266.48,198.71,264.6Z" fill="#fff"/><path d="M90.63,279.71a98.3,98.3,0,0,1-.14,10.45c-.12,1.18-1.79,2.18-2.75,3.26-1-1-2.76-2-2.8-3.11-.27-6.8-.35-13.63,0-20.42.07-1.4,2.2-2.7,3.39-4,.78,1.46,2.07,2.87,2.25,4.4a85.21,85.21,0,0,1,.1,9.46Z" fill="#fff"/><path d="M25.21,294.16V281c1.53,1.17,3.26,1.82,3.45,2.77C29.43,287.56,29.81,291.49,25.21,294.16Z" fill="#fff"/><path d="M135.85,284.22c-5.41.14-5.67-1.45-1.85-11.6C134.68,276.87,135.23,280.35,135.85,284.22Z" fill="#fff"/><path d="M259.72,294.42V281C262.93,284.77,262.81,291.07,259.72,294.42Z" fill="#fff"/><path d="M65.74,348.65H59c.81-7.71,1.54-15.19,2.47-22.65a2.9,2.9,0,0,1,2.11-1.88,2.89,2.89,0,0,1,2,2C65.8,333.51,65.74,340.94,65.74,348.65Z" fill="#fff"/><path d="M47,337.2a55.66,55.66,0,0,1-1.26,8.32c-.34,1.2-2.24,2.51-3.57,2.68-.88.11-2.87-1.69-2.89-2.66-.12-6.62,0-13.25.44-19.85,0-.71,2.4-2,3.34-1.76a5,5,0,0,1,3.25,3C46.87,329.8,46.72,332.82,47,337.2Z" fill="#fff"/><path d="M195.69,335.77a74.58,74.58,0,0,1,1.54-9.61c.3-1.05,2.32-2.14,3.59-2.19a3.76,3.76,0,0,1,2.7,2.55c.23,6.17.28,12.37-.09,18.53-.07,1.17-2.41,3.23-3.45,3.09a5.27,5.27,0,0,1-3.5-3.43c-.54-2.87-.16-5.91-.16-8.88Z" fill="#fff"/><path d="M85.5,339.82H80.16l1.94-12.23.85-.17C83.76,331.37,84.57,335.32,85.5,339.82Z" fill="#fff"/><path d="M22.15,323.57c6.51-.65,5.67,3.43,5.59,6.83-.1,4.34-.72,4.86-5.59,5Z" fill="#fff"/><path d="M200.38,95a7.62,7.62,0,0,0-3.14-5.48Q175.83,76.7,154.06,64.55a7.46,7.46,0,0,0-6.2,0Q126.59,76.46,105.68,89a8.24,8.24,0,0,0-3.3,5.86c-.36,8.64-.15,17.31-.15,26h.12c0,7.83,0,15.65,0,23.47a33.38,33.38,0,0,0,8.3,22.9c12.09,13.48,24.83,26.38,37.39,39.44,2.6,2.71,5,1.41,7.24-.95q16.51-17.34,33.15-34.57c7.74-8,11.47-18,11.92-28.76C201,126.61,200.63,110.77,200.38,95Zm-7.26,50.69a30.07,30.07,0,0,1-8.51,19.75c-10.89,11.63-22.07,23-34.56,35.93-3.08-3.78-5.62-7.26-8.54-10.4q-11-11.9-22.36-23.53c-7.44-7.68-10.74-17-10.81-27.5-.1-13.15.15-26.31-.15-39.46-.09-4.14,1-6.42,4.78-8.45,11.69-6.32,23.15-13.07,34.6-19.83,2.45-1.45,4.25-1.6,6.79-.09,12,7.12,24.19,13.93,36.17,21.08a6.27,6.27,0,0,1,2.59,4.55C193.31,113.68,193.54,129.68,193.12,145.65Z" fill="#8cc63f"/><path d="M193.12,97.7a6.27,6.27,0,0,0-2.59-4.55c-12-7.15-24.17-14-36.17-21.08-2.54-1.51-4.34-1.36-6.79.09C136.12,78.92,124.66,85.67,113,92c-3.75,2-4.87,4.31-4.78,8.45.3,13.15,0,26.31.15,39.46.07,10.52,3.37,19.82,10.81,27.5s15,15.6,22.36,23.53c2.92,3.14,5.46,6.62,8.54,10.4,12.49-12.94,23.67-24.3,34.56-35.93a30.07,30.07,0,0,0,8.51-19.75C193.54,129.68,193.31,113.68,193.12,97.7Zm-16.64,21.18c-9.94,10-20,20-29.88,30-2.93,3-5.38,3.18-8.36-.07-4.27-4.64-9-8.83-13.23-13.53-1.13-1.26-.94-3.7-1.35-5.59,2,.39,4.56.14,6,1.28a92.41,92.41,0,0,1,9.93,9.76c2.19,2.41,3.73,2.41,6,.05q13.4-13.73,27.15-27.1a6.35,6.35,0,0,1,4.19-1.6c.76,0,1.49,1.78,2.45,3A39.51,39.51,0,0,1,176.48,118.88Z" fill="#fff"/><path d="M179.38,115.15a43,43,0,0,1-2.89,3.74c-10,10-20,20-29.89,30-2.93,3-5.37,3.18-8.35-.06-4.27-4.65-9-8.84-13.24-13.54-1.12-1.26-.93-3.69-1.34-5.59,2,.39,4.55.15,6,1.29a90.67,90.67,0,0,1,9.94,9.76c2.18,2.4,3.72,2.4,6,0q13.41-13.73,27.15-27.11a6.35,6.35,0,0,1,4.19-1.6C177.7,112.13,178.43,113.9,179.38,115.15Z" fill="#8cc63f"/></g></g></svg>