<svg xmlns="http://www.w3.org/2000/svg" viewBox="0 0 298.82 360.35"><g id="Слой_2" data-name="Слой 2"><g id="Слой_1-2" data-name="Слой 1"><path d="M255.73,54.35c-8-4.08-16-8-24.29-11.55-4.09-1.75-5.75-3.85-5.55-8.48.42-9.65,0-19.33.15-29,.05-3.76-1.21-5.51-5.22-5.32-5,.25-10,0-15,.09-10.06.18-9.13-2.08-9.21,9.29,0,5.19,0,10.38,0,16.17-2.09-.75-3-1-3.9-1.4-16.21-7.7-32.36-15.55-48.69-23a11.22,11.22,0,0,0-8.24.07C123,6.94,110.46,13.07,97.85,19.08Q61.39,36.47,24.94,53.93c-7.77,3.74-11,12.4-7.74,19.67,3.48,7.65,11.28,10.46,19.66,7.09L43,78.24v6.64q0,69,0,138c0,7.23,0,7.24,7.11,7.24H230.52c6.32,0,6.71-.38,6.91-6.78,0-1.67.07-3.34.07-5q0-67,0-134c0-1.72.14-3.44.23-5.52,3.61,1.25,6.46,2.77,9.46,3.18,7.67,1,14-3.58,16.48-11.45C265.46,64.92,262.09,57.59,255.73,54.35ZM202.55,6.06c5,0,9.56-.16,14.12.13A3.93,3.93,0,0,1,219.23,9c.2,8.77.11,17.55.11,27.66-5.89-2.75-10.56-4.82-15.11-7.13a3.64,3.64,0,0,1-1.6-2.72C202.49,20.17,202.55,13.53,202.55,6.06Zm22.41,218c-28.5-.12-57-.07-85.5-.07-28.33,0-56.66-.08-85,.09-4.35,0-5.73-1.23-5.71-5.65Q49,149.2,48.79,80c0-3.52,1-5.44,4.18-6.93,27.8-13.11,55.52-26.4,83.36-39.44a9.13,9.13,0,0,1,6.85-.15C171.14,46.57,199,60,226.9,73.18c2.66,1.26,3.63,2.78,3.63,5.7q-.14,70,0,140C230.56,223.34,228.87,224.11,225,224.09ZM244.49,74.18C236,70,227.4,66,218.85,61.9c-24.72-11.79-49.47-23.53-74.13-35.45a10.29,10.29,0,0,0-9.87.11Q85.46,50.33,35.94,73.84c-5.62,2.69-10.67,1.43-12.84-3.16-2-4.32.1-8.74,5.75-11.44Q82.63,33.58,136.47,8.11a9.78,9.78,0,0,1,7.34.21q53.43,25.17,106.67,50.73c3.48,1.67,7,3.49,6.26,8.27C258,73.27,251,77.39,244.49,74.18Z" fill="#006837"/><path d="M230.53,78.88c0-2.92-1-4.44-3.63-5.7C199,60,171.14,46.57,143.18,33.44a9.13,9.13,0,0,0-6.85.15C108.49,46.63,80.77,59.92,53,73c-3.16,1.49-4.19,3.41-4.18,6.93q.18,69.24,0,138.5c0,4.42,1.36,5.68,5.71,5.65,28.33-.17,56.66-.08,85-.09,28.5,0,57-.05,85.5.07,3.91,0,5.6-.75,5.59-5.21Q230.33,148.88,230.53,78.88Zm-41.28,63.51c-.45,10.75-4.18,20.72-11.92,28.76q-16.61,17.25-33.15,34.57c-2.25,2.36-4.64,3.66-7.24.95-12.56-13.06-25.3-26-37.39-39.44a33.38,33.38,0,0,1-8.3-22.9c0-7.82,0-15.64,0-23.47h-.12c0-8.65-.21-17.32.15-26A8.24,8.24,0,0,1,94.59,89q20.88-12.6,42.18-24.51a7.46,7.46,0,0,1,6.2,0q21.76,12.17,43.18,24.93A7.62,7.62,0,0,1,189.29,95C189.54,110.77,189.93,126.61,189.25,142.39Z" fill="#fff"/><path d="M256.74,67.33c1.26,6-5.72,10.06-12.26,6.86C236,70,227.4,66,218.85,61.91c-24.72-11.8-49.47-23.54-74.13-35.45a10.27,10.27,0,0,0-9.87.1Q85.46,50.33,35.94,73.85c-5.62,2.68-10.67,1.42-12.84-3.17-2-4.32.1-8.74,5.75-11.43Q82.63,33.59,136.47,8.11a9.73,9.73,0,0,1,7.34.22q53.43,25.16,106.67,50.73C254,60.72,257.53,62.54,256.74,67.33Z" fill="#fff"/><path d="M219.34,36.65c-5.9-2.75-10.56-4.82-15.11-7.13a3.66,3.66,0,0,1-1.61-2.71c-.13-6.64-.07-13.28-.07-20.74,5,0,9.56-.17,14.12.13A3.87,3.87,0,0,1,219.22,9C219.43,17.77,219.34,26.54,219.34,36.65Z" fill="#fff"/><path d="M189.29,95a7.62,7.62,0,0,0-3.14-5.48Q164.75,76.7,143,64.55a7.46,7.46,0,0,0-6.2,0Q115.5,76.46,94.59,89a8.24,8.24,0,0,0-3.3,5.86c-.36,8.64-.15,17.31-.15,26h.12c0,7.83,0,15.65,0,23.47a33.38,33.38,0,0,0,8.3,22.9c12.09,13.48,24.83,26.38,37.39,39.44,2.6,2.71,5,1.41,7.24-.95q16.51-17.34,33.15-34.57c7.74-8,11.47-18,11.92-28.76C189.93,126.61,189.54,110.77,189.29,95ZM182,145.65a30.07,30.07,0,0,1-8.51,19.75c-10.89,11.63-22.07,23-34.56,35.93-3.08-3.78-5.62-7.26-8.54-10.4q-11-11.9-22.36-23.53c-7.44-7.68-10.74-17-10.81-27.5-.1-13.15.15-26.31-.15-39.46C97,96.3,98.13,94,101.88,92c11.69-6.32,23.15-13.07,34.6-19.83,2.45-1.45,4.25-1.6,6.79-.09,12,7.12,24.19,13.93,36.17,21.08A6.27,6.27,0,0,1,182,97.7C182.22,113.68,182.45,129.68,182,145.65Z" fill="#8cc63f"/><path d="M182,97.7a6.27,6.27,0,0,0-2.59-4.55c-12-7.15-24.17-14-36.17-21.08-2.54-1.51-4.34-1.36-6.79.09C125,78.92,113.57,85.67,101.88,92c-3.75,2-4.87,4.31-4.78,8.45.3,13.15.05,26.31.15,39.46.07,10.52,3.37,19.82,10.81,27.5s15,15.6,22.36,23.53c2.92,3.14,5.46,6.62,8.54,10.4,12.49-12.94,23.67-24.3,34.56-35.93A30.07,30.07,0,0,0,182,145.65C182.45,129.68,182.22,113.68,182,97.7Zm-16.64,21.18c-9.94,10-20,20-29.88,30-2.93,3-5.38,3.18-8.36-.07-4.27-4.64-9-8.83-13.23-13.53-1.13-1.26-.94-3.7-1.35-5.59,2,.39,4.56.14,6,1.28a92.41,92.41,0,0,1,9.93,9.76c2.19,2.41,3.73,2.41,6,.05q13.4-13.73,27.15-27.1a6.35,6.35,0,0,1,4.19-1.6c.76,0,1.49,1.78,2.45,3A39.51,39.51,0,0,1,165.39,118.88Z" fill="#fff"/><path d="M168.29,115.15a41.11,41.11,0,0,1-2.9,3.74c-9.94,10-20,20-29.89,30-2.92,3-5.37,3.18-8.35-.06-4.27-4.65-9-8.84-13.23-13.54-1.13-1.26-.94-3.69-1.35-5.59,2,.39,4.56.15,6,1.29a91.48,91.48,0,0,1,9.93,9.76c2.19,2.4,3.73,2.4,6,0q13.4-13.73,27.15-27.11a6.33,6.33,0,0,1,4.19-1.6C166.6,112.13,167.33,113.9,168.29,115.15Z" fill="#8cc63f"/><path d="M18.41,262.14a1.49,1.49,0,0,1,.23-.7.93.93,0,0,1,.92-.45H34.5c0,1.62,0,2.93-.08,3.92a4.54,4.54,0,0,1-.26,1.79.91.91,0,0,1-.83.32H25v9.88h1.73q5.15,0,7.3,2.52t2.18,8q0,6.76-2.73,10.41a8.47,8.47,0,0,1-7.15,3.63H18.41Zm7.76,33.72a1.63,1.63,0,0,0,1.4-.66,5.37,5.37,0,0,0,.73-2.32,38.18,38.18,0,0,0,.23-4.82,22.43,22.43,0,0,0-.18-3.24,2.55,2.55,0,0,0-.62-1.47,2.06,2.06,0,0,0-1.45-.44H25v12.84A4.75,4.75,0,0,0,26.17,295.86Z" fill="#009245"/><path d="M45.64,295.75h8.22c0,1.54,0,2.77-.07,3.7a4.27,4.27,0,0,1-.26,1.71.85.85,0,0,1-.77.31H39.23V262.14a1.49,1.49,0,0,1,.23-.7.93.93,0,0,1,.92-.45H54.27c0,1.47,0,2.67-.07,3.6a4.52,4.52,0,0,1-.28,1.75.9.9,0,0,1-.82.38H45.64v9.88h7c0,1.43,0,2.62,0,3.56a5.44,5.44,0,0,1-.27,1.88.69.69,0,0,1-.7.46h-6Z" fill="#009245"/><path d="M64.68,302.06a12.42,12.42,0,0,1-6.35-1.37,4,4,0,0,1-2.28-3.5,6.86,6.86,0,0,1,1.22-3.92,8.59,8.59,0,0,0,2.89,1.9,10.61,10.61,0,0,0,3.88.64,3.38,3.38,0,0,0,3.17-1.58c.61-1.06.92-2.91.92-5.53A5.79,5.79,0,0,0,67,284.91a3.83,3.83,0,0,0-3.14-1.36H61.77c-1.07,0-1.61-.6-1.61-1.79v-4.11h5.62a20.58,20.58,0,0,0,.86-6.19,7.31,7.31,0,0,0-.72-3.61,2.33,2.33,0,0,0-2.11-1.24,5.14,5.14,0,0,0-2.32.67,7.22,7.22,0,0,0-2.25,1.81A21.92,21.92,0,0,1,57.8,267a3.32,3.32,0,0,1-.42-1.59A4.65,4.65,0,0,1,59,262c1.09-1,3-1.56,5.85-1.56s5.07.79,6.53,2.37a9.35,9.35,0,0,1,2.2,6.64,16.74,16.74,0,0,1-.87,5.21,17.18,17.18,0,0,1-2.07,4.4,8.42,8.42,0,0,1,3.26,3.73A13,13,0,0,1,75,288.35q0,6.82-2.46,10.27C70.92,300.92,68.29,302.06,64.68,302.06Z" fill="#009245"/><path d="M87.46,302.06a9.74,9.74,0,0,1-6.19-1.74c-1.46-1.15-2.54-3.23-3.22-6.23A63.46,63.46,0,0,1,77,281a49.72,49.72,0,0,1,1.19-12.26c.78-3,2-5.14,3.57-6.41a9.81,9.81,0,0,1,6.29-1.91,9.28,9.28,0,0,1,6.06,1.79c1.46,1.19,2.54,3.25,3.21,6.18a57.6,57.6,0,0,1,1,12.36,54.47,54.47,0,0,1-1.17,12.74q-1.16,4.62-3.49,6.59A9.44,9.44,0,0,1,87.46,302.06Zm.33-6.66A2.37,2.37,0,0,0,90,294a12.8,12.8,0,0,0,1-4.48q.28-3,.29-8.47,0-5.61-.2-8.45a10.69,10.69,0,0,0-.92-4.16,2.42,2.42,0,0,0-4.39.14,13.57,13.57,0,0,0-1.1,4.77q-.31,3.29-.32,9.14c0,3.28.08,5.83.25,7.63a10.72,10.72,0,0,0,1,4A2.33,2.33,0,0,0,87.79,295.4Z" fill="#009245"/><path d="M101.38,262.14a.89.89,0,0,1,.32-.81,5,5,0,0,1,1.88-.27c1,0,2.44-.07,4.22-.07h11.56v39.33c0,.43-.09.71-.28.84a5.11,5.11,0,0,1-1.88.26c-1.06,0-2.48.05-4.25.05V267H107.8v33.3a1,1,0,0,1-.29.84,5.11,5.11,0,0,1-1.88.26c-1.06,0-2.48.05-4.25.05Z" fill="#009245"/><path d="M146.32,300.43a.76.76,0,0,1-.48.88,6.42,6.42,0,0,1-2.42.29c-1.35,0-2.59-.05-3.71-.13l-1.89-9.24H130l-1.69,8.15a1.31,1.31,0,0,1-.65.95,5.94,5.94,0,0,1-2.29.27,34.36,34.36,0,0,1-4-.25L131,262.09q.23-1.2,2.58-1.2a16.1,16.1,0,0,1,3.07.23Zm-9.72-14L135.44,281a101.39,101.39,0,0,1-1.5-10.93c-.55,4.89-1.06,8.54-1.56,10.93l-1.15,5.42Z" fill="#009245"/><path d="M157.29,302.06a8.9,8.9,0,0,1-5.51-1.56q-2.06-1.58-3.1-5.76a53.47,53.47,0,0,1-1-12.17q0-22.14,11.57-22.14,3.34,0,4.41.9a3.06,3.06,0,0,1,1.08,2.5,9.17,9.17,0,0,1-.92,3.88,4.92,4.92,0,0,0-3-1q-2.9,0-4.63,3.33t-1.73,12a50.26,50.26,0,0,0,.46,7.81,8.14,8.14,0,0,0,1.43,3.92,3.41,3.41,0,0,0,2.68,1.11,9.7,9.7,0,0,0,4.51-.86,8.27,8.27,0,0,1,.87,3.75,3.52,3.52,0,0,1-1.89,3.16A10.1,10.1,0,0,1,157.29,302.06Z" fill="#009245"/><path d="M185.58,300.32a1,1,0,0,1-.26.84,5,5,0,0,1-1.87.26c-1,0-2.48.05-4.3.05V282.91h-5.67v17.41a1,1,0,0,1-.26.84,4.8,4.8,0,0,1-1.85.26c-1.05,0-2.49.05-4.3.05V262.14a1,1,0,0,1,.26-.81,4.6,4.6,0,0,1,1.85-.27c1.06,0,2.49-.07,4.3-.07V276.9h5.67V262.14a1,1,0,0,1,.27-.81,4.49,4.49,0,0,1,1.84-.27c1.06,0,2.5-.07,4.32-.07Z" fill="#009245"/><path d="M199,302.06a9.73,9.73,0,0,1-6.18-1.74q-2.2-1.72-3.22-6.23a63.46,63.46,0,0,1-1-13.08,50.29,50.29,0,0,1,1.18-12.26c.79-3,2-5.14,3.58-6.41a9.77,9.77,0,0,1,6.29-1.91,9.31,9.31,0,0,1,6.06,1.79q2.19,1.78,3.21,6.18a57.72,57.72,0,0,1,1,12.36,54.47,54.47,0,0,1-1.17,12.74q-1.16,4.62-3.49,6.59A9.44,9.44,0,0,1,199,302.06Zm.34-6.66a2.38,2.38,0,0,0,2.2-1.44,12.8,12.8,0,0,0,1-4.48q.28-3,.28-8.47,0-5.61-.19-8.45a10.69,10.69,0,0,0-.92-4.16,2.43,2.43,0,0,0-4.4.14,13.61,13.61,0,0,0-1.09,4.77c-.22,2.19-.32,5.24-.32,9.14,0,3.28.08,5.83.25,7.63a10.53,10.53,0,0,0,1,4A2.32,2.32,0,0,0,199.33,295.4Z" fill="#009245"/><path d="M221.94,302.06a8.88,8.88,0,0,1-5.51-1.56q-2.07-1.58-3.1-5.76a53.36,53.36,0,0,1-1.05-12.17q0-22.14,11.57-22.14,3.35,0,4.41.9a3.06,3.06,0,0,1,1.08,2.5,9.17,9.17,0,0,1-.92,3.88,4.9,4.9,0,0,0-3-1q-2.9,0-4.62,3.33t-1.74,12a50.26,50.26,0,0,0,.46,7.81,8.13,8.13,0,0,0,1.44,3.92,3.4,3.4,0,0,0,2.67,1.11,9.74,9.74,0,0,0,4.52-.86,8.4,8.4,0,0,1,.87,3.75,3.53,3.53,0,0,1-1.9,3.16A10.06,10.06,0,0,1,221.94,302.06Z" fill="#009245"/><path d="M251.32,261v4.86a1.27,1.27,0,0,1-.26.94,1.42,1.42,0,0,1-.91.23H244v33.3c0,.43-.1.71-.32.84a5.36,5.36,0,0,1-1.88.26c-1,0-2.44.05-4.21.05V267h-7.05v-4.88a1,1,0,0,1,1.15-1.15Z" fill="#009245"/><path d="M253.68,262.14a1,1,0,0,1,.27-.81,4.58,4.58,0,0,1,1.84-.27c1.07,0,2.5-.07,4.31-.07V276.9h1.73q5.16,0,7.32,2.52t2.18,8q0,6.76-2.73,10.41a8.48,8.48,0,0,1-7.16,3.63h-7.76Zm7.69,33.72a1.64,1.64,0,0,0,1.42-.66,5.37,5.37,0,0,0,.73-2.32,38.18,38.18,0,0,0,.23-4.82,22.43,22.43,0,0,0-.18-3.24,2.43,2.43,0,0,0-.64-1.47,2,2,0,0,0-1.43-.44h-1.4v12.84A4.67,4.67,0,0,0,261.37,295.86Z" fill="#009245"/><path d="M0,322.17c0-.27.06-.45.18-.53a2.25,2.25,0,0,1,1.08-.16c.61,0,1.42,0,2.41,0H14.1v31a.69.69,0,0,1-.16.55,2.48,2.48,0,0,1-1.08.16c-.6,0-1.4,0-2.39,0V324.9H3.67v27.56a.66.66,0,0,1-.18.55,2.5,2.5,0,0,1-1.06.16c-.6,0-1.4,0-2.43,0Z"/><path d="M23.35,321.44c2.87,0,5,.72,6.32,2.15s2,3.68,2,6.78q0,5.26-2.28,7.6a8,8,0,0,1-6,2.34H21.75v12.15a.69.69,0,0,1-.16.55,2.32,2.32,0,0,1-1.06.16c-.6,0-1.4,0-2.39,0v-31a.6.6,0,0,1,.72-.73Zm.4,15.47a3.18,3.18,0,0,0,2.95-1.61,11.13,11.13,0,0,0,.95-5.34,7.61,7.61,0,0,0-.83-3.93,3,3,0,0,0-2.8-1.36H21.75v12.24Z"/><path d="M42.07,353.65a7.45,7.45,0,0,1-4.83-1.43,9,9,0,0,1-2.56-5,48,48,0,0,1-.81-10.08,39.55,39.55,0,0,1,.92-9.53,9.5,9.5,0,0,1,2.84-5.09A7.66,7.66,0,0,1,42.57,321a7,7,0,0,1,4.71,1.49,8.86,8.86,0,0,1,2.52,4.93,44.92,44.92,0,0,1,.79,9.6,43.46,43.46,0,0,1-.88,9.85A9.67,9.67,0,0,1,47,352.06,7.3,7.3,0,0,1,42.07,353.65Zm.14-3.77a3.11,3.11,0,0,0,2.63-1.26,9.39,9.39,0,0,0,1.38-4,50.63,50.63,0,0,0,.44-7.49,55.27,55.27,0,0,0-.37-7.34A8.07,8.07,0,0,0,45,325.94a3,3,0,0,0-2.53-1.18,3.08,3.08,0,0,0-2.6,1.29,9.55,9.55,0,0,0-1.44,4.18A53.23,53.23,0,0,0,38,338a50.41,50.41,0,0,0,.37,6.93,8.39,8.39,0,0,0,1.29,3.74A3.05,3.05,0,0,0,42.21,349.88Z"/><path d="M54.9,360.35a5.65,5.65,0,0,1-1.79-.18c-.28-.12-.42-.4-.42-.85v-9.58h.76c.88,0,1.57-.58,2-1.72a32.32,32.32,0,0,0,1.33-7.51q.62-5.82,1.26-18.34a.81.81,0,0,1,.11-.53c.07-.1.31-.15.72-.16s1,0,1.65,0h9.18v28.3H72v9.58c0,.45-.15.73-.44.85a5.56,5.56,0,0,1-1.79.18,45.81,45.81,0,0,1-1.08-7.16H56A48.35,48.35,0,0,1,54.9,360.35Zm11.16-10.61V324.9H61.53q-.77,11.84-1.49,17.25t-1.92,7.59Z"/><path d="M92.4,352.52a.47.47,0,0,1-.23.58,3.12,3.12,0,0,1-1.34.18c-.82,0-1.54,0-2.18-.09l-1.92-8.08H78.85l-1.77,7.44a1,1,0,0,1-.44.57,3.12,3.12,0,0,1-1.28.16c-.64,0-1.39,0-2.27-.14l8.12-31.2c.09-.43.55-.64,1.36-.64a9,9,0,0,1,1.72.14ZM85.92,341.8l-1.54-6.52a62.59,62.59,0,0,1-1.58-8.75,80.15,80.15,0,0,1-1.65,8.75l-1.54,6.52Z"/><path d="M95.81,353.28a2.88,2.88,0,0,1-1.24-.18q-.3-.17-.21-.69l1.26-8.84A13.67,13.67,0,0,1,96.9,339a6.18,6.18,0,0,1,2.44-2.76,5.22,5.22,0,0,1-1.61-1.63,9.33,9.33,0,0,1-1.1-2.7l-2.18-9.47a1.28,1.28,0,0,1,0-.41.51.51,0,0,1,.3-.5,2.84,2.84,0,0,1,1.06-.14,10.6,10.6,0,0,1,2.23.28l2,9.66a6,6,0,0,0,1.15,2.66,2.32,2.32,0,0,0,1.76.92h1.86V322.17c0-.27,0-.45.14-.53a2,2,0,0,1,1-.16c.57,0,1.36,0,2.35,0v13.47h1.86a2.26,2.26,0,0,0,1.7-.92,5.85,5.85,0,0,0,1.15-2.66l2.1-9.66a9.79,9.79,0,0,1,2.17-.28,2.94,2.94,0,0,1,1.1.14.51.51,0,0,1,.3.5,1.94,1.94,0,0,1,0,.41l-2.23,9.47a8.33,8.33,0,0,1-1.07,2.7,5,5,0,0,1-1.61,1.63,6.09,6.09,0,0,1,2.43,2.74,14.75,14.75,0,0,1,1.29,4.59l1.28,8.84c0,.35,0,.58-.23.69a2.83,2.83,0,0,1-1.23.18,23.11,23.11,0,0,1-2.35-.14l-1.22-9q-.74-5.89-3.72-5.9h-1.69v14.24a.69.69,0,0,1-.16.55,2.26,2.26,0,0,1-1,.16c-.57,0-1.35,0-2.34,0v-15h-1.69q-3.08,0-3.72,5.9l-1.27,9A21.3,21.3,0,0,1,95.81,353.28Z"/><path d="M122.43,322.17a.74.74,0,0,1,.13-.53c.09-.1.41-.15,1-.16s1.35,0,2.34,0V337q0,4.49-.41,9.43a56.6,56.6,0,0,1,1.88-5.49l1.61-4.08,1-2.5,4.34-12a1.49,1.49,0,0,1,.46-.68,2.13,2.13,0,0,1,1-.19c.49,0,1.11,0,1.87,0v31a.65.65,0,0,1-.22.54,2.47,2.47,0,0,1-1,.17c-.56,0-1.29,0-2.18,0V341.8c0-4.54.18-9,.53-13.32q-1.26,4.62-4.31,12.42l-4.48,11.39a1.3,1.3,0,0,1-.44.67,2.15,2.15,0,0,1-1,.21c-.52,0-1.18,0-2,0Z"/><path d="M148.78,322.17a.8.8,0,0,1,.12-.53c.1-.1.42-.15,1-.16s1.34,0,2.34,0V337q0,4.49-.41,9.43a54,54,0,0,1,1.88-5.49c.83-2.12,1.37-3.48,1.61-4.08l1-2.5,4.34-12a1.42,1.42,0,0,1,.46-.68,2.1,2.1,0,0,1,1-.19c.48,0,1.1,0,1.86,0v31a.65.65,0,0,1-.21.54,2.5,2.5,0,0,1-1.05.17c-.56,0-1.28,0-2.18,0V341.8c0-4.54.18-9,.54-13.32q-1.27,4.62-4.31,12.42l-4.48,11.39a1.37,1.37,0,0,1-.44.67,2.18,2.18,0,0,1-1.05.21c-.52,0-1.19,0-2,0Z"/><path d="M175.12,322.17c0-.27.06-.45.18-.53a2.28,2.28,0,0,1,1.08-.16c.61,0,1.42,0,2.41,0h10.44v31a.73.73,0,0,1-.16.55,2.51,2.51,0,0,1-1.08.16c-.61,0-1.4,0-2.4,0V324.9h-6.8v27.56a.66.66,0,0,1-.18.55,2.5,2.5,0,0,1-1.06.16c-.59,0-1.4,0-2.43,0Z"/><path d="M200.83,353.65a7.46,7.46,0,0,1-4.84-1.43,8.88,8.88,0,0,1-2.55-5,47.26,47.26,0,0,1-.82-10.08,39,39,0,0,1,.93-9.53,9.43,9.43,0,0,1,2.83-5.09,7.67,7.67,0,0,1,4.94-1.54,7,7,0,0,1,4.72,1.49,8.85,8.85,0,0,1,2.51,4.93,44.8,44.8,0,0,1,.8,9.6,43.37,43.37,0,0,1-.89,9.85,9.67,9.67,0,0,1-2.73,5.21A7.27,7.27,0,0,1,200.83,353.65Zm.14-3.77a3.09,3.09,0,0,0,2.62-1.26,9.13,9.13,0,0,0,1.38-4,50.41,50.41,0,0,0,.45-7.49,55,55,0,0,0-.38-7.34,8.08,8.08,0,0,0-1.27-3.81,3,3,0,0,0-2.54-1.18,3.09,3.09,0,0,0-2.6,1.29,9.56,9.56,0,0,0-1.43,4.18,53,53,0,0,0-.45,7.81,52.06,52.06,0,0,0,.37,6.93,8.38,8.38,0,0,0,1.3,3.74A3.05,3.05,0,0,0,201,349.88Z"/><path d="M225.51,353.28a24.7,24.7,0,0,1-2.47-.14l-1.34-8.84c-.46-3.94-1.74-5.9-3.83-5.9h-1.43v14.06a.73.73,0,0,1-.16.55,2.51,2.51,0,0,1-1.08.16c-.61,0-1.44,0-2.48,0v-31a.68.68,0,0,1,.15-.53,2.2,2.2,0,0,1,1.07-.16c.6,0,1.43,0,2.5,0v13.47h1.66a2.29,2.29,0,0,0,1.75-.91,5.52,5.52,0,0,0,1.16-2.58l2.23-9.75a11.06,11.06,0,0,1,2.3-.28,3.46,3.46,0,0,1,1.19.14.55.55,0,0,1,.32.55,1.07,1.07,0,0,1-.06.41L224.58,332a8.65,8.65,0,0,1-1.13,2.64,5.37,5.37,0,0,1-1.63,1.63,6.54,6.54,0,0,1,2.48,2.8,14.42,14.42,0,0,1,1.33,4.64l1.42,8.67c0,.36-.07.61-.27.72A2.8,2.8,0,0,1,225.51,353.28Z"/><path d="M234.2,353.37a4.62,4.62,0,0,1-2.27-.52,1.71,1.71,0,0,1-.94-1.47,4.17,4.17,0,0,1,.58-2.14,4.88,4.88,0,0,0,2.5.87,1.24,1.24,0,0,0,1.15-.68,8.12,8.12,0,0,0,.71-2.26q-.81-2.46-3-10.33t-3.52-13.48a8.23,8.23,0,0,1-.29-1.37.44.44,0,0,1,.2-.42,1.64,1.64,0,0,1,.76-.13h2.59l2.81,11c.72,3,1.32,6.11,1.78,9.37l.12.92a98.19,98.19,0,0,1,1.77-10.12l2.27-9.88a2,2,0,0,1,.39-1,1.12,1.12,0,0,1,.88-.29h2.59l-5.95,25.5a34.75,34.75,0,0,1-1.05,3.7,4.17,4.17,0,0,1-1.41,2A4.38,4.38,0,0,1,234.2,353.37Z"/><path d="M247.63,322.17c0-.27.06-.45.18-.53a2.25,2.25,0,0,1,1.08-.16c.61,0,1.42,0,2.41,0h10.43v31a.69.69,0,0,1-.16.55,2.48,2.48,0,0,1-1.08.16c-.6,0-1.4,0-2.39,0V324.9h-6.8v27.56a.66.66,0,0,1-.18.55,2.5,2.5,0,0,1-1.06.16c-.6,0-1.4,0-2.43,0Z"/><path d="M278.56,353.28a24.35,24.35,0,0,1-2.46-.14l-1.35-8.84c-.46-3.94-1.73-5.9-3.83-5.9h-1.43v14.06a.69.69,0,0,1-.16.55,2.51,2.51,0,0,1-1.08.16c-.6,0-1.43,0-2.48,0v-31c0-.27.05-.45.16-.53a2.14,2.14,0,0,1,1.06-.16c.6,0,1.44,0,2.5,0v13.47h1.67a2.31,2.31,0,0,0,1.75-.91,5.62,5.62,0,0,0,1.15-2.58l2.23-9.75a11.15,11.15,0,0,1,2.31-.28,3.43,3.43,0,0,1,1.18.14.54.54,0,0,1,.32.55,1.37,1.37,0,0,1-.05.41L277.64,332a8.9,8.9,0,0,1-1.13,2.64,5.37,5.37,0,0,1-1.63,1.63,6.6,6.6,0,0,1,2.48,2.8,14.43,14.43,0,0,1,1.32,4.64l1.42,8.67c0,.36-.06.61-.26.72A2.86,2.86,0,0,1,278.56,353.28Z"/><path d="M283.64,322.17a.8.8,0,0,1,.12-.53c.09-.1.42-.15,1-.16s1.35,0,2.34,0V337c0,3-.13,6.13-.41,9.43a56.6,56.6,0,0,1,1.88-5.49c.84-2.12,1.38-3.48,1.61-4.08l1-2.5,4.35-12a1.35,1.35,0,0,1,.46-.68,2.07,2.07,0,0,1,1-.19c.48,0,1.1,0,1.86,0v31a.65.65,0,0,1-.21.54,2.53,2.53,0,0,1-1.05.17c-.56,0-1.28,0-2.18,0V341.8c0-4.54.18-9,.53-13.32a131.22,131.22,0,0,1-4.3,12.42l-4.48,11.39a1.31,1.31,0,0,1-.45.67,2.13,2.13,0,0,1-1,.21c-.53,0-1.19,0-2,0Z"/></g></g></svg>