<svg xmlns="http://www.w3.org/2000/svg" viewBox="0 0 294.04 348.83"><g id="Слой_2" data-name="Слой 2"><g id="Слой_1-2" data-name="Слой 1"><path d="M257.59,85.43c0-3.69.19-7.4,0-11.09-.36-6,2.18-12.92-3.05-17.58-4.08-3.64-4.73-7.6-4.4-12.39.14-2.15-.15-4.34.06-6.49.32-3.32-1.07-4.34-4.29-4.33s-4.52.89-4.33,4.28c.26,4.53.07,9.08.07,13.63l-1.56.44a40.64,40.64,0,0,0-3.1-2.63c-1.16-.82-2.51-2.15-3.67-2.05-4.47.4-6.62-2.11-8.47-5.58S221,35,219,31.78c-3.27-5.36-6.15-5.51-9.43-.26-4.82,7.71-11.38,13.21-20.31,15-4.83.94-9.94.4-14.92.6-3.05.13-6.48-.63-7.9,3.56-.21.64-2.2.68-4.09,1.19,0-7.14-.13-13.12,0-19.1.28-10.82,8.22-21.5,17.89-23.77A61.22,61.22,0,0,1,192.05,7.6c6.32-.21,12.68.28,19-.12,13.6-.89,23.56,4.36,29.67,17,2.59-1.6,8.36-.29,5.7-5.7C241.1,8,232.43.85,220,.25c-11.63-.55-23.31,0-35-.15-14-.18-30.43,14.79-30.07,31,.14,6,.06,12-.09,18,0,1.35-.39,3.26-1.31,3.91-8.71,6.25-8.06,14.84-6.45,23.83.28,1.51.47,3.55-.3,4.67-4.12,6-4.42,12.59-3.57,19.54a8.05,8.05,0,0,1-1.94,5.82c-5.18,5.26-8.79,11.11-9.94,18.55-.7,4.56-1.35,9-5.91,12.36-2.42,1.77-3.51,6.25-4,9.66-1.06,8.14-1.37,16.38-2,25.32a30.11,30.11,0,0,1-3.31-2.75c-4.39-5-8.78-10-13-15.12q-12-14.39-23.76-28.91c-2.21-2.72-4.81-4-7.64-1.46-5.7,5.14-9.81,11-6.39,19.27a11.53,11.53,0,0,1,.24,2.93H26.93c-7.43,0-10.18,4.66-6.28,11a116.85,116.85,0,0,0,9.13,13.09c4.17,5,9.36,8.76,16.26,10,.81-2.46,1.5-4.58,2.34-7.11C38.7,170.71,33.11,164,29,155c1.76-.17,2.87-.36,4-.37,11.33,0,22.66,0,34-.08,8.18-.05,8.87-1.46,6.7-9.69-.94-3.57-3.45-7.78,1.3-11.92,3.71,4.85,7.37,9.48,10.81,14.26a4.54,4.54,0,0,1,.29,3.37c-2,8-4.17,15.86-6.42,24.29H55.88c-.84,7.46-.84,7.47,5.59,7.49,4.5,0,9,.28,13.49-.09,4.14-.35,6.34,1.32,8.1,4.93,6.76,13.9,14,27.57,20.59,41.55,3.13,6.66,7.77,9.21,14.91,9.19q66.47-.21,132.94,0c4.39,0,6.18-1.22,6.17-6C257.53,183.07,257.59,134.25,257.59,85.43ZM233.12,98.16c1.87-1,3.45-4,3.68-6.27.45-4.51,2.66-5.59,6.62-5.19,2,.2,4,0,6.34,0v40.81c-4.92-1.11-9.45-1.9-13.81-3.26-1.38-.43-2.67-2.19-3.34-3.65-1.15-2.54-1.75-5.34-2.65-8C228.11,107.18,226.25,102,233.12,98.16ZM233,172.58l-24.46-8,19.05-27.12C229.52,149.82,231.17,160.55,233,172.58ZM174.14,55.52c16,.59,29.65-3.05,39.89-16.32,2.13,3.43,3.66,6.55,5.81,9.17a19.15,19.15,0,0,0,6.69,5.56c2.74,1.15,3.37,2.61,3.34,5.22-.1,8.83-.15,17.66,0,26.49a10.14,10.14,0,0,1-5.8,9.7c-6,3.25-12,6.51-18.2,9.19a10.62,10.62,0,0,1-7.47,0c-5.83-2.4-11.34-5.56-17-8.26-4.13-2-6.9-5.24-7.07-9.56C173.87,76.56,174.14,66.42,174.14,55.52Zm4,83.67c5.35,7.56,10.74,15.09,16,22.74.49.72.14,3.07-.32,3.24-7.22,2.55-14.53,4.86-22.42,7.42,1.84-11.79,3.53-22.56,5.21-33.33ZM155,64.78c.27-4.53,6.63-7.93,10.5-5.6.74.45,1.15,1.88,1.23,2.89.18,2.3.05,4.63.05,6.95,0,1.65,0,3.3,0,5,0,2.56.81,5.5-3.57,5.46-4,0-7.5-.61-8.13-5.24A49.39,49.39,0,0,1,155,64.78Zm-5.27,45.93c4.29-2.5,4.51-4.83,2.52-8.84a18.27,18.27,0,0,1-1.5-7.65c-.1-6.5,1.5-7.86,7.77-7.57,2.47.11,5,0,8,0,.46,6.72,3.46,11.21,8.24,14.79a4.81,4.81,0,0,1,1.61,4,128.72,128.72,0,0,1-4,14.27c-.59,1.7-2,4-3.46,4.39-9.56,2.66-19.24,4.88-28.85,7.23C137.77,124.34,141.75,115.37,149.72,110.71ZM94,189.63c-6.53-6.91-7.23-14-4.43-21.94,1.26-3.56,2-7.31,3.07-11.32,7.12,4.44,8.62,7.61,6.72,14.73C97.8,177.1,96,183,94,189.63Zm40.32,40.63c-6.21,0-12.18.38-18.06-.21-1.92-.19-4.16-2.58-5.28-4.53-3.12-5.44-5.33-11.44-8.68-16.72s-3-10.48-1.2-16c2.12-6.41,4.08-12.87,6.57-20.78,7.84,9.62,15.56,18.09,22.1,27.39C136.19,208.46,134.8,219.26,134.36,230.26ZM142,230c0-6,.07-11.82,0-17.6-.14-8-2.74-15.59-8.11-20.95-6.95-6.93-7.25-14.7-6.53-23.25.52-6.13,1.06-12.25,1.43-18.39.31-5,2-8.19,7.59-9.37,10.95-2.31,21.73-5.38,33.19-8.29-1.25,8-2.39,15.42-3.56,22.83s-2.49,15-3.57,22.57c-.51,3.63,1.85,4.75,4.95,4.47s4.58.48,3.2,4.36H147.1c-1.79,7.79-1.45,8.24,5.83,8.27,5.33,0,10.67-.17,16,.13,1.3.07,3.62,1.71,3.61,2.61-.1,11.84,5.54,21.19,12.44,30.07a28.2,28.2,0,0,1,1.45,2.54Zm56-1.27c0,.24-.4.48-1.71,2-4.74-10.43-14.86-17-15.1-29.41-.11-5.75-1.39-11.5-2.39-17.21-.64-3.65-.24-6,4.12-6.83,3.85-.76,7.52-2.5,11.27-3.8,2.26-.78,4.08-.67,4.06,2.36Q198.18,202.23,198,228.68Zm-18.18-100.9c-.37-.53-.84-1.3-.71-1.82,1.62-6.33,3.33-12.64,5.36-20.24,12.22,10,23.79,9.37,35.34.28,2,6.85,3.76,12.47,5.31,18.13a4.53,4.53,0,0,1-.45,3.32c-7.26,10.52-14.63,21-22.52,32.2C194.29,148.42,187.05,138.11,179.84,127.78Zm26.9,101.94V172.44c6,1.92,11.4,3.47,16.62,5.49,1,.39,2,2.67,1.85,4-.83,8.86-.52,18.21-3.42,26.4-2.81,7.94-9,14.69-13.73,22Zm43.41.13H217.94c2.89-4.44,5.73-8.08,7.76-12.12A59.41,59.41,0,0,0,230.93,204c1.19-5.45,1.33-11.16,1.75-16.77.25-3.38.88-5.84,5.23-5.28,3.26.43,3.9-1.9,3.54-4.54-1.18-8.69-2.42-17.36-3.65-26-.86-6-1.73-12-2.73-18.93,5,1.14,9.16,1.77,13,3.22,1.13.42,1.92,3.2,1.93,4.9.14,21.3.1,42.6.11,63.89Zm-.23-156c-.68,4.17-5.65,6.84-9.68,5.39a4,4,0,0,1-1.9-2.86,66.38,66.38,0,0,1-.09-7.47h0a22,22,0,0,1,0-4c.43-2.22-1.83-5.71,2.77-6.12,4.1-.36,8.36,2,8.85,5.61A32.74,32.74,0,0,1,249.92,73.86Z" fill="#009245"/><path d="M134.43,56.67a8.37,8.37,0,0,0-2.54-5.47c-9.23-8.37-18.77-16.4-28-24.76-3.24-2.93-6.13-3-9.9-1.2C76,33.81,58,42.3,39.84,50.57c-3.58,1.64-4.93,3.79-4.88,7.6.15,11.31,0,22.63.07,34,0,5.79.74,6.61,6.66,6.64,14.31.08,28.63,0,42.94,0v0c14.48,0,29-.09,43.43,0,4.47,0,6.67-1.21,6.56-6.2C134.35,80.64,134.65,68.65,134.43,56.67ZM71.51,76.6c-.41,4.12-.09,8.32-.1,12.49a5.18,5.18,0,0,1-.18,1c-.48.45-.59.64-.72.66-11.37,1.51-11.45,1.44-11.45-9.83v-3c0-6.91,0-6.69,6.83-6.94C70.19,70.82,72,72.05,71.51,76.6ZM86.94,87.82c-.08,5.52-4.58,2.35-8,3.44,0-7.24,0-14,0-20.71s-.49-7.28-7.44-7.3c-4.83,0-9.66.12-14.48,0-4.25-.14-6.05,1.66-6,5.94.16,7.12,0,14.25,0,21.61H43.6c0-10.48-.06-20.89.1-31.3A4.22,4.22,0,0,1,46,56.59c12.9-6.12,25.87-12.12,38.84-18.1.38-.18.95.06,2.23.19C87,55.25,87.17,71.53,86.94,87.82Zm15.4,2.92H95V68.62c0-10.15-.13-20.3.12-30.44,0-1.87,1.65-3.71,2.54-5.56,1.55,1.87,4.41,3.71,4.44,5.61C102.48,55.51,102.34,72.79,102.34,90.74Zm21,.37c-12.31.59-12.3.69-12.3-11.66,0-10.17,0-20.33,0-30.5,0-1.27.14-2.54.29-5.26C116.63,48.3,121,51.88,125,55.8a7.61,7.61,0,0,1,1.91,4.85c.18,8.83,0,17.66.12,26.5C127.06,89.77,126.35,91,123.39,91.11Z" fill="#8cc63f"/><path d="M130,107.81v6.63c-4.77-.77-6.35,2.08-7.28,6a84.58,84.58,0,0,1-3,8.89c-2.15,6-3.93,6.64-9.53,3.55-9.89-5.45-19.75-11-29.75-16.23a17.29,17.29,0,0,0-7.52-1.92c-13.82-.2-27.65-.12-41.48-.15-9.55,0-12.26-2.74-12.3-12.53q-.08-24-.05-48c0-3.31,0-6.63,0-10.09,8.31-1.67,8.62-1.44,8.62,5.85q0,26,0,52v5.37H42.17c4.83,0,9.72.48,14.48-.09,16.46-2,31.13,2.23,44.58,11.68,3.22,2.26,6.91,3.85,11.18,6.18,1.29-3.44,2.46-6.44,3.54-9.48C119.2,106.41,119.83,106.05,130,107.81Z" fill="#8cc63f"/><path d="M150.3,8v7.06c-1.42.11-2.84.32-4.26.32-37.49,0-75,0-112.47-.1-4.45,0-6.43,1.09-6,5.89.39,4.43.08,8.93.08,14H18.86c.32-7,.21-14,1.09-20.77A7.68,7.68,0,0,1,28,7.6q60.48-.06,121,0A7.06,7.06,0,0,1,150.3,8Z" fill="#8cc63f"/><path d="M264.45,310.7a3.82,3.82,0,0,0-2.61-2.65c-4.1-.3-8.23-.12-12.74-.12-.63,8.62-1.25,16.7-1.81,24.79-.31,4.56-1,8.94-5.44,12-1.43-5.7-2.79-11-4.08-16.24s-2.52-10.57-3.73-15.87c-.81-3.55-2.35-5.88-6.81-4.16l-9.43,38.48c5.91.79,6.62.48,7.37-2.75,1.44-6.22,1.44-6.22,8.45-5,.83,2.71,1.65,5.39,2.49,8.15,1.29.06,2.45.13,3.6.17a19.89,19.89,0,0,1,3.46.11c4.6,1,7.25-.33,8.21-4.9.88-4.2,1.22-8.51,1.79-12.78q1.08-8.1,2.14-16.22l2,.07v33.89l7.24-.53C264.56,334.63,264.62,322.66,264.45,310.7Zm-36.84,21.86,2.06-10.66,1,.17c.58,3.29,1.16,6.59,1.85,10.49Z" fill="#009245"/><path d="M82.19,310.12c-.18-1.36-.38-2.82-.76-5.67-2.15.79-5.21,1.37-5.22,2-.07,3.77-3.12,4.1-5.28,5.61-1.69,1.19-3.81,2.72-4.3,4.5a66.9,66.9,0,0,0-2.29,13.91c-.33,6,2.2,10.52,8,13,1.33.55,2.23,2.1,3.36,3.15.82.77,1.9,2.25,2.5,2.08a9.13,9.13,0,0,0,3.54-2.46c.88-.84,1.28-2.59,2.23-2.9,5.94-1.9,8-6.73,9-12C94.38,323.54,92.77,312.58,82.19,310.12ZM75.3,338.5c-4.45-3-5.14-6.86-5.08-10.65.06-4.06.4-8.36,5.08-12Zm7-.95V315.94C87.78,321.8,87.59,332.94,82.34,337.55Z" fill="#009245"/><path d="M59.49,312.28c-1-3.39-3.86-4.82-7.38-4.74s-7.53-.19-8.75,4c-1.59,5.46-2.44,11.13-3.61,16.72l1.15.19c0,3.16,0,6.31,0,9.46a8.36,8.36,0,0,0,0,1c.63,5.54,3.57,9,8.26,9.82,3.93.65,9-2,10.24-6.16A53.73,53.73,0,0,0,59.49,312.28Zm-5.57,25.1c-.25,1.54-2,2.82-3.13,4.23-.89-1.34-2.48-2.65-2.54-4a185,185,0,0,1,0-18.84c.1-1.64,2-3.18,3.05-4.76.92,1.68,2.37,3.29,2.64,5.07.44,2.91.12,5.94.12,8.91C54.06,331.12,54.41,334.31,53.92,337.38Z" fill="#009245"/><path d="M193,315.82c-.23-5.38-3.12-8-8.06-8.31-5.48-.39-9.31,2-10.48,7.06-1,4.32-1.46,8.77-2.19,13.36.57,3.68,1.19,7.43,1.72,11.19,1,6.87,3.61,9.73,9.05,9.7s9.7-4.07,10-10.36C193.39,330.93,193.35,323.35,193,315.82Zm-6.91,23.34a3.57,3.57,0,0,1-2.53,2.32,3.37,3.37,0,0,1-2.4-2.31q-.08-11.54.39-23.08a3.07,3.07,0,0,1,2.28-2,3.2,3.2,0,0,1,2.39,2c.67,3.73,1,7.52,1.44,11.49C187.2,331.35,186.85,335.29,186.11,339.16Z" fill="#009245"/><path d="M169.43,308.41v38.87H164V329.33l-1.22-.15-4.89,14.15c-1.09,3.12-2.7,5.36-6.86,3.65V308.49c4.37-1.6,5.63.05,5.5,4.06a90.82,90.82,0,0,0,1,18c2.07-6.41,4.39-12.76,6.14-19.27C164.58,307.93,166.25,307.44,169.43,308.41Z" fill="#009245"/><path d="M214.81,308.24v39h-5.42v-17h-5.94v16.91l-5.54.34v-39.3h5.31v15.33l5.88.48V308.24Z" fill="#009245"/><path d="M17.06,308.28v38.49c-5.41,1.61-6,1.28-6-3.87-.06-8.32.13-16.65-.11-25,0-1.42-1.72-2.79-2.64-4.18-.84,1.42-2.37,2.82-2.41,4.26q-.36,12.48-.06,25c.1,4.05-1.23,5.63-5.81,4.17V308.28Z" fill="#009245"/><path d="M38,316.62c-.3-5-3.39-8.34-8.42-8.7-2-.14-4.11-.42-5.95.12-1.3.38-3.16,2-3.18,3.13-.23,11.81-.14,23.62-.14,35.71,7.1,1.14,7.15,1.1,7.18-5.24a42.69,42.69,0,0,1,.09-6c.16-1.08,1-2.74,1.81-2.94C38.34,330.51,38.44,323.76,38,316.62Zm-8.7,9.9-1.47-.29V312.77c1.56,1.66,2.76,2.38,3.07,3.37A11.87,11.87,0,0,1,29.31,326.52Z" fill="#009245"/><path d="M281.88,324.65a3.08,3.08,0,0,0-1.89-.52c-5.77,0-6.81-3.39-6.13-8.19.17-1.14-.08-2.34.05-3.49.48-4.32-1.55-5.31-5.71-4v39.06c3.26,0,6.27.35,9.16-.08,5.17-.75,6.93-5,7.69-9.33C285.88,333.31,286.11,328.33,281.88,324.65ZM274,342.76c0-4.56-.07-7.92.07-11.28a2.31,2.31,0,0,1,1.47-1.65,2.65,2.65,0,0,1,2.07.94C279.25,332.94,277.74,340,274,342.76Z" fill="#009245"/><path d="M198.34,270.71c-.69-5.93-6-9-9.89-6.26-2.69,1.88-3.79,6.12-5.41,9.4a18.89,18.89,0,0,0-1,4.18l-1.58-.06a35.67,35.67,0,0,1-.68-3.94c-.12-2.15.15-4.35-.17-6.47-.18-1.21-1.19-2.29-1.83-3.43-.74,1.2-2,2.37-2.1,3.61-.25,4.64-.1,9.31-.1,14v14.34c5.71-.07,3.85-3.87,4.14-6.17a68.23,68.23,0,0,0,.07-8.22l2.28-.13c.6,2.88,1.14,5.77,1.82,8.62.85,3.58,2.82,6.05,6.82,6.06s6.53-2.23,6.9-5.85C198.31,283.84,199.1,277.15,198.34,270.71Zm-3.88,17.4c-.33,1.5-2.35,2.62-3.61,3.91-1.21-1.32-3.35-2.56-3.46-4a91.36,91.36,0,0,1,0-15.95c.17-1.75,2.56-3.28,3.94-4.91,1.12,1.65,2.79,3.18,3.23,5,.56,2.37.13,5,.13,7.47h-.07C194.63,282.49,195.05,285.41,194.46,288.11Z"/><path d="M107.74,342.18c1.15.33,2.06,1.5,3.08,2.29-1,1-2,2.78-3.1,2.9-3.44.39-7,.14-11.31.14,0-12.68-.06-24.76.11-36.84A3.74,3.74,0,0,1,99.08,308c3.77-.31,7.57-.13,11.42-.13,1.32,4.06.14,5.86-3.75,5.45-3.5-.37-4.81,1-4.52,4.51.23,2.79-.67,5.89,4,5.56,1-.07,2.2,1.57,3.31,2.43-1,1.07-1.92,3.08-2.85,3.06-4-.08-4.74,2-4.46,5.33.2,2.42,0,4.87,0,7.59C104.52,341.94,106.23,341.73,107.74,342.18Z" fill="#009245"/><path d="M120,321.63c-.22,4.31-.12,8.64,0,13,.1,6.26.69,6.74,8.37,7.3,1.46,3.59.07,5.55-3.54,6.5-4,1-9.49-1-10.37-4.7-2.56-10.61-3.2-21.28,1.73-31.5a8.78,8.78,0,0,1,11-4.24c1.14.5,2.54,2.07,2.51,3.11s-1.86,2.53-2.92,2.55C121.24,313.72,120.21,317.42,120,321.63Z" fill="#009245"/><path d="M147.19,341.49c1.5,3.42.34,5.5-3.15,6.69-4.1,1.4-9.45-.2-10.55-4.08-2.92-10.41-3.1-20.93.83-31.19,1.46-3.81,4.64-5.45,8.68-5.47s5.95,1.55,4.39,5.75c-7.41,1.38-7.9,1.73-8.66,9.5a56.17,56.17,0,0,0,0,11.81C139.65,341.84,139.85,341.82,147.19,341.49Z" fill="#009245"/><path d="M135.18,270c-1-3.77-3.06-6.42-7.76-6.13s-6.75,3.6-7.11,7.05a98.54,98.54,0,0,0,.06,18.89,6.59,6.59,0,0,0,6.51,6.39c4.08.2,6.78-1.72,7.72-5.58.89-3.67,1.31-7.45,1.83-10.53C136,276.21,136,273,135.18,270Zm-3.61,17.87c-.4,1.6-2.59,2.75-4,4.11-1.13-1.31-3.15-2.56-3.25-4a106.24,106.24,0,0,1,0-16.35c.14-1.58,2.46-3,3.78-4.43,1.19,1.57,3,3,3.42,4.75.59,2.34.14,4.95.14,7.44h0C131.75,282.26,132.23,285.21,131.57,287.87Z"/><path d="M106.82,276.49a39.88,39.88,0,0,1,.1-6.27,4.26,4.26,0,0,1,2.2-2.57,54,54,0,0,1,6.18-2.21l-7.23-1.5c-.15,0-.33,0-.49,0-3.12-.32-4.49.82-4.41,4.2.18,8-.1,16,.11,23.95,0,1.38,1.38,3.75,2.37,3.89,3.95.56,7.59-.36,9.66-4.42C119.35,283.6,116.67,278.54,106.82,276.49Zm.35,16v-12c3-.92,4.8.22,5.47,3.38C113.68,288.79,112,291.53,107.17,292.52Z"/><path d="M294,308.34v38.87h-5.75V328.39c0-5.32,0-10.64,0-16C288.34,307.76,288.37,307.76,294,308.34Z" fill="#009245"/><path d="M164.79,263.79l-2.06.27q-4,15.7-8,31.42l2,.76c.73-1.11,2.07-2.21,2.09-3.32.1-7,4.69-5.61,8.86-5.18,2.35,7.61,2.35,7.61,5.79,7.65C170.51,284.76,169,273.9,164.79,263.79Zm-4,20.16c1-3.75,2-7.13,3.11-11.38C168.12,284.2,167.92,284.94,160.82,284Z"/><path d="M93.44,266.78c-.26-1-1.57-1.65-2.39-2.46-.63.81-1.56,1.53-1.83,2.45-1.49,5-2.9,10.1-4.18,15.19-1.13,4.48-2.06,9-3.08,13.52l1.66.82c.83-1.2,2.19-2.33,2.37-3.61.46-3.44,1.53-5.36,5.56-5.35s4.11,2.8,5,5.42c.48,1.37,1.8,2.44,2.73,3.65l1.41-1C98.33,285.84,96,276.29,93.44,266.78ZM88.3,284.2c1-4.45,1.87-8.53,2.76-12.61l.71.24c.71,4,1.42,8,2.21,12.37Z"/><path d="M79.57,268c-2.11-4.11-6-4.5-9.92-4-4.32.56-2.27,4.2-2.36,6.39-.28,7-.12,14-.08,21,0,1.52.24,3,.38,4.56l2.63.06c0-2.94-.31-5.92.13-8.79.23-1.52,1.48-3.68,2.76-4.13C79.75,280.8,82.78,274.25,79.57,268Zm-3.63,8.12a30.19,30.19,0,0,1-3.73,3.68,28.71,28.71,0,0,1-1.93-3.89,10,10,0,0,1,0-2.95l-.83-.41c1-1.89,1.92-5.32,3-5.38,3.91-.2,3.79,3.16,3.71,6C76.09,274.21,76.42,275.47,75.94,276.13Z"/><path d="M150.13,267.57a12.4,12.4,0,0,1-2.33.47c0,7.78.1,15.39-.08,23,0,1.65-1.11,3.27-1.71,4.91-.68-1.58-1.89-3.15-1.94-4.75-.22-6.3-.06-12.61-.06-18.91,0-2.63-.08-5.11-3.9-4.85-.79.05-1.66-1.06-2.49-1.64,1-.6,1.92-1.64,2.94-1.72a64.66,64.66,0,0,1,9.44,0c1.2.08,2.34,1,3.51,1.59C152.39,266.27,151.28,267,150.13,267.57Z"/><path d="M213.28,267.59a10.33,10.33,0,0,1-2.51.56c0,8.06.1,15.69-.08,23.32,0,1.46-1.2,2.9-1.84,4.35-.62-1.48-1.72-2.94-1.77-4.43-.19-6.31-.11-12.64,0-19,0-2.76-.19-5-3.87-4.94-.86,0-1.75-1.33-2.62-2.05.9-.5,1.79-1.38,2.72-1.43a89.62,89.62,0,0,1,10,0c1.09.06,2.12,1,3.18,1.47C215.38,266.19,214.38,267,213.28,267.59Z"/><path d="M186.42,230H142c0-6.06.07-11.83,0-17.61-.14-8-2.74-15.59-8.11-20.95-6.95-6.93-7.25-14.7-6.53-23.25.52-6.13,1.06-12.25,1.43-18.39.31-5,2-8.19,7.59-9.37,10.95-2.31,21.73-5.38,33.19-8.29-1.25,8-2.39,15.42-3.56,22.83s-2.49,15-3.57,22.57c-.51,3.63,1.85,4.75,4.95,4.47s4.58.48,3.2,4.36H147.1c-1.79,7.79-1.45,8.24,5.83,8.27,5.33,0,10.67-.17,16,.13,1.3.07,3.62,1.71,3.61,2.61-.1,11.84,5.54,21.19,12.44,30.07A27.42,27.42,0,0,1,186.42,230Z" fill="#fff"/><path d="M229.87,59.15c0-2.61-.6-4.07-3.34-5.22a19.15,19.15,0,0,1-6.69-5.56c-2.15-2.62-3.68-5.74-5.81-9.17-10.24,13.27-23.9,16.91-39.89,16.32,0,10.9-.27,21,.13,31.15.17,4.32,2.94,7.6,7.07,9.56,5.71,2.7,11.22,5.86,17,8.26a10.62,10.62,0,0,0,7.47,0c6.23-2.68,12.23-5.94,18.2-9.19a10.14,10.14,0,0,0,5.8-9.7C229.72,76.81,229.77,68,229.87,59.15Zm-43.27,12c-5.48.07-3.76-3.83-3.87-6.58-.1-2.56-1.2-5.69,3.59-5.8,5.25-.13,3.55,3.42,3.91,6.17C189.64,67.22,191.86,71,186.6,71.11Zm26.67,19.48c-1,4-7.14,5.8-15.38,4.87-3.93-.45-6.62-3.23-7.13-7.95,7,0,13.86-.08,20.76.14C212.17,87.67,213.48,89.77,213.27,90.59Zm4.9-19.45c-3.68-.06-4.62-1.56-4.39-4.81.17-2.27,0-4.56,0-7.15h8.53c0,2.47-.08,4.74,0,7C222.49,69.18,222.13,71.2,218.17,71.14Z" fill="#fff"/><path d="M217.94,229.85c2.89-4.44,5.73-8.08,7.76-12.12A59.51,59.51,0,0,0,230.93,204c1.19-5.46,1.33-11.17,1.75-16.78.25-3.38.88-5.84,5.23-5.28,3.26.43,3.9-1.9,3.54-4.54-1.18-8.69-2.42-17.36-3.65-26-.86-6-1.73-12-2.73-18.93,5,1.14,9.16,1.77,13,3.22,1.13.43,1.92,3.2,1.93,4.9.14,21.3.1,42.6.11,63.9v25.38Z" fill="#fff"/><path d="M202.17,159.65c-7.88-11.23-15.12-21.54-22.33-31.87-.37-.53-.84-1.3-.71-1.82,1.62-6.33,3.33-12.64,5.36-20.24,12.22,10,23.79,9.37,35.34.28,2,6.86,3.76,12.47,5.31,18.13a4.53,4.53,0,0,1-.45,3.32C217.43,138,210.06,148.4,202.17,159.65Z" fill="#fff"/><path d="M107.71,172c7.84,9.62,15.56,18.09,22.1,27.39,6.38,9.06,5,19.86,4.55,30.87-6.21,0-12.18.37-18.06-.22-1.92-.19-4.16-2.58-5.28-4.53-3.12-5.44-5.33-11.44-8.68-16.72s-3-10.48-1.2-16C103.26,186.38,105.22,179.92,107.71,172Z" fill="#fff"/><path d="M166.49,86.67c.46,6.72,3.46,11.21,8.24,14.8a4.77,4.77,0,0,1,1.61,3.94,128.72,128.72,0,0,1-4,14.27c-.59,1.7-2,4-3.46,4.39-9.56,2.66-19.24,4.88-28.85,7.24-2.22-7,1.76-15.94,9.73-20.6,4.29-2.5,4.51-4.83,2.52-8.84a18.27,18.27,0,0,1-1.5-7.65c-.1-6.5,1.5-7.86,7.77-7.57C161,86.76,163.47,86.67,166.49,86.67Z" fill="#fff"/><path d="M206.74,172.44c6,1.93,11.4,3.47,16.62,5.49,1,.39,2,2.67,1.85,4-.83,8.86-.52,18.21-3.42,26.4-2.81,7.94-9,14.69-13.73,22l-1.32-.55Z" fill="#fff"/><path d="M196.31,230.66c-4.74-10.43-14.86-17-15.1-29.41-.11-5.75-1.39-11.5-2.39-17.21-.64-3.65-.24-6,4.12-6.83,3.85-.75,7.52-2.5,11.27-3.8,2.26-.78,4.08-.67,4.07,2.36q-.1,26.46-.26,52.91C198,228.92,197.62,229.16,196.31,230.66Z" fill="#fff"/><path d="M249.76,86.73v40.81c-4.92-1.11-9.45-1.9-13.81-3.26-1.38-.43-2.67-2.19-3.34-3.65-1.15-2.54-1.75-5.34-2.65-8-1.85-5.45-3.71-10.65,3.16-14.47,1.87-1,3.45-4,3.68-6.27.45-4.51,2.66-5.59,6.62-5.19C245.39,86.9,247.39,86.73,249.76,86.73Z" fill="#fff"/><path d="M178.1,139.19c5.35,7.56,10.74,15.09,16,22.74.49.72.14,3.07-.32,3.24-7.22,2.55-14.53,4.86-22.42,7.42,1.84-11.79,3.53-22.56,5.21-33.32Z" fill="#fff"/><path d="M208.57,164.63l19.05-27.12c1.9,12.31,3.55,23,5.41,35.07Z" fill="#fff"/><path d="M92.68,156.37c7.12,4.44,8.62,7.61,6.72,14.73C97.8,177.1,96,183,94,189.63c-6.53-6.91-7.23-14-4.43-21.94C90.87,164.13,91.61,160.38,92.68,156.37Z" fill="#fff"/><path d="M166.77,69c0,1.65,0,3.31,0,5,0,2.56.81,5.5-3.57,5.46-4,0-7.5-.61-8.13-5.24a49.39,49.39,0,0,1-.08-9.42c.27-4.53,6.63-7.93,10.5-5.6.74.45,1.15,1.88,1.23,2.89C166.9,64.37,166.77,66.7,166.77,69Z" fill="#fff"/><path d="M238.29,68.92a22,22,0,0,1,0-4c.43-2.22-1.83-5.71,2.77-6.12,4.1-.35,8.36,2,8.85,5.61a32.74,32.74,0,0,1,0,9.43c-.68,4.18-5.65,6.84-9.68,5.39a4,4,0,0,1-1.9-2.86,66.38,66.38,0,0,1-.09-7.47Z" fill="#fff"/><path d="M87,38.68c0,16.57.15,32.85-.08,49.14-.08,5.52-4.58,2.35-8,3.44,0-7.24,0-14,0-20.71s-.49-7.28-7.44-7.3c-4.83,0-9.66.12-14.48,0-4.25-.14-6.05,1.66-6,5.94.16,7.12,0,14.25,0,21.61H43.6c0-10.48-.06-20.89.1-31.3A4.22,4.22,0,0,1,46,56.59c12.9-6.12,25.87-12.12,38.84-18.1C85.17,38.31,85.74,38.55,87,38.68Z" fill="#fff"/><path d="M111.39,43.69C116.63,48.3,121,51.89,125,55.8a7.61,7.61,0,0,1,1.91,4.85c.18,8.83,0,17.66.12,26.5,0,2.62-.68,3.82-3.64,4-12.31.59-12.3.69-12.3-11.66,0-10.17,0-20.33,0-30.5C111.09,47.68,111.23,46.41,111.39,43.69Z" fill="#fff"/><path d="M102.34,90.74H95V68.62c0-10.15-.13-20.3.12-30.44,0-1.87,1.65-3.71,2.54-5.56,1.55,1.87,4.41,3.71,4.44,5.61C102.48,55.51,102.34,72.79,102.34,90.74Z" fill="#fff"/><path d="M71.23,90.08c-.48.45-.59.65-.72.66-11.37,1.51-11.45,1.44-11.45-9.83v-3c0-6.91,0-6.69,6.83-6.94,4.3-.15,6.07,1.08,5.62,5.63-.41,4.12-.09,8.32-.1,12.49A5.18,5.18,0,0,1,71.23,90.08Z" fill="#fff"/><path d="M232.52,332.56h-4.91l2.06-10.66,1,.17C231.25,325.36,231.83,328.66,232.52,332.56Z" fill="#fff"/><path d="M75.3,338.5c-4.45-3-5.14-6.86-5.08-10.65.06-4.06.4-8.36,5.08-12Z" fill="#fff"/><path d="M82.34,315.94c5.44,5.86,5.25,17,0,21.61Z" fill="#fff"/><path d="M54.07,328c0,3.15.34,6.35-.15,9.41-.25,1.54-2,2.83-3.13,4.23-.89-1.34-2.48-2.65-2.54-4a185,185,0,0,1,0-18.84c.1-1.64,2-3.18,3.05-4.76.92,1.68,2.37,3.29,2.64,5.07C54.39,322,54.07,325,54.07,328Z" fill="#fff"/><path d="M187.68,327.54c-.48,3.81-.83,7.75-1.57,11.62a3.57,3.57,0,0,1-2.53,2.32,3.34,3.34,0,0,1-2.39-2.31c-.06-7.69.08-15.39.38-23.08a3.07,3.07,0,0,1,2.28-2,3.2,3.2,0,0,1,2.39,2C186.91,319.78,187.22,323.57,187.68,327.54Z" fill="#fff"/><path d="M27.84,326.23V312.77c1.56,1.66,2.76,2.38,3.07,3.37a11.87,11.87,0,0,1-1.6,10.38Z" fill="#fff"/><path d="M274,342.76c0-4.56-.07-7.92.07-11.28a2.31,2.31,0,0,1,1.47-1.65,2.65,2.65,0,0,1,2.07.94C279.25,332.94,277.74,340,274,342.76Z" fill="#fff"/><path d="M194.63,279.66c0,2.83.42,5.75-.17,8.45-.33,1.5-2.35,2.62-3.61,3.91-1.21-1.32-3.35-2.56-3.46-4a91.36,91.36,0,0,1,0-15.95c.17-1.75,2.56-3.28,3.94-4.91,1.12,1.66,2.79,3.18,3.23,5,.56,2.36.13,5,.13,7.46Z" fill="#fff"/><path d="M131.75,279.44c0,2.82.48,5.77-.18,8.43-.4,1.6-2.59,2.75-4,4.11-1.13-1.31-3.15-2.56-3.25-4a106.24,106.24,0,0,1,0-16.35c.14-1.58,2.46-3,3.78-4.43,1.19,1.57,3,3,3.42,4.75.59,2.34.14,4.95.14,7.44Z" fill="#fff"/><path d="M107.17,292.52v-12c3-.92,4.8.22,5.47,3.38C113.68,288.79,112,291.53,107.17,292.52Z" fill="#fff"/><path d="M160.82,284c1-3.75,2-7.13,3.11-11.38C168.12,284.2,167.92,284.94,160.82,284Z" fill="#fff"/><path d="M91.77,271.83c.71,4,1.42,8,2.21,12.37H88.3c1-4.45,1.87-8.53,2.76-12.61Z" fill="#fff"/><path d="M69.4,272.56c1-1.89,1.92-5.32,3-5.38,3.91-.2,3.79,3.16,3.71,6,0,1,.3,2.25-.18,2.91a30.19,30.19,0,0,1-3.73,3.68,28.71,28.71,0,0,1-1.93-3.89,10,10,0,0,1,0-2.95Z" fill="#fff"/><path d="M190.76,87.51c7,0,13.86-.08,20.76.14.65,0,2,2.12,1.75,2.94-1,4-7.14,5.8-15.38,4.87C194,95,191.27,92.23,190.76,87.51Z" fill="#009245"/><path d="M213.82,59.18h8.53c0,2.47-.08,4.74,0,7,.12,3-.24,5-4.2,5-3.68-.06-4.62-1.56-4.39-4.81C214,64.06,213.82,61.77,213.82,59.18Z" fill="#009245"/><path d="M190.23,64.9c-.59,2.32,1.63,6.14-3.63,6.21-5.48.07-3.76-3.83-3.87-6.58-.1-2.55-1.2-5.69,3.59-5.8C191.57,58.6,189.87,62.15,190.23,64.9Z" fill="#009245"/></g></g></svg>