<svg xmlns="http://www.w3.org/2000/svg" viewBox="0 0 297.27 350.42"><g id="Слой_2" data-name="Слой 2"><g id="Слой_1-2" data-name="Слой 1"><path d="M256.8,85.43c0-3.69.19-7.4,0-11.09-.36-6,2.18-12.92-3-17.58-4.08-3.64-4.73-7.6-4.4-12.39.14-2.15-.15-4.34.06-6.49.32-3.32-1.07-4.34-4.29-4.33s-4.52.89-4.33,4.28c.26,4.53.07,9.08.07,13.63l-1.56.44a40.64,40.64,0,0,0-3.1-2.63c-1.16-.82-2.51-2.15-3.67-2.05-4.47.4-6.62-2.11-8.47-5.58s-3.84-6.6-5.82-9.86c-3.27-5.36-6.15-5.51-9.43-.26-4.82,7.71-11.38,13.21-20.31,15-4.83.94-9.94.4-14.92.6-3.05.13-6.48-.63-7.9,3.56-.21.64-2.2.68-4.09,1.19,0-7.14-.13-13.12,0-19.1.28-10.82,8.22-21.5,17.89-23.77A61.22,61.22,0,0,1,191.26,7.6c6.32-.21,12.68.28,19-.12,13.6-.89,23.56,4.36,29.67,17,2.59-1.6,8.36-.29,5.7-5.7C240.31,8,231.64.85,219.2.25c-11.63-.55-23.31,0-35-.15-14-.18-30.43,14.79-30.07,31,.14,6,.06,12-.09,18,0,1.35-.39,3.26-1.31,3.91-8.71,6.25-8.06,14.84-6.45,23.83.28,1.51.47,3.55-.3,4.67-4.12,6-4.42,12.59-3.57,19.54a8.05,8.05,0,0,1-1.94,5.82c-5.18,5.26-8.79,11.11-9.94,18.55-.7,4.56-1.35,9-5.91,12.36-2.42,1.77-3.51,6.25-4,9.66-1.06,8.14-1.37,16.38-2,25.32a30.11,30.11,0,0,1-3.31-2.75c-4.39-5-8.78-10-13-15.12q-12-14.39-23.76-28.91c-2.21-2.72-4.81-4-7.64-1.46-5.7,5.14-9.81,11-6.39,19.27a11.53,11.53,0,0,1,.24,2.93H26.14c-7.43,0-10.18,4.66-6.28,11A116.85,116.85,0,0,0,29,170.79c4.17,5,9.36,8.76,16.26,10,.81-2.46,1.5-4.58,2.34-7.11-9.68-3-15.27-9.71-19.41-18.72,1.76-.17,2.87-.36,4-.37,11.33,0,22.66,0,34-.08,8.18-.05,8.87-1.46,6.7-9.69-.94-3.57-3.45-7.78,1.3-11.92,3.71,4.85,7.37,9.48,10.81,14.26a4.54,4.54,0,0,1,.29,3.37c-2,8-4.17,15.86-6.42,24.29H55.09c-.84,7.46-.84,7.47,5.59,7.49,4.5,0,9,.28,13.49-.09,4.14-.35,6.34,1.32,8.1,4.93,6.76,13.9,14,27.57,20.59,41.55,3.13,6.66,7.77,9.21,14.91,9.19q66.47-.21,132.94,0c4.39,0,6.18-1.22,6.17-6C256.74,183.07,256.8,134.25,256.8,85.43ZM232.33,98.16c1.87-1,3.45-4,3.68-6.27.45-4.51,2.66-5.59,6.62-5.19,2,.2,4,0,6.34,0v40.81c-4.92-1.11-9.45-1.9-13.81-3.26-1.38-.43-2.67-2.19-3.34-3.65-1.15-2.54-1.75-5.34-2.65-8C227.32,107.18,225.46,102,232.33,98.16Zm-.09,74.42-24.46-8,19.05-27.12C228.73,149.82,230.38,160.55,232.24,172.58ZM173.35,55.52c16,.59,29.65-3.05,39.89-16.32,2.13,3.43,3.66,6.55,5.81,9.17a19.15,19.15,0,0,0,6.69,5.56c2.74,1.15,3.37,2.61,3.34,5.22-.1,8.83-.15,17.66,0,26.49a10.14,10.14,0,0,1-5.8,9.7c-6,3.25-12,6.51-18.2,9.19a10.62,10.62,0,0,1-7.47,0c-5.83-2.4-11.34-5.56-17-8.26-4.13-2-6.9-5.24-7.07-9.56C173.08,76.56,173.35,66.42,173.35,55.52Zm4,83.67c5.35,7.56,10.74,15.09,15.95,22.74.49.72.14,3.07-.32,3.24-7.22,2.55-14.53,4.86-22.42,7.42,1.84-11.79,3.53-22.56,5.21-33.33ZM154.2,64.78c.27-4.53,6.63-7.93,10.5-5.6.74.45,1.15,1.88,1.23,2.89.18,2.3,0,4.63,0,6.95,0,1.65,0,3.3,0,5,0,2.56.81,5.5-3.57,5.46-4,0-7.5-.61-8.13-5.24A49.39,49.39,0,0,1,154.2,64.78Zm-5.27,45.93c4.29-2.5,4.51-4.83,2.52-8.84a18.27,18.27,0,0,1-1.5-7.65c-.1-6.5,1.5-7.86,7.77-7.57,2.47.11,5,0,8,0,.46,6.72,3.46,11.21,8.24,14.79a4.81,4.81,0,0,1,1.61,4,128.72,128.72,0,0,1-4,14.27c-.59,1.7-2,4-3.46,4.39-9.56,2.66-19.24,4.88-28.85,7.23C137,124.34,141,115.37,148.93,110.71ZM93.25,189.63c-6.53-6.91-7.23-14-4.43-21.94,1.26-3.56,2-7.31,3.07-11.32,7.12,4.44,8.62,7.61,6.72,14.73C97,177.1,95.17,183,93.25,189.63Zm40.32,40.63c-6.21,0-12.18.38-18.06-.21-1.92-.19-4.16-2.58-5.28-4.53-3.12-5.44-5.33-11.44-8.68-16.72s-3-10.48-1.2-16c2.12-6.41,4.08-12.87,6.57-20.78,7.84,9.62,15.56,18.09,22.1,27.39C135.4,208.46,134,219.26,133.57,230.26Zm7.65-.31c0-6,.07-11.82,0-17.6-.14-8-2.74-15.59-8.11-20.95-7-6.93-7.25-14.7-6.53-23.25.52-6.13,1.06-12.25,1.43-18.39.31-5,2-8.19,7.59-9.37,10.95-2.31,21.73-5.38,33.19-8.29-1.25,8-2.39,15.42-3.56,22.83s-2.49,15-3.57,22.57c-.51,3.63,1.85,4.75,5,4.47s4.58.48,3.2,4.36H146.31c-1.79,7.79-1.45,8.24,5.83,8.27,5.33,0,10.67-.17,16,.13,1.3.07,3.62,1.71,3.61,2.61-.1,11.84,5.54,21.19,12.44,30.07a28.2,28.2,0,0,1,1.45,2.54Zm56-1.27c0,.24-.4.48-1.71,2-4.74-10.43-14.86-17-15.1-29.41-.11-5.75-1.39-11.5-2.39-17.21-.64-3.65-.24-6,4.12-6.83,3.85-.76,7.52-2.5,11.27-3.8,2.26-.78,4.08-.67,4.06,2.36Q197.39,202.23,197.23,228.68Zm-18.18-100.9c-.37-.53-.84-1.3-.71-1.82,1.62-6.33,3.33-12.64,5.36-20.24,12.22,10,23.79,9.37,35.34.28,2,6.85,3.76,12.47,5.31,18.13a4.53,4.53,0,0,1-.45,3.32c-7.26,10.52-14.63,21-22.52,32.2C193.5,148.42,186.26,138.11,179.05,127.78ZM206,229.72V172.44c6,1.92,11.4,3.47,16.62,5.49,1,.39,2,2.67,1.85,4-.83,8.86-.52,18.21-3.42,26.4-2.81,7.94-9,14.69-13.73,22Zm43.41.13H217.15c2.89-4.44,5.73-8.08,7.76-12.12A59.41,59.41,0,0,0,230.14,204c1.19-5.45,1.33-11.16,1.75-16.77.25-3.38.88-5.84,5.23-5.28,3.26.43,3.9-1.9,3.54-4.54-1.18-8.69-2.42-17.36-3.65-26-.86-6-1.73-12-2.73-18.93,5,1.14,9.16,1.77,13,3.22,1.13.42,1.92,3.2,1.93,4.9.14,21.3.1,42.6.11,63.89Zm-.23-156c-.68,4.17-5.65,6.84-9.68,5.39a4,4,0,0,1-1.9-2.86,66.38,66.38,0,0,1-.09-7.47h0a22,22,0,0,1,0-4c.43-2.22-1.83-5.71,2.77-6.12,4.1-.36,8.36,2,8.85,5.61A32.74,32.74,0,0,1,249.13,73.86Z" fill="#009245"/><path d="M133.64,56.67a8.37,8.37,0,0,0-2.54-5.47c-9.23-8.37-18.77-16.4-28-24.76-3.24-2.93-6.13-3-9.9-1.2-18,8.57-36,17.06-54.14,25.33-3.58,1.64-4.93,3.79-4.88,7.6.15,11.31,0,22.63.07,34,0,5.79.74,6.61,6.66,6.64,14.31.08,28.63,0,42.94,0v0c14.48,0,29-.09,43.43,0,4.47,0,6.67-1.21,6.56-6.2C133.56,80.64,133.86,68.65,133.64,56.67ZM70.72,76.6c-.41,4.12-.09,8.32-.1,12.49a5.18,5.18,0,0,1-.18,1c-.48.45-.59.64-.72.66-11.37,1.51-11.45,1.44-11.45-9.83v-3c0-6.91,0-6.69,6.83-6.94C69.4,70.82,71.17,72.05,70.72,76.6ZM86.15,87.82c-.08,5.52-4.58,2.35-8,3.44,0-7.24,0-14,0-20.71s-.49-7.28-7.44-7.3c-4.83,0-9.66.12-14.48,0-4.25-.14-6,1.66-5.95,5.94.16,7.12,0,14.25,0,21.61H42.81c0-10.48-.06-20.89.1-31.3a4.22,4.22,0,0,1,2.25-2.87C58.06,50.47,71,44.47,84,38.49c.38-.18,1,.06,2.23.19C86.23,55.25,86.38,71.53,86.15,87.82Zm15.4,2.92H94.24V68.62c0-10.15-.13-20.3.12-30.44,0-1.87,1.65-3.71,2.54-5.56,1.55,1.87,4.41,3.71,4.44,5.61C101.69,55.51,101.55,72.79,101.55,90.74Zm21,.37c-12.31.59-12.3.69-12.3-11.66,0-10.17,0-20.33,0-30.5,0-1.27.14-2.54.29-5.26,5.25,4.61,9.6,8.19,13.62,12.11a7.61,7.61,0,0,1,1.91,4.85c.18,8.83,0,17.66.12,26.5C126.27,89.77,125.56,91,122.6,91.11Z" fill="#8cc63f"/><path d="M129.19,107.81v6.63c-4.77-.77-6.35,2.08-7.28,6a84.58,84.58,0,0,1-3,8.89c-2.15,6-3.93,6.64-9.53,3.55-9.89-5.45-19.75-11-29.75-16.23a17.29,17.29,0,0,0-7.52-1.92c-13.82-.2-27.65-.12-41.48-.15-9.55,0-12.26-2.74-12.3-12.53q-.07-24,0-48c0-3.31,0-6.63,0-10.09,8.31-1.67,8.62-1.44,8.62,5.85q0,26,0,52v5.37H41.38c4.83,0,9.72.48,14.48-.09,16.46-2,31.13,2.23,44.58,11.68,3.22,2.26,6.91,3.85,11.18,6.18,1.29-3.44,2.46-6.44,3.54-9.48C118.41,106.41,119,106.05,129.19,107.81Z" fill="#8cc63f"/><path d="M149.51,8v7.06c-1.42.11-2.84.32-4.26.32-37.49,0-75,0-112.47-.1-4.45,0-6.43,1.09-6,5.89.39,4.43.08,8.93.08,14H18.07c.32-7,.21-14,1.09-20.77a7.68,7.68,0,0,1,8-6.81q60.48-.06,121,0A7.06,7.06,0,0,1,149.51,8Z" fill="#8cc63f"/><path d="M185.63,230H141.21c0-6.06.08-11.83,0-17.61-.14-8-2.74-15.59-8.11-20.95-7-6.93-7.25-14.7-6.53-23.25.52-6.13,1-12.25,1.43-18.39.31-5,2-8.19,7.59-9.37,10.95-2.31,21.73-5.38,33.19-8.29-1.25,8-2.39,15.42-3.56,22.83s-2.5,15-3.57,22.57c-.52,3.63,1.85,4.75,5,4.47s4.57.48,3.19,4.36H146.3c-1.78,7.79-1.44,8.24,5.84,8.27,5.33,0,10.67-.17,16,.13,1.3.07,3.61,1.71,3.61,2.61-.1,11.84,5.54,21.19,12.44,30.07A27.42,27.42,0,0,1,185.63,230Z" fill="#fff"/><path d="M229.08,59.15c0-2.61-.6-4.07-3.34-5.22a19.15,19.15,0,0,1-6.69-5.56c-2.15-2.62-3.68-5.74-5.81-9.17C203,52.47,189.34,56.11,173.35,55.52c0,10.9-.27,21,.13,31.15.17,4.32,2.94,7.6,7.07,9.56,5.71,2.7,11.22,5.86,17,8.26a10.62,10.62,0,0,0,7.47,0c6.23-2.68,12.23-5.94,18.2-9.19a10.14,10.14,0,0,0,5.8-9.7C228.93,76.81,229,68,229.08,59.15Zm-43.27,12c-5.48.07-3.76-3.83-3.87-6.58-.1-2.56-1.2-5.69,3.59-5.8,5.25-.13,3.55,3.42,3.91,6.17C188.85,67.22,191.07,71,185.81,71.11Zm26.67,19.48c-1,4-7.14,5.8-15.38,4.87-3.93-.45-6.62-3.23-7.13-7.95,7,0,13.86-.08,20.76.14C211.38,87.67,212.69,89.77,212.48,90.59Zm4.9-19.45c-3.68-.06-4.62-1.56-4.39-4.81.17-2.27,0-4.56,0-7.15h8.53c0,2.47-.08,4.74,0,7C221.7,69.18,221.34,71.2,217.38,71.14Z" fill="#fff"/><path d="M217.15,229.85c2.89-4.44,5.73-8.08,7.76-12.12A60,60,0,0,0,230.14,204c1.19-5.46,1.33-11.17,1.74-16.78.25-3.38.89-5.84,5.23-5.28,3.27.43,3.91-1.9,3.55-4.54-1.18-8.69-2.42-17.36-3.66-26-.85-6-1.73-12-2.72-18.93,5,1.14,9.16,1.77,13,3.22,1.12.43,1.92,3.2,1.93,4.9.14,21.3.1,42.6.11,63.9v25.38Z" fill="#fff"/><path d="M201.38,159.65c-7.88-11.23-15.12-21.54-22.33-31.87-.37-.53-.84-1.3-.71-1.82,1.62-6.33,3.33-12.64,5.36-20.24,12.22,10,23.79,9.37,35.34.28,2,6.86,3.76,12.47,5.31,18.13a4.53,4.53,0,0,1-.45,3.32C216.64,138,209.27,148.4,201.38,159.65Z" fill="#fff"/><path d="M106.92,172c7.84,9.62,15.56,18.09,22.1,27.39,6.38,9.06,5,19.86,4.55,30.87-6.21,0-12.19.37-18.06-.22-1.92-.19-4.16-2.58-5.28-4.53-3.13-5.44-5.33-11.44-8.68-16.72s-3-10.48-1.2-16C102.46,186.38,104.43,179.92,106.92,172Z" fill="#fff"/><path d="M165.7,86.67c.46,6.72,3.46,11.21,8.24,14.8a4.8,4.8,0,0,1,1.6,3.94,126.54,126.54,0,0,1-4,14.27c-.6,1.7-2,4-3.46,4.39-9.56,2.66-19.24,4.88-28.85,7.24-2.22-7,1.76-15.94,9.73-20.6,4.28-2.5,4.51-4.83,2.52-8.84a18.28,18.28,0,0,1-1.51-7.65c-.09-6.5,1.51-7.86,7.78-7.57C160.19,86.76,162.68,86.67,165.7,86.67Z" fill="#fff"/><path d="M206,172.44c6,1.93,11.4,3.47,16.62,5.49,1,.39,2,2.67,1.85,4-.84,8.86-.52,18.21-3.42,26.4-2.81,7.94-9,14.69-13.73,22l-1.32-.55Z" fill="#fff"/><path d="M195.52,230.66c-4.74-10.43-14.86-17-15.1-29.41-.11-5.75-1.39-11.5-2.39-17.21-.64-3.65-.24-6,4.11-6.83,3.86-.75,7.53-2.5,11.28-3.8,2.26-.78,4.07-.67,4.06,2.36q-.09,26.46-.26,52.91C197.22,228.92,196.83,229.16,195.52,230.66Z" fill="#fff"/><path d="M249,86.73v40.81c-4.92-1.11-9.45-1.9-13.82-3.26-1.38-.43-2.67-2.19-3.33-3.65-1.15-2.54-1.75-5.34-2.65-8-1.85-5.45-3.71-10.65,3.16-14.47,1.87-1,3.45-4,3.67-6.27.46-4.51,2.67-5.59,6.63-5.19C244.6,86.9,246.6,86.73,249,86.73Z" fill="#fff"/><path d="M177.31,139.19c5.34,7.56,10.74,15.09,15.95,22.74.49.72.14,3.07-.32,3.24-7.22,2.55-14.53,4.86-22.42,7.42,1.84-11.79,3.52-22.56,5.21-33.32Z" fill="#fff"/><path d="M207.78,164.63l19-27.12c1.9,12.31,3.56,23,5.42,35.07Z" fill="#fff"/><path d="M91.88,156.37c7.13,4.44,8.63,7.61,6.73,14.73-1.6,6-3.44,11.93-5.37,18.53-6.52-6.91-7.22-14-4.42-21.94C90.08,164.13,90.82,160.38,91.88,156.37Z" fill="#fff"/><path d="M166,69c0,1.65,0,3.31,0,5,0,2.56.81,5.5-3.57,5.46-4,0-7.5-.61-8.13-5.24a48.58,48.58,0,0,1-.08-9.42c.27-4.53,6.63-7.93,10.5-5.6.74.45,1.15,1.88,1.23,2.89C166.11,64.37,166,66.7,166,69Z" fill="#fff"/><path d="M237.49,68.92a21.12,21.12,0,0,1,0-4c.43-2.22-1.83-5.71,2.76-6.12,4.11-.35,8.36,2,8.86,5.61a32.39,32.39,0,0,1,0,9.43c-.67,4.18-5.64,6.84-9.67,5.39a4,4,0,0,1-1.9-2.86,66.38,66.38,0,0,1-.09-7.47Z" fill="#fff"/><path d="M86.23,38.68c0,16.57.14,32.85-.08,49.14-.08,5.52-4.58,2.35-8,3.44,0-7.24,0-14,0-20.71s-.49-7.28-7.43-7.3c-4.83,0-9.66.12-14.48,0-4.25-.14-6,1.66-5.95,5.94.16,7.12,0,14.25,0,21.61H42.81c0-10.48-.07-20.89.1-31.3a4.24,4.24,0,0,1,2.24-2.87C58.06,50.47,71,44.47,84,38.49,84.38,38.31,85,38.55,86.23,38.68Z" fill="#fff"/><path d="M110.59,43.69c5.25,4.61,9.6,8.2,13.62,12.11a7.55,7.55,0,0,1,1.9,4.85c.19,8.83,0,17.66.13,26.5,0,2.62-.68,3.82-3.64,4-12.31.59-12.3.69-12.3-11.66q0-15.26,0-30.5C110.3,47.68,110.44,46.41,110.59,43.69Z" fill="#fff"/><path d="M101.55,90.74H94.24V68.62c0-10.15-.13-20.3.12-30.44,0-1.87,1.65-3.71,2.54-5.56,1.55,1.87,4.4,3.71,4.44,5.61C101.69,55.51,101.55,72.79,101.55,90.74Z" fill="#fff"/><path d="M70.44,90.08c-.48.45-.59.65-.72.66-11.37,1.51-11.45,1.44-11.45-9.83v-3c0-6.91,0-6.69,6.83-6.94,4.29-.15,6.07,1.08,5.62,5.63-.41,4.12-.09,8.32-.1,12.49A5.18,5.18,0,0,1,70.44,90.08Z" fill="#fff"/><path d="M190,87.51c7,0,13.86-.08,20.76.14.65,0,2,2.12,1.75,2.94-1,4-7.14,5.8-15.38,4.87C193.17,95,190.48,92.23,190,87.51Z" fill="#009245"/><path d="M213,59.18h8.54c0,2.47-.08,4.74,0,7,.13,3-.23,5-4.19,5-3.68-.06-4.62-1.56-4.39-4.81C213.15,64.06,213,61.77,213,59.18Z" fill="#009245"/><path d="M189.44,64.9c-.59,2.32,1.63,6.14-3.63,6.21-5.48.07-3.77-3.83-3.87-6.58-.11-2.55-1.2-5.69,3.59-5.8C190.78,58.6,189.08,62.15,189.44,64.9Z" fill="#009245"/><path d="M75.09,258.67q4.3,0,6.32,2.14t2,6.79c0,3.5-.76,6-2.28,7.6a8,8,0,0,1-6,2.33H73.49v12.16a.72.72,0,0,1-.16.55,2.67,2.67,0,0,1-1.06.16H69.88v-31a.75.75,0,0,1,.16-.56.76.76,0,0,1,.57-.16Zm.4,15.46a3.16,3.16,0,0,0,3-1.61,11.08,11.08,0,0,0,1-5.33,7.59,7.59,0,0,0-.83-3.93,3,3,0,0,0-2.8-1.37H73.49v12.24Z"/><path d="M103.79,289.74a.5.5,0,0,1-.23.59,3.41,3.41,0,0,1-1.35.17c-.81,0-1.54,0-2.18-.09l-1.91-8.07H90.23l-1.77,7.44a.91.91,0,0,1-.44.56,3.12,3.12,0,0,1-1.28.16c-.63,0-1.39-.05-2.26-.14l8.11-31.2c.09-.42.55-.63,1.36-.63a8.21,8.21,0,0,1,1.72.14ZM97.3,279l-1.54-6.52a62.29,62.29,0,0,1-1.57-8.75,85.24,85.24,0,0,1-1.65,8.75L91,279Z"/><path d="M106.06,259.39a1,1,0,0,1,.16-.44.64.64,0,0,1,.61-.28h11.65c0,.91,0,1.64,0,2.21a2.64,2.64,0,0,1-.16,1.05.54.54,0,0,1-.46.19h-8.07v9.48h2.54q4,0,5.77,1.95c1.17,1.3,1.76,3.36,1.76,6.2q0,5.06-2.16,7.87a7,7,0,0,1-5.87,2.79h-5.76Zm5.67,27.8a3.08,3.08,0,0,0,3-1.65,12.18,12.18,0,0,0,.89-5.42,7.47,7.47,0,0,0-.75-4,3.1,3.1,0,0,0-2.78-1.1h-2.27V287.1A14.56,14.56,0,0,0,111.73,287.19Z"/><path d="M130.77,290.88a7.41,7.41,0,0,1-4.84-1.44,8.85,8.85,0,0,1-2.55-5,48,48,0,0,1-.81-10.08,39.1,39.1,0,0,1,.92-9.53,9.46,9.46,0,0,1,2.83-5.08,7.65,7.65,0,0,1,5-1.54,7,7,0,0,1,4.71,1.48,8.92,8.92,0,0,1,2.51,4.93,56.74,56.74,0,0,1-.08,19.45,9.63,9.63,0,0,1-2.73,5.21A7.31,7.31,0,0,1,130.77,290.88Zm.14-3.78a3.06,3.06,0,0,0,2.62-1.26,9.2,9.2,0,0,0,1.39-4,50.54,50.54,0,0,0,.44-7.49A56.88,56.88,0,0,0,135,267a8.07,8.07,0,0,0-1.28-3.81,3,3,0,0,0-2.53-1.19,3.11,3.11,0,0,0-2.61,1.29,9.61,9.61,0,0,0-1.43,4.18,53.39,53.39,0,0,0-.44,7.82,50.35,50.35,0,0,0,.37,6.92,8.27,8.27,0,0,0,1.29,3.74A3.05,3.05,0,0,0,130.91,287.1Z"/><path d="M157.2,258.67v2.67a.85.85,0,0,1-.17.62.87.87,0,0,1-.59.16h-5.58v27.57a.68.68,0,0,1-.18.55,3,3,0,0,1-1.09.16h-2.4V262.12H141v-2.73q0-.72.78-.72Z"/><path d="M177.11,289.74a.49.49,0,0,1-.23.59,3.38,3.38,0,0,1-1.35.17c-.81,0-1.54,0-2.17-.09l-1.92-8.07h-7.88l-1.77,7.44a1,1,0,0,1-.45.56,3.06,3.06,0,0,1-1.27.16,22.66,22.66,0,0,1-2.27-.14l8.11-31.2c.1-.42.55-.63,1.37-.63a8.27,8.27,0,0,1,1.72.14ZM170.63,279l-1.54-6.52a62.59,62.59,0,0,1-1.58-8.75,85.24,85.24,0,0,1-1.65,8.75L164.32,279Z"/><path d="M194.3,290.88a7.16,7.16,0,0,1-4.51-1.3,8.19,8.19,0,0,1-2.5-4.48,40.3,40.3,0,0,1-.92-9.07h-3.49v13.66a.83.83,0,0,1-.14.55,2.55,2.55,0,0,1-1,.16h-2.34v-31a.66.66,0,0,1,.16-.53,2.21,2.21,0,0,1,1-.16c.57,0,1.35,0,2.32,0v14h3.52a33.72,33.72,0,0,1,1-8.45,9,9,0,0,1,2.69-4.56,8.16,8.16,0,0,1,9.27.07,8.91,8.91,0,0,1,2.55,4.95,44.85,44.85,0,0,1,.8,9.58,43.31,43.31,0,0,1-.89,9.85,9.77,9.77,0,0,1-2.73,5.21A7.06,7.06,0,0,1,194.3,290.88Zm.09-3.78a3,3,0,0,0,2.55-1.26,9.12,9.12,0,0,0,1.35-4,54.22,54.22,0,0,0,.41-7.49,56.88,56.88,0,0,0-.37-7.33,8.67,8.67,0,0,0-1.24-3.85,3,3,0,0,0-2.52-1.2,2.89,2.89,0,0,0-2.43,1.29,10.12,10.12,0,0,0-1.36,4.22,57.4,57.4,0,0,0-.43,7.83,52.28,52.28,0,0,0,.36,6.92,8.3,8.3,0,0,0,1.26,3.74A2.87,2.87,0,0,0,194.39,287.1Z"/><path d="M220.64,258.67v2.67a.8.8,0,0,1-.18.62.84.84,0,0,1-.58.16H214.3v27.57a.68.68,0,0,1-.18.55,3.1,3.1,0,0,1-1.1.16h-2.39V262.12h-6.18v-2.73q0-.72.78-.72Z"/><path d="M0,310.45a.89.89,0,0,1,.32-.81,5,5,0,0,1,1.88-.27c1,0,2.44-.07,4.21-.07H18v39.33c0,.43-.1.71-.28.83a4.85,4.85,0,0,1-1.88.27c-1.06,0-2.48,0-4.25,0V315.33H6.41v33.3c0,.43-.09.71-.28.83a4.85,4.85,0,0,1-1.88.27c-1.06,0-2.48,0-4.25,0Z" fill="#009245"/><path d="M28.16,309.3a16.06,16.06,0,0,1,6.31,1.05A7.19,7.19,0,0,1,38.15,314a16.61,16.61,0,0,1,1.28,7.22q0,7.17-3.1,10.07a11.11,11.11,0,0,1-7.88,2.89H28v14.45c0,.43-.1.71-.29.83a4.8,4.8,0,0,1-1.88.27c-1.06,0-2.48,0-4.25,0V310.45a1.35,1.35,0,0,1,.23-.88,1.19,1.19,0,0,1,.92-.27Zm1.05,18.92a2.39,2.39,0,0,0,2.25-1.61q.73-1.62.74-6.2a10.89,10.89,0,0,0-.6-4.18,2,2,0,0,0-2-1.37H28v13.36Z" fill="#009245"/><path d="M51.58,350.37a9.73,9.73,0,0,1-6.18-1.74q-2.2-1.72-3.22-6.23a63.53,63.53,0,0,1-1-13.08,50.23,50.23,0,0,1,1.18-12.26c.79-3,2-5.14,3.58-6.41a9.81,9.81,0,0,1,6.29-1.91,9.37,9.37,0,0,1,6.06,1.78q2.19,1.8,3.21,6.19a57.72,57.72,0,0,1,1,12.36,55.11,55.11,0,0,1-1.16,12.74q-1.17,4.62-3.49,6.59A9.45,9.45,0,0,1,51.58,350.37Zm.34-6.66a2.37,2.37,0,0,0,2.2-1.44,12.8,12.8,0,0,0,1-4.48q.29-3,.29-8.47,0-5.61-.2-8.45a10.64,10.64,0,0,0-.92-4.16,2.42,2.42,0,0,0-4.39.14,13.34,13.34,0,0,0-1.1,4.76q-.31,3.3-.32,9.15,0,4.92.25,7.63a10.53,10.53,0,0,0,1,4A2.32,2.32,0,0,0,51.92,343.71Z" fill="#009245"/><path d="M76.44,346q-6.18-.81-8.87-5.18t-2.7-12.24c0-4.61.93-8.38,2.8-11.28a12.72,12.72,0,0,1,8.72-5.53v-2.27a5,5,0,0,1,.28-2.07c.19-.35.67-.57,1.44-.64s2.36-.12,4.75-.12v5q6.06,1.05,8.82,5.29t2.74,11.48q0,7.33-2.87,11.82a12.34,12.34,0,0,1-8.69,5.53v2.3a3.43,3.43,0,0,1-.27,1.68c-.17.27-.64.44-1.42.5s-2.35.09-4.73.09Zm6.42-6.19c1.61-.39,2.79-1.6,3.52-3.65a22.55,22.55,0,0,0,1.12-7.63,23.94,23.94,0,0,0-1-7.65,4.52,4.52,0,0,0-3.64-3.33Zm-6.42-22.16q-2.55.58-3.7,3.74a23.22,23.22,0,0,0-1.15,7.9,21,21,0,0,0,1.11,7.41,4.86,4.86,0,0,0,3.74,3.34Z" fill="#009245"/><path d="M103.73,344.06H112c0,1.54,0,2.77-.07,3.7a4.14,4.14,0,0,1-.27,1.7.8.8,0,0,1-.76.32H97.32V310.45a1.55,1.55,0,0,1,.23-.71.94.94,0,0,1,.92-.44h13.89c0,1.47,0,2.67-.07,3.6a4.5,4.5,0,0,1-.29,1.75.86.86,0,0,1-.81.37h-7.46v9.89h7c0,1.43,0,2.62,0,3.56a6,6,0,0,1-.27,1.88.7.7,0,0,1-.71.46h-6Z" fill="#009245"/><path d="M123.79,350.37a8.9,8.9,0,0,1-5.51-1.56q-2.06-1.57-3.1-5.76a53.53,53.53,0,0,1-1-12.17q0-22.14,11.57-22.14,3.35,0,4.41.9a3.07,3.07,0,0,1,1.08,2.5,9.17,9.17,0,0,1-.92,3.88,4.94,4.94,0,0,0-3-1c-1.92,0-3.46,1.12-4.62,3.33s-1.74,6.22-1.74,12a50,50,0,0,0,.47,7.81,8.14,8.14,0,0,0,1.43,3.92,3.41,3.41,0,0,0,2.68,1.11,9.69,9.69,0,0,0,4.51-.87,8.31,8.31,0,0,1,.87,3.76,3.5,3.5,0,0,1-1.89,3.15A10,10,0,0,1,123.79,350.37Z" fill="#009245"/><path d="M142.58,350.37a8.9,8.9,0,0,1-5.51-1.56q-2.06-1.57-3.1-5.76a53.53,53.53,0,0,1-1-12.17q0-22.14,11.57-22.14,3.34,0,4.41.9a3,3,0,0,1,1.08,2.5,9.17,9.17,0,0,1-.92,3.88,4.93,4.93,0,0,0-3-1c-1.93,0-3.47,1.12-4.63,3.33s-1.73,6.22-1.73,12a50.26,50.26,0,0,0,.46,7.81,8.14,8.14,0,0,0,1.43,3.92,3.41,3.41,0,0,0,2.68,1.11,9.66,9.66,0,0,0,4.51-.87,8.31,8.31,0,0,1,.87,3.76,3.5,3.5,0,0,1-1.89,3.15A10,10,0,0,1,142.58,350.37Z" fill="#009245"/><path d="M152.36,310.4c0-.42.07-.69.23-.8a5,5,0,0,1,1.74-.23c1,0,2.37-.07,4.11-.07v16.25q0,4.69-.7,11.87.93-3.6,2.77-9.09l.87-2.55,4.69-15a2.12,2.12,0,0,1,.6-1.1,2.56,2.56,0,0,1,1.33-.34c.64,0,1.88-.07,3.74-.07v39.38a.81.81,0,0,1-.35.78,5.09,5.09,0,0,1-1.83.27c-1,0-2.26,0-3.84,0V335.45c0-1.63.07-3.72.23-6.29s.34-4.82.58-6.78a77.7,77.7,0,0,1-3.29,12.31l-4.8,13.59a2.64,2.64,0,0,1-.64,1.1,2.56,2.56,0,0,1-1.37.35c-.67,0-2,0-4.07,0Z" fill="#009245"/><path d="M185.15,350.37a9.71,9.71,0,0,1-6.18-1.74c-1.47-1.15-2.54-3.23-3.23-6.23a64.25,64.25,0,0,1-1-13.08,50.16,50.16,0,0,1,1.19-12.26c.79-3,2-5.14,3.58-6.41a9.77,9.77,0,0,1,6.29-1.91,9.37,9.37,0,0,1,6.06,1.78q2.19,1.8,3.2,6.19a57,57,0,0,1,1,12.36,54.47,54.47,0,0,1-1.17,12.74q-1.16,4.62-3.49,6.59A9.44,9.44,0,0,1,185.15,350.37Zm.34-6.66a2.36,2.36,0,0,0,2.19-1.44,12.55,12.55,0,0,0,1-4.48q.28-3,.28-8.47,0-5.61-.19-8.45a10.64,10.64,0,0,0-.92-4.16,2.43,2.43,0,0,0-4.4.14,13.79,13.79,0,0,0-1.1,4.76q-.32,3.3-.31,9.15,0,4.92.24,7.63a10.69,10.69,0,0,0,1,4A2.32,2.32,0,0,0,185.49,343.71Z" fill="#009245"/><path d="M217.59,348.63c0,.43-.09.71-.26.83a4.67,4.67,0,0,1-1.86.27c-1.06,0-2.49,0-4.31,0V331.22h-5.67v17.41c0,.43-.09.71-.26.83a4.52,4.52,0,0,1-1.85.27c-1,0-2.49,0-4.3,0V310.45a1,1,0,0,1,.26-.81,4.6,4.6,0,0,1,1.85-.27c1.06,0,2.49-.07,4.3-.07v15.91h5.67V310.45a1,1,0,0,1,.27-.81,4.49,4.49,0,0,1,1.84-.27c1.06,0,2.5-.07,4.32-.07Z" fill="#009245"/><path d="M244.54,348.74a.77.77,0,0,1-.48.88,6.49,6.49,0,0,1-2.43.29c-1.34,0-2.58-.05-3.7-.13l-1.9-9.24h-7.81l-1.68,8.14a1.37,1.37,0,0,1-.66,1,5.87,5.87,0,0,1-2.28.27,34.1,34.1,0,0,1-4-.25l9.65-39.26c.15-.8,1-1.2,2.59-1.2a16.17,16.17,0,0,1,3.07.23Zm-9.73-14-1.15-5.42a103.61,103.61,0,0,1-1.51-10.93q-.81,7.33-1.55,10.93l-1.16,5.42Z" fill="#009245"/><path d="M248.41,350.42a3.67,3.67,0,0,1-2.7-1,4,4,0,0,1-1-3,10.14,10.14,0,0,1,.13-1.27c1.46,0,2.55-1.05,3.26-3.17a44.37,44.37,0,0,0,1.57-9.69q.54-6.53,1.12-21.08a2.16,2.16,0,0,1,.34-1.26,2.26,2.26,0,0,1,1.4-.5,31.83,31.83,0,0,1,3.8-.16h10.3v39.33c0,.43-.1.71-.3.83a4.73,4.73,0,0,1-1.85.27c-1,0-2.46,0-4.27,0V315.33h-3.36q-.52,12.59-1.47,20.17t-2.61,11.25Q251.11,350.42,248.41,350.42Z" fill="#009245"/><path d="M270.2,310.45a1,1,0,0,1,.26-.81,4.6,4.6,0,0,1,1.85-.27c1.06,0,2.49-.07,4.3-.07v15.91h1.74q5.14,0,7.31,2.52c1.46,1.68,2.18,4.35,2.18,8q0,6.78-2.72,10.42a8.52,8.52,0,0,1-7.16,3.63H270.2Zm7.69,33.72a1.62,1.62,0,0,0,1.41-.66,5.28,5.28,0,0,0,.73-2.32,38.18,38.18,0,0,0,.23-4.82,21,21,0,0,0-.18-3.24,2.34,2.34,0,0,0-.63-1.47,2.05,2.05,0,0,0-1.44-.44h-1.4v12.84A4.77,4.77,0,0,0,277.89,344.17Zm12.84-32a4.54,4.54,0,0,1,.32-2.08,1.82,1.82,0,0,1,1.47-.63c.77-.08,2.35-.13,4.75-.13v39.33c0,.43-.1.71-.3.83a5,5,0,0,1-1.92.27c-1.07,0-2.51,0-4.32,0Z" fill="#009245"/></g></g></svg>